<svg width="328" height="328" viewBox="0 0 328 328" fill="none" xmlns="http://www.w3.org/2000/svg">
<path d="M328 250.854H0V251.018H328V250.854Z" fill="#EEEEEE"/>
<path d="M295.134 261.41H273.408V261.574H295.134V261.41Z" fill="#EEEEEE"/>
<path d="M217.28 263.194H211.58V263.358H217.28V263.194Z" fill="#EEEEEE"/>
<path d="M272.752 255.322H260.163V255.486H272.752V255.322Z" fill="#EEEEEE"/>
<path d="M62.7464 256.424H34.4138V256.588H62.7464V256.424Z" fill="#EEEEEE"/>
<path d="M72.7439 256.424H68.5914V256.588H72.7439V256.424Z" fill="#EEEEEE"/>
<path d="M147.698 259.192H86.2443V259.356H147.698V259.192Z" fill="#EEEEEE"/>
<path d="M155.472 221.597H28.805C27.8127 221.595 26.8616 221.2 26.1606 220.497C25.4595 219.795 25.0658 218.843 25.0658 217.851V39.793C25.0744 38.8064 25.472 37.8631 26.1721 37.1679C26.8722 36.4727 27.8183 36.0818 28.805 36.0801H155.472C156.465 36.0801 157.418 36.4747 158.121 37.1772C158.823 37.8797 159.218 38.8324 159.218 39.8258V217.851C159.218 218.845 158.823 219.797 158.121 220.5C157.418 221.202 156.465 221.597 155.472 221.597ZM28.805 36.2113C27.8562 36.213 26.9468 36.5911 26.2765 37.2627C25.6062 37.9342 25.2298 38.8442 25.2298 39.793V217.851C25.2298 218.8 25.6062 219.71 26.2765 220.381C26.9468 221.053 27.8562 221.431 28.805 221.433H155.472C156.421 221.431 157.331 221.053 158.003 220.382C158.674 219.711 159.052 218.801 159.054 217.851V39.793C159.052 38.8436 158.674 37.9336 158.003 37.2623C157.331 36.5909 156.421 36.213 155.472 36.2113H28.805Z" fill="#EEEEEE"/>
<path d="M297.371 221.597H170.698C169.705 221.595 168.753 221.2 168.051 220.498C167.349 219.796 166.954 218.844 166.952 217.851V39.793C166.962 38.8058 167.361 37.8625 168.063 37.1675C168.764 36.4724 169.71 36.0817 170.698 36.0801H297.371C298.357 36.0835 299.301 36.4752 300 37.1702C300.699 37.8652 301.095 38.8076 301.104 39.793V217.851C301.104 218.842 300.711 219.793 300.012 220.495C299.312 221.197 298.363 221.593 297.371 221.597ZM170.698 36.2113C169.748 36.213 168.838 36.5909 168.167 37.2623C167.496 37.9336 167.118 38.8436 167.116 39.793V217.851C167.118 218.801 167.496 219.711 168.167 220.382C168.838 221.053 169.748 221.431 170.698 221.433H297.371C298.321 221.431 299.231 221.053 299.902 220.382C300.573 219.711 300.951 218.801 300.953 217.851V39.793C300.951 38.8436 300.573 37.9336 299.902 37.2623C299.231 36.5909 298.321 36.213 297.371 36.2113H170.698Z" fill="#EEEEEE"/>
<path d="M152.9 69.9363H54.0085V157.689H152.9V69.9363Z" fill="#D9D9D9"/>
<path d="M150.296 72.3438H56.4816V155.334H150.296V72.3438Z" fill="white"/>
<path d="M78.5035 72.3438L56.4882 155.151V116.237L68.1125 72.3438H78.5035Z" fill="#F5F5F5"/>
<path d="M86.2968 72.3438L64.0912 155.334H60.5422L82.7544 72.3438H86.2968Z" fill="#F5F5F5"/>
<path d="M150.296 124.712V137.97L145.803 155.334H142.26L150.296 124.712Z" fill="#F5F5F5"/>
<path d="M89.2029 70.8481H87.6219V157.184H89.2029V70.8481Z" fill="#D9D9D9"/>
<path d="M119.832 70.8481H118.251V157.184H119.832V70.8481Z" fill="#D9D9D9"/>
<path d="M274.7 97.0291H180.243V125.119H274.7V97.0291Z" fill="#D9D9D9"/>
<path d="M258.057 97.0291H180.243V125.119H258.057V97.0291Z" fill="white"/>
<path d="M255.289 122.469H232.486V99.6726H255.289V122.469ZM233.142 121.813H254.633V100.329H233.142V121.813Z" fill="#EEEEEE"/>
<path d="M203.091 122.469H183.201V99.6726H203.091V122.469ZM183.857 121.813H202.435V100.329H183.857V121.813Z" fill="#EEEEEE"/>
<path d="M209.907 108.28H205.367V113.862H209.907V108.28Z" fill="#D9D9D9"/>
<path d="M216.264 108.28H211.724V113.862H216.264V108.28Z" fill="#D9D9D9"/>
<path d="M222.62 108.28H218.081V113.862H222.62V108.28Z" fill="#D9D9D9"/>
<path d="M228.983 108.28H224.444V113.862H228.983V108.28Z" fill="#D9D9D9"/>
<path d="M259.599 84.2107H257.264V95.7563H259.599V84.2107Z" fill="#F1F1F1"/>
<path d="M264.584 95.238H252.271L251.615 97.0289H265.24L264.584 95.238Z" fill="#F1F1F1"/>
<path d="M268.356 69.9363H248.506V87.1956H268.356V69.9363Z" fill="#DDDDDD"/>
<path d="M195.272 84.2107H192.936V95.7563H195.272V84.2107Z" fill="#F1F1F1"/>
<path d="M200.257 95.238H187.944L187.288 97.0289H200.913L200.257 95.238Z" fill="#F1F1F1"/>
<path d="M204.029 69.9363H184.179V87.1956H204.029V69.9363Z" fill="#DDDDDD"/>
<path d="M164 280.479C234.246 280.479 291.192 277.155 291.192 273.053C291.192 268.952 234.246 265.628 164 265.628C93.7539 265.628 36.8082 268.952 36.8082 273.053C36.8082 277.155 93.7539 280.479 164 280.479Z" fill="#DDDDDD"/>
<path d="M90.305 114.341C90.305 114.341 86.7429 114.767 86.9659 117.437C86.9659 117.437 82.9512 117.693 83.6203 120.31C83.6203 120.31 80.4912 121.452 81.5014 125.906C82.5117 130.36 102.776 130.879 105.301 129.022C107.827 127.166 106.056 124.391 106.056 124.391C106.056 124.391 107.177 123.407 105.4 121.367C105.695 120.504 105.691 119.567 105.389 118.706C105.086 117.846 104.503 117.112 103.733 116.624C101.024 114.879 93.1979 113.842 90.305 114.341Z" fill="#030311"/>
<path d="M117.116 272.45C112.871 272.45 112.307 272.384 109.9 272.306C107.86 272.233 107.368 272.489 105.728 272.45C104.35 272.45 104.416 271.105 104.829 269.596C105.039 268.835 105.367 267.235 105.655 266.008L111.881 265.555C112.76 267.228 114.734 269.609 117.129 269.931C119.431 270.272 118.815 272.45 117.116 272.45Z" fill="#030311"/>
<path d="M96.1499 157.873C96.1499 157.873 101.647 191.008 102.552 208.103C103.504 226.051 109.263 254.804 112.301 266.034C111.448 266.808 107.42 267.13 105.518 266.179C105.518 266.179 88.9142 233.018 91.0856 212.288C77.1981 173.191 80.5568 158.562 80.5568 158.562L96.1499 157.873Z" fill="url(#paint0_linear_620_1193)"/>
<g opacity="0.5">
<path d="M96.1499 157.873C96.1499 157.873 101.647 191.008 102.552 208.103C103.504 226.051 109.263 254.804 112.301 266.034C111.448 266.808 107.42 267.13 105.518 266.179C105.518 266.179 88.9142 233.018 91.0856 212.288C77.1981 173.191 80.5568 158.562 80.5568 158.562L96.1499 157.873Z" fill="#F5F5F5"/>
</g>
<path d="M85.6867 272.45C81.4424 272.45 80.8782 272.384 78.4707 272.306C76.4306 272.233 75.9386 272.489 74.2986 272.45C72.921 272.45 72.9866 271.105 73.3998 269.596C73.6098 268.835 73.9378 267.235 74.2264 266.008L80.4518 265.555C81.3309 267.228 83.3054 269.609 85.6998 269.931C88.0024 270.272 87.3858 272.45 85.6867 272.45Z" fill="#030311"/>
<path opacity="0.2" d="M86.9593 199.85C84.9913 193.336 83.5613 187.695 82.5576 182.86C83.5547 179.075 84.9717 175.834 86.9003 173.892C86.9003 173.892 89.6686 184.428 86.9593 199.85Z" fill="black"/>
<path d="M90.2 156.128C90.2 156.128 85.6539 191.283 83.0562 208.201C80.3206 225.972 79.9729 254.482 80.6552 266.1C79.6581 266.677 76.0632 267.372 74.0952 266.756C74.0952 266.756 64.8325 230.82 70.9857 209.953C65.3835 168.841 73.4917 158.785 73.4917 158.785L90.2 156.128Z" fill="url(#paint1_linear_620_1193)"/>
<g opacity="0.5">
<path d="M90.2 156.128C90.2 156.128 85.6539 191.283 83.0562 208.201C80.3206 225.972 79.9729 254.482 80.6552 266.1C79.6581 266.677 76.0632 267.372 74.0952 266.756C74.0952 266.756 64.8325 230.82 70.9857 209.953C65.3835 168.841 73.4917 158.785 73.4917 158.785L90.2 156.128Z" fill="#F5F5F5"/>
</g>
<path d="M136.317 145.632L134.92 144.694C134.661 144.521 134.365 144.412 134.056 144.375C133.747 144.339 133.434 144.376 133.142 144.484L130.373 145.527C129.828 145.731 129.34 146.062 128.95 146.494C128.559 146.925 128.278 147.444 128.13 148.007L127.946 148.715C130.15 150.434 133.804 150.683 133.804 150.683L134.834 150.86C135.047 150.904 135.266 150.904 135.479 150.862C135.692 150.819 135.894 150.734 136.073 150.611C136.252 150.489 136.405 150.332 136.523 150.149C136.64 149.967 136.719 149.762 136.756 149.548L137.143 147.508C137.202 147.149 137.156 146.78 137.009 146.447C136.862 146.114 136.622 145.831 136.317 145.632Z" fill="#ED893E"/>
<path d="M109.112 130.157C110.871 133.142 112.727 136.658 114.977 139.144C115.795 139.818 116.699 140.378 117.667 140.81C119.891 141.919 122.259 142.929 124.686 143.939L131.954 146.944C132.298 147.09 132.577 147.358 132.736 147.696C132.895 148.034 132.925 148.419 132.818 148.777C132.712 149.135 132.478 149.442 132.16 149.639C131.842 149.835 131.463 149.908 131.095 149.843C128.471 149.351 125.847 148.761 123.282 148.072C119.477 146.977 115.41 145.953 111.927 143.795C110.499 142.737 109.235 141.475 108.174 140.049C106.473 137.846 104.979 135.49 103.714 133.01C101.975 129.402 107.099 126.687 109.112 130.15V130.157Z" fill="#ED893E"/>
<path d="M101.746 123.518C106.816 123.367 109.618 126.752 112.898 134.801C111.408 137.799 104.455 140.653 104.455 140.653C104.455 140.653 98.4 128.871 101.746 123.518Z" fill="url(#paint2_linear_620_1193)"/>
<path opacity="0.6" d="M100.958 130.301C101.639 133.895 102.805 137.379 104.422 140.66C104.422 140.66 105.157 140.358 106.193 139.846C108.358 138.797 111.861 136.829 112.865 134.801C109.585 126.752 106.816 123.374 101.713 123.525C100.644 125.296 100.571 127.776 100.958 130.301Z" fill="#F5F5F5"/>
<path opacity="0.1" d="M100.958 130.301C101.639 133.895 102.805 137.379 104.422 140.66C104.422 140.66 105.157 140.358 106.193 139.846C106.444 137.906 106.072 135.936 105.131 134.221C104.191 132.505 102.729 131.133 100.958 130.301Z" fill="black"/>
<path d="M98.8461 163.41L90.4034 166.263L88.8355 161.133L87.1234 165.863L71.7926 162.301C73.1046 152.887 78.3526 145.383 79.1792 142.529C80.3206 138.593 81.2062 131.062 80.4322 126.195V126.162C80.3557 125.67 80.3813 125.168 80.5074 124.687C80.6335 124.206 80.8574 123.756 81.1652 123.365C81.4729 122.974 81.8579 122.651 82.2961 122.415C82.7343 122.18 83.2164 122.037 83.7122 121.996C85.1947 121.878 86.6838 121.819 88.1795 121.819C91.1334 121.785 94.0861 121.958 97.0158 122.337C100.781 122.928 105.039 124.076 105.039 124.076C105.039 124.076 105.623 124.325 105.354 128.373C105.104 131.908 104.429 142.903 97.193 152.205L98.8461 163.41Z" fill="url(#paint3_linear_620_1193)"/>
<path opacity="0.6" d="M71.7926 162.294L87.1233 165.863L88.8355 161.133L90.3968 166.263L98.8526 163.41L97.1798 152.192C104.396 142.883 105.091 131.895 105.34 128.346C105.609 124.305 105.019 124.056 105.019 124.056C105.019 124.056 100.768 122.915 97.0027 122.318C94.0733 121.936 91.1204 121.763 88.1664 121.8C86.6707 121.8 85.1816 121.859 83.699 121.977C83.2032 122.018 82.7212 122.16 82.283 122.396C81.8448 122.631 81.4598 122.955 81.1521 123.345C80.8443 123.736 80.6204 124.186 80.4943 124.667C80.3682 125.149 80.3425 125.651 80.419 126.142C80.4159 126.153 80.4159 126.164 80.419 126.175C80.7258 128.453 80.7961 130.757 80.629 133.05C80.4652 136.245 79.9751 139.414 79.1661 142.51C78.9095 143.273 78.5959 144.017 78.228 144.733C76.4306 148.42 72.8488 154.744 71.7926 162.294Z" fill="#F5F5F5"/>
<path d="M90.2459 129.324C90.2459 129.324 93.6243 132.25 94.6083 139.774L98.4131 129.278L101.037 130.072C101.037 130.072 99.0232 120.54 92.4566 120.356C85.8901 120.173 86.4083 130.072 86.4083 130.072L90.2459 129.324Z" fill="url(#paint4_linear_620_1193)"/>
<path opacity="0.5" d="M90.2459 129.324C90.2459 129.324 93.6243 132.25 94.6083 139.774L98.4131 129.278L101.037 130.072C101.037 130.072 99.0232 120.54 92.4566 120.356C85.8901 120.173 86.4083 130.072 86.4083 130.072L90.2459 129.324Z" fill="#F5F5F5"/>
<path d="M99.712 118.598C99.712 118.598 97.311 120.146 96.8978 121.17C96.8745 121.234 96.8547 121.3 96.8387 121.366C96.7213 121.949 96.6403 122.538 96.596 123.131C98.459 127.067 94.9166 133.857 94.9166 133.857C93.4964 129.849 91.4794 126.078 88.9339 122.672C92.7781 121.17 93.5259 113.803 93.5259 113.803L95.389 115.239L99.712 118.598Z" fill="#ED893E"/>
<path opacity="0.2" d="M99.712 118.598C99.712 118.598 97.311 120.146 96.8977 121.17C96.8744 121.234 96.8547 121.3 96.8387 121.366C95.8285 120.588 95.0242 119.574 94.4959 118.414C93.9676 117.253 93.7314 115.981 93.808 114.708L95.3627 115.239L99.712 118.598Z" fill="black"/>
<path d="M101.024 101.372C101.024 101.372 102.001 100.525 104.304 101.116C106.607 101.706 106.272 103.261 106.272 103.261C106.272 103.261 109.119 104.474 109.493 106.987C109.867 109.499 108.306 110.319 108.306 110.319C108.659 110.82 108.879 111.403 108.945 112.013C109.01 112.622 108.919 113.238 108.68 113.803C108.474 114.363 108.154 114.875 107.74 115.304C107.325 115.733 106.825 116.071 106.272 116.296C106.272 116.296 106.823 117.968 103.477 118.041C100.132 118.113 95.3889 114.341 95.3889 114.341L93.4209 114.997C93.4209 114.997 91.1381 115.712 89.7998 114.341C88.4616 112.97 89.7998 110.962 89.7998 110.962C89.4967 110.817 89.2277 110.609 89.0106 110.353C88.7935 110.096 88.6332 109.796 88.5403 109.473C88.2385 108.384 89.3669 106.987 89.3669 106.987C89.3669 106.987 90.7379 101.129 94.2737 100.04C97.8096 98.9509 101.024 101.372 101.024 101.372Z" fill="#030311"/>
<path d="M100.558 102.224C105.577 102.88 106.823 105.819 106.462 111.035C106.042 117.595 103.983 121.957 97.9014 119.72C89.6621 116.689 92.227 101.09 100.558 102.224Z" fill="#ED893E"/>
<path d="M103.287 110.313C103.585 111.119 103.979 111.885 104.461 112.596C104.286 112.783 104.062 112.918 103.814 112.987C103.566 113.055 103.305 113.054 103.058 112.983L103.287 110.313Z" fill="#ED893E"/>
<path d="M100.27 109.486C100.224 109.9 99.9613 110.208 99.6858 110.142C99.4102 110.077 99.2266 109.755 99.2725 109.342C99.3184 108.929 99.5808 108.62 99.8563 108.647C100.132 108.673 100.316 109.073 100.27 109.486Z" fill="#030311"/>
<path d="M99.712 108.686L100.65 108.437C100.65 108.437 100.145 109.145 99.712 108.686Z" fill="#030311"/>
<path d="M105.419 109.978C105.373 110.392 105.111 110.7 104.835 110.634C104.56 110.569 104.376 110.247 104.422 109.834C104.468 109.421 104.73 109.113 105.006 109.139C105.281 109.165 105.465 109.552 105.419 109.978Z" fill="#030311"/>
<path d="M104.888 109.178L105.826 108.929C105.826 108.929 105.295 109.637 104.888 109.178Z" fill="#030311"/>
<path d="M98.4 106.692C98.3706 106.693 98.3413 106.688 98.3141 106.676C98.2869 106.665 98.2625 106.648 98.2426 106.626C98.2221 106.606 98.2059 106.582 98.1948 106.556C98.1838 106.529 98.1781 106.501 98.1781 106.472C98.1781 106.443 98.1838 106.415 98.1948 106.388C98.2059 106.362 98.2221 106.338 98.2426 106.318C98.5879 106.044 98.9929 105.855 99.4247 105.766C99.8566 105.677 100.303 105.691 100.729 105.806C100.784 105.821 100.832 105.857 100.861 105.907C100.89 105.957 100.898 106.016 100.883 106.072C100.868 106.128 100.832 106.175 100.782 106.204C100.732 106.233 100.673 106.241 100.617 106.226C100.262 106.132 99.891 106.12 99.5308 106.19C99.1706 106.261 98.8311 106.412 98.5378 106.633C98.501 106.669 98.4518 106.69 98.4 106.692Z" fill="#030311"/>
<path d="M106.311 107.204C106.285 107.204 106.258 107.199 106.233 107.188C106.209 107.178 106.186 107.163 106.167 107.145C105.943 106.911 105.669 106.73 105.366 106.617C105.063 106.503 104.738 106.459 104.416 106.489C104.388 106.495 104.358 106.496 104.33 106.492C104.302 106.487 104.274 106.477 104.25 106.462C104.225 106.446 104.204 106.426 104.188 106.403C104.171 106.379 104.159 106.353 104.153 106.325C104.143 106.269 104.154 106.212 104.185 106.164C104.215 106.117 104.263 106.083 104.317 106.069C104.706 106.02 105.101 106.061 105.471 106.188C105.842 106.316 106.179 106.526 106.456 106.803C106.489 106.832 106.513 106.871 106.524 106.914C106.535 106.957 106.533 107.003 106.517 107.044C106.501 107.086 106.473 107.121 106.436 107.146C106.399 107.171 106.356 107.184 106.311 107.184V107.204Z" fill="#030311"/>
<path d="M93.9261 109.939C93.9261 109.939 96.8321 106.134 96.9109 102.9C96.9109 102.9 107.407 100.197 106.521 110.352C106.521 110.352 108.712 101.523 100.119 100.152C91.5251 98.7805 89.5374 110.648 93.48 114.984C93.1004 114.179 92.9416 113.287 93.02 112.401C93.0984 111.515 93.4111 110.665 93.9261 109.939Z" fill="#030311"/>
<path d="M94.6018 111.107C94.6322 110.519 94.4283 109.943 94.0348 109.505C93.6413 109.067 93.0903 108.804 92.5026 108.771C90.9282 108.732 89.7539 111.822 93.5128 113.114C94.0507 113.304 94.464 112.832 94.6018 111.107Z" fill="#ED893E"/>
<path d="M102.992 115.403C102.355 115.34 101.741 115.129 101.199 114.787C100.657 114.446 100.202 113.983 99.8694 113.435C99.8403 113.387 99.8315 113.328 99.845 113.273C99.8585 113.218 99.8932 113.17 99.9416 113.14C99.9918 113.112 100.051 113.104 100.106 113.118C100.162 113.131 100.211 113.165 100.243 113.212C100.542 113.694 100.945 114.102 101.424 114.407C101.902 114.711 102.442 114.904 103.005 114.97C103.036 114.965 103.068 114.966 103.099 114.975C103.129 114.983 103.158 114.998 103.182 115.018C103.206 115.038 103.225 115.064 103.239 115.092C103.252 115.121 103.259 115.152 103.259 115.184C103.259 115.215 103.252 115.246 103.239 115.275C103.225 115.304 103.206 115.329 103.182 115.349C103.158 115.37 103.129 115.385 103.099 115.393C103.068 115.401 103.036 115.402 103.005 115.397L102.992 115.403Z" fill="#030311"/>
<path d="M89.4259 106.987L89.7933 99.174L88.4157 97.0158C91.9854 95.7139 95.8477 95.4345 99.5677 96.2089L104.343 101.116C104.343 101.116 95.12 98.8198 89.4259 106.987Z" fill="url(#paint5_linear_620_1193)"/>
<path opacity="0.6" d="M104.304 101.116C100.827 100.416 97.2158 100.957 94.0966 102.644C92.2231 103.716 90.6189 105.201 89.4062 106.987L89.7736 99.1741L88.396 97.0224C91.9649 95.7167 95.8283 95.4372 99.548 96.2155L104.304 101.116Z" fill="#F5F5F5"/>
<path opacity="0.1" d="M94.1163 102.644C92.2428 103.716 90.6386 105.201 89.4259 106.987L89.7933 99.1741L88.4157 97.0225L94.1163 102.644Z" fill="black"/>
<path d="M104.068 141.591L97.357 141.138L97.8358 137.393L104.547 137.852L104.068 141.591Z" fill="url(#paint6_linear_620_1193)"/>
<path opacity="0.5" d="M103.707 141.302L97.9342 140.909L98.3475 137.688L104.12 138.081L103.707 141.302Z" fill="#F5F5F5"/>
<path d="M101.391 136.376L100.742 138.186H101.824V136.376H101.391Z" fill="#030311"/>
<path opacity="0.1" d="M78.2411 144.753C85.385 144.058 84.7421 134.5 84.7421 134.5C83.4177 133.91 82.0462 133.431 80.6421 133.07C80.4784 136.264 79.9882 139.434 79.1792 142.529C78.9226 143.293 78.609 144.036 78.2411 144.753Z" fill="black"/>
<path d="M147.836 175.847C147.39 177.087 144.661 175.847 144.661 175.847C144.661 175.847 111.205 183.857 95.8416 184.625C95.8416 184.625 93.257 186.743 92.7584 186.16C92.7026 186.081 92.6625 185.991 92.6403 185.897C92.3779 184.926 92.883 182.191 92.883 182.191C92.883 182.191 87.635 158.929 86.979 150.703C86.979 150.703 85.7654 148.846 86.5002 148.125C87.2349 147.403 89.3603 148.007 89.3603 148.007C89.3603 148.007 94.9101 145.743 110.444 142.831C119.237 141.131 128.125 139.959 137.058 139.321C137.058 139.321 139.42 137.622 140.292 137.655C141.165 137.688 140.692 139.787 140.692 139.787C140.692 139.787 144.228 158.103 146.386 171.669C146.38 171.701 148.256 174.607 147.836 175.847Z" fill="url(#paint7_linear_620_1193)"/>
<path opacity="0.2" d="M144.976 169.904C144.976 169.904 146.55 173.768 146.563 174.535C146.577 175.303 143.152 174.024 143.152 174.024C143.276 171.098 143.055 168.167 142.496 165.292C142.496 165.292 143.579 171.059 141.283 173.702C141.283 173.702 141.801 170.816 141.165 169.491C141.165 169.491 136.133 175.92 119.976 178.95C103.819 181.981 97.1536 176.687 97.1536 176.687C97.1688 177.523 97.3768 178.343 97.7614 179.085C98.146 179.827 98.6968 180.47 99.3709 180.964C98.2677 180.226 97.3333 179.263 96.6289 178.138C95.9245 177.013 95.4662 175.752 95.284 174.437C95.1554 176.895 95.6048 179.348 96.596 181.601C96.596 181.601 94.5558 184.979 92.66 185.91C92.3976 184.94 92.9027 182.204 92.9027 182.204C92.9027 182.204 87.6547 158.942 86.9987 150.716C86.9987 150.716 85.7851 148.86 86.5198 148.138C87.2545 147.416 89.38 148.02 89.38 148.02C89.38 148.02 94.9297 145.757 110.464 142.844C119.257 141.144 128.144 139.972 137.078 139.334C137.078 139.334 139.439 137.635 140.312 137.668C140.633 138.324 140.023 140.765 140.023 140.765C140.023 140.765 144.746 168.107 144.976 169.904Z" fill="#F5F5F5"/>
<path d="M103.93 151.805L102.559 150.585C102.306 150.358 102.003 150.195 101.674 150.11C101.345 150.024 101.001 150.018 100.67 150.093L97.5209 150.808C96.9019 150.949 96.3258 151.237 95.8407 151.647C95.3557 152.056 94.9758 152.576 94.7329 153.163L94.4246 153.898C96.5566 156.076 100.466 156.863 100.466 156.863L101.555 157.21C101.777 157.288 102.012 157.32 102.246 157.307C102.481 157.293 102.71 157.232 102.921 157.129C103.132 157.026 103.321 156.882 103.476 156.706C103.631 156.53 103.75 156.324 103.825 156.102L104.547 153.95C104.662 153.571 104.665 153.167 104.555 152.786C104.446 152.406 104.229 152.065 103.93 151.805Z" fill="#ED893E"/>
<path d="M82.7544 133.168C81.6107 137.707 80.9185 142.348 80.688 147.023C80.6393 148.534 80.6765 150.048 80.7995 151.556L80.6618 150.991C80.5896 150.821 80.465 150.749 80.5174 150.808C81.2217 151.25 82.0187 151.524 82.8462 151.608C86.11 152.015 89.4058 152.1 92.6862 151.864C94.3984 151.792 96.1368 151.654 97.8293 151.523C98.2046 151.494 98.5774 151.605 98.8757 151.834C99.1739 152.064 99.3765 152.396 99.4442 152.766C99.5119 153.137 99.4399 153.519 99.2422 153.839C99.0445 154.16 98.7351 154.395 98.3738 154.501C94.9275 155.488 91.4027 156.177 87.8384 156.561C84.952 156.81 81.9934 157.02 79.0283 156.062C77.4474 155.537 75.6696 154.252 75.3154 152.317C74.233 145.343 75.0726 138.298 76.8832 131.528C78.1034 127.697 83.7187 129.278 82.7872 133.188L82.7544 133.168Z" fill="#ED893E"/>
<path d="M83.804 122.232C78.7594 122.77 76.4502 126.503 74.3117 134.919C76.1944 137.688 83.4957 139.577 83.4957 139.577C83.4957 139.577 87.8187 127.087 83.804 122.232Z" fill="url(#paint8_linear_620_1193)"/>
<path opacity="0.6" d="M83.804 122.232C78.7594 122.77 76.4502 126.503 74.3117 134.919C76.1944 137.688 83.4957 139.577 83.4957 139.577C83.4957 139.577 87.8187 127.087 83.804 122.232Z" fill="#F5F5F5"/>
<path d="M258.963 200.697V152.645C258.963 150.736 257.88 149.194 256.542 149.194H178.727C177.415 149.194 176.3 150.736 176.3 152.645V200.697C176.3 202.606 177.389 204.147 178.727 204.147H256.542C257.88 204.147 258.963 202.606 258.963 200.697ZM192.779 196.538C192.779 198.289 191.788 199.713 190.555 199.713H182.683C182.365 199.696 182.055 199.603 181.781 199.441C181.507 199.279 181.276 199.052 181.108 198.781C180.668 198.117 180.439 197.335 180.452 196.538C180.452 194.773 181.45 193.356 182.683 193.356H190.555C190.873 193.372 191.183 193.465 191.457 193.628C191.731 193.79 191.962 194.016 192.129 194.288C192.569 194.954 192.796 195.739 192.779 196.538ZM254.83 196.538C254.83 198.289 253.833 199.713 252.606 199.713H244.688C244.37 199.696 244.06 199.603 243.786 199.441C243.512 199.279 243.281 199.052 243.114 198.781C242.673 198.117 242.444 197.335 242.458 196.538C242.458 194.773 243.455 193.356 244.688 193.356H252.56C252.878 193.372 253.188 193.465 253.462 193.628C253.736 193.79 253.967 194.016 254.134 194.288C254.59 194.949 254.833 195.734 254.83 196.538Z" fill="url(#paint9_linear_620_1193)"/>
<path opacity="0.6" d="M258.963 200.697V152.645C258.963 150.736 257.88 149.194 256.542 149.194H178.727C177.415 149.194 176.3 150.736 176.3 152.645V200.697C176.3 202.606 177.389 204.147 178.727 204.147H256.542C257.88 204.147 258.963 202.606 258.963 200.697ZM192.779 196.538C192.779 198.289 191.788 199.713 190.555 199.713H182.683C182.365 199.696 182.055 199.603 181.781 199.441C181.507 199.279 181.276 199.052 181.108 198.781C180.668 198.117 180.439 197.335 180.452 196.538C180.452 194.773 181.45 193.356 182.683 193.356H190.555C190.873 193.372 191.183 193.465 191.457 193.628C191.731 193.79 191.962 194.016 192.129 194.288C192.569 194.954 192.796 195.739 192.779 196.538ZM254.83 196.538C254.83 198.289 253.833 199.713 252.606 199.713H244.688C244.37 199.696 244.06 199.603 243.786 199.441C243.512 199.279 243.281 199.052 243.114 198.781C242.673 198.117 242.444 197.335 242.458 196.538C242.458 194.773 243.455 193.356 244.688 193.356H252.56C252.878 193.372 253.188 193.465 253.462 193.628C253.736 193.79 253.967 194.016 254.134 194.288C254.59 194.949 254.833 195.734 254.83 196.538Z" fill="#F5F5F5"/>
<path d="M257.664 200.697V152.645C257.664 150.736 256.581 149.194 255.243 149.194H177.428C176.116 149.194 175.001 150.736 175.001 152.645V200.697C175.001 202.606 176.09 204.147 177.428 204.147H255.243C256.581 204.147 257.664 202.606 257.664 200.697ZM191.48 196.538C191.48 198.289 190.489 199.713 189.256 199.713H181.384C181.066 199.696 180.756 199.603 180.482 199.441C180.208 199.279 179.977 199.052 179.81 198.781C179.369 198.117 179.14 197.335 179.154 196.538C179.154 194.773 180.151 193.356 181.384 193.356H189.256C189.574 193.372 189.884 193.465 190.158 193.628C190.432 193.79 190.663 194.016 190.83 194.288C191.27 194.954 191.497 195.739 191.48 196.538ZM253.531 196.538C253.531 198.289 252.534 199.713 251.307 199.713H243.435C243.116 199.697 242.805 199.605 242.529 199.442C242.254 199.28 242.022 199.053 241.854 198.781C241.413 198.117 241.185 197.335 241.198 196.538C241.198 194.773 242.195 193.356 243.428 193.356H251.3C251.619 193.372 251.928 193.465 252.202 193.628C252.477 193.79 252.707 194.016 252.875 194.288C253.317 194.954 253.546 195.738 253.531 196.538Z" fill="url(#paint10_linear_620_1193)"/>
<path opacity="0.7" d="M257.664 200.697V152.645C257.664 150.736 256.581 149.194 255.243 149.194H177.428C176.116 149.194 175.001 150.736 175.001 152.645V200.697C175.001 202.606 176.09 204.147 177.428 204.147H255.243C256.581 204.147 257.664 202.606 257.664 200.697ZM191.48 196.538C191.48 198.289 190.489 199.713 189.256 199.713H181.384C181.066 199.696 180.756 199.603 180.482 199.441C180.208 199.279 179.977 199.052 179.81 198.781C179.369 198.117 179.14 197.335 179.154 196.538C179.154 194.773 180.151 193.356 181.384 193.356H189.256C189.574 193.372 189.884 193.465 190.158 193.628C190.432 193.79 190.663 194.016 190.83 194.288C191.27 194.954 191.497 195.739 191.48 196.538ZM253.531 196.538C253.531 198.289 252.534 199.713 251.307 199.713H243.435C243.116 199.697 242.805 199.605 242.529 199.442C242.254 199.28 242.022 199.053 241.854 198.781C241.413 198.117 241.185 197.335 241.198 196.538C241.198 194.773 242.195 193.356 243.428 193.356H251.3C251.619 193.372 251.928 193.465 252.202 193.628C252.477 193.79 252.707 194.016 252.875 194.288C253.317 194.954 253.546 195.738 253.531 196.538Z" fill="#F5F5F5"/>
<path opacity="0.1" d="M251.596 160.667H181.069C180 160.667 179.134 161.534 179.134 162.603V180.374C179.134 181.442 180 182.309 181.069 182.309H251.596C252.664 182.309 253.531 181.442 253.531 180.374V162.603C253.531 161.534 252.664 160.667 251.596 160.667Z" fill="black"/>
<path d="M257.664 155.78H175.001V156.817H257.664V155.78Z" fill="url(#paint11_linear_620_1193)"/>
<path d="M161.842 264.512L164.676 267.346H166.506L167.313 262.794L161.842 264.512Z" fill="url(#paint12_linear_620_1193)"/>
<path d="M169.576 261.186H167.431C164.938 261.186 162.918 263.705 162.918 266.821C162.918 269.937 164.938 272.456 167.431 272.456H169.576C172.062 272.456 174.083 269.931 174.083 266.821C174.083 263.712 172.062 261.186 169.576 261.186Z" fill="#030311"/>
<path opacity="0.3" d="M169.576 272.456C172.069 272.456 174.089 269.934 174.089 266.821C174.089 263.709 172.069 261.186 169.576 261.186C167.083 261.186 165.063 263.709 165.063 266.821C165.063 269.934 167.083 272.456 169.576 272.456Z" fill="#F5F5F5"/>
<path opacity="0.3" d="M169.576 270.849C171.177 270.849 172.476 269.046 172.476 266.821C172.476 264.597 171.177 262.794 169.576 262.794C167.975 262.794 166.676 264.597 166.676 266.821C166.676 269.046 167.975 270.849 169.576 270.849Z" fill="#F5F5F5"/>
<path d="M170.403 266.29V261.744C170.403 261.31 170.318 260.88 170.151 260.479C169.985 260.078 169.74 259.714 169.432 259.409L166.808 256.785H161.855V264.525H166.132L168.644 267.038C168.748 267.14 168.871 267.219 169.006 267.271C169.142 267.323 169.287 267.347 169.432 267.34C169.697 267.321 169.945 267.202 170.125 267.007C170.306 266.812 170.405 266.556 170.403 266.29Z" fill="url(#paint13_linear_620_1193)"/>
<path opacity="0.3" d="M170.403 261.744V266.29C170.403 266.555 170.301 266.811 170.117 267.003C169.934 267.194 169.684 267.308 169.419 267.32C169.273 267.329 169.128 267.307 168.992 267.255C168.856 267.203 168.733 267.122 168.631 267.018L166.119 264.512H161.842V256.771H166.795L169.419 259.395C169.731 259.702 169.979 260.067 170.148 260.47C170.317 260.874 170.403 261.307 170.403 261.744Z" fill="#F5F5F5"/>
<path opacity="0.2" d="M170.403 261.744V266.29C170.403 266.555 170.301 266.811 170.117 267.003C169.934 267.194 169.684 267.308 169.419 267.32C169.273 267.329 169.128 267.307 168.992 267.255C168.856 267.203 168.733 267.122 168.631 267.018L166.119 264.512V256.771H166.775L169.399 259.395C169.715 259.7 169.966 260.065 170.139 260.468C170.311 260.871 170.401 261.305 170.403 261.744Z" fill="#F5F5F5"/>
<path d="M171.209 248.657H161.802C161.393 248.657 161.061 248.989 161.061 249.398V256.588C161.061 256.997 161.393 257.329 161.802 257.329H171.209C171.619 257.329 171.951 256.997 171.951 256.588V249.398C171.951 248.989 171.619 248.657 171.209 248.657Z" fill="url(#paint14_linear_620_1193)"/>
<path opacity="0.2" d="M171.951 249.398V256.614C171.952 256.712 171.933 256.808 171.896 256.899C171.859 256.989 171.805 257.071 171.736 257.14C171.667 257.209 171.584 257.264 171.494 257.301C171.404 257.338 171.307 257.356 171.209 257.355H161.809C161.711 257.356 161.615 257.338 161.524 257.301C161.434 257.264 161.352 257.209 161.283 257.14C161.214 257.071 161.159 256.989 161.122 256.899C161.085 256.808 161.067 256.712 161.068 256.614V249.398C161.068 249.201 161.146 249.013 161.285 248.874C161.424 248.735 161.612 248.657 161.809 248.657H171.216C171.411 248.658 171.598 248.737 171.736 248.876C171.874 249.015 171.951 249.203 171.951 249.398Z" fill="#F5F5F5"/>
<path opacity="0.2" d="M171.951 249.398V256.614C171.952 256.712 171.933 256.808 171.896 256.899C171.859 256.989 171.805 257.071 171.736 257.14C171.667 257.209 171.584 257.264 171.494 257.301C171.404 257.338 171.307 257.356 171.209 257.355H166.125C165.929 257.355 165.74 257.277 165.601 257.138C165.462 256.999 165.384 256.811 165.384 256.614V249.398C165.386 249.202 165.465 249.014 165.603 248.876C165.742 248.737 165.929 248.658 166.125 248.657H171.216C171.411 248.658 171.598 248.737 171.736 248.876C171.874 249.015 171.951 249.203 171.951 249.398Z" fill="#F5F5F5"/>
<path d="M61.4803 249.392H164.177C164.283 249.392 164.385 249.434 164.46 249.509C164.535 249.584 164.577 249.686 164.577 249.792V255.945C164.577 256.051 164.535 256.153 164.46 256.228C164.385 256.303 164.283 256.345 164.177 256.345H61.4803V249.392Z" fill="url(#paint15_linear_620_1193)"/>
<path opacity="0.3" d="M61.4803 249.392H164.177C164.283 249.392 164.385 249.434 164.46 249.509C164.535 249.584 164.577 249.686 164.577 249.792V255.945C164.577 256.051 164.535 256.153 164.46 256.228C164.385 256.303 164.283 256.345 164.177 256.345H61.4803V249.392Z" fill="#F5F5F5"/>
<path d="M56.8162 264.512L59.6501 267.346H61.4803L62.2872 262.794L56.8162 264.512Z" fill="url(#paint16_linear_620_1193)"/>
<path d="M64.5504 261.186H62.3987C59.9125 261.186 57.892 263.705 57.892 266.821C57.892 269.937 59.9125 272.456 62.3987 272.456H64.5504C67.0366 272.456 69.0571 269.931 69.0571 266.821C69.0571 263.712 67.0366 261.186 64.5504 261.186Z" fill="#030311"/>
<path opacity="0.3" d="M64.5504 272.456C67.043 272.456 69.0637 269.934 69.0637 266.821C69.0637 263.709 67.043 261.186 64.5504 261.186C62.0578 261.186 60.0371 263.709 60.0371 266.821C60.0371 269.934 62.0578 272.456 64.5504 272.456Z" fill="#F5F5F5"/>
<path opacity="0.3" d="M64.5504 270.849C66.1518 270.849 67.4499 269.046 67.4499 266.821C67.4499 264.597 66.1518 262.794 64.5504 262.794C62.949 262.794 61.6509 264.597 61.6509 266.821C61.6509 269.046 62.949 270.849 64.5504 270.849Z" fill="#F5F5F5"/>
<path d="M65.377 266.29V261.744C65.3777 261.31 65.2923 260.88 65.1257 260.479C64.959 260.078 64.7144 259.714 64.4061 259.409L61.7821 256.785H56.8162V264.525H61.0933L63.632 267.025C63.7352 267.127 63.8585 267.206 63.994 267.258C64.1295 267.31 64.2743 267.333 64.4192 267.327C64.6797 267.305 64.9226 267.187 65.1 266.995C65.2773 266.803 65.3762 266.551 65.377 266.29Z" fill="url(#paint17_linear_620_1193)"/>
<path opacity="0.3" d="M65.377 261.744V266.29C65.3772 266.556 65.275 266.811 65.0917 267.003C64.9084 267.195 64.6581 267.308 64.393 267.32C64.2501 267.322 64.1085 267.294 63.9773 267.238C63.8461 267.181 63.7284 267.097 63.632 266.992L61.1195 264.486H56.8162V256.745H61.769L64.393 259.369C64.7084 259.679 64.9582 260.048 65.1273 260.456C65.2964 260.864 65.3813 261.302 65.377 261.744Z" fill="#F5F5F5"/>
<path opacity="0.2" d="M65.377 261.744V266.29C65.3772 266.556 65.275 266.811 65.0917 267.003C64.9084 267.195 64.6581 267.308 64.393 267.32C64.2501 267.322 64.1085 267.294 63.9773 267.238C63.8461 267.181 63.7284 267.097 63.632 266.992L61.1195 264.486V256.745H61.7755L64.3995 259.369C64.7138 259.679 64.9624 260.049 65.1303 260.457C65.2983 260.865 65.3822 261.303 65.377 261.744Z" fill="#F5F5F5"/>
<path d="M66.1838 248.657H56.7768C56.3674 248.657 56.0355 248.989 56.0355 249.398V256.588C56.0355 256.997 56.3674 257.329 56.7768 257.329H66.1838C66.5932 257.329 66.9251 256.997 66.9251 256.588V249.398C66.9251 248.989 66.5932 248.657 66.1838 248.657Z" fill="url(#paint18_linear_620_1193)"/>
<path opacity="0.2" d="M66.912 249.398V256.614C66.9129 256.712 66.8943 256.808 66.8574 256.899C66.8204 256.989 66.7658 257.071 66.6968 257.14C66.6278 257.209 66.5458 257.264 66.4554 257.301C66.3651 257.338 66.2683 257.356 66.1707 257.355H56.7834C56.6858 257.356 56.589 257.338 56.4987 257.301C56.4083 257.264 56.3263 257.209 56.2572 257.14C56.1882 257.071 56.1337 256.989 56.0967 256.899C56.0598 256.808 56.0412 256.712 56.0421 256.614V249.398C56.0421 249.201 56.1202 249.013 56.2592 248.874C56.3982 248.735 56.5868 248.657 56.7834 248.657H66.1838C66.3782 248.66 66.5634 248.74 66.6995 248.878C66.8357 249.017 66.912 249.204 66.912 249.398Z" fill="#F5F5F5"/>
<path opacity="0.2" d="M66.912 249.398V256.614C66.9129 256.712 66.8943 256.809 66.8574 256.899C66.8204 256.989 66.7658 257.071 66.6968 257.14C66.6278 257.209 66.5458 257.264 66.4554 257.301C66.3651 257.338 66.2683 257.356 66.1707 257.355H61.0998C60.9997 257.356 60.9004 257.337 60.8079 257.299C60.7155 257.26 60.6318 257.203 60.5619 257.131C60.492 257.06 60.4374 256.975 60.4013 256.881C60.3652 256.788 60.3484 256.688 60.352 256.588V249.372C60.3537 249.176 60.4324 248.988 60.571 248.85C60.7097 248.711 60.8972 248.632 61.0933 248.631H66.1773C66.2763 248.631 66.3742 248.652 66.4651 248.691C66.556 248.731 66.6382 248.788 66.7067 248.859C66.7752 248.931 66.8286 249.015 66.8639 249.108C66.8991 249.2 66.9155 249.299 66.912 249.398Z" fill="#F5F5F5"/>
<path d="M241.185 241.847C240.944 241.846 240.705 241.797 240.483 241.703L200.237 224.201L159.998 241.703C159.73 241.82 159.436 241.867 159.145 241.842C158.853 241.817 158.572 241.72 158.328 241.559C158.083 241.398 157.882 241.179 157.743 240.921C157.604 240.664 157.532 240.376 157.532 240.083V204.501C157.526 204.369 157.537 204.237 157.565 204.108C157.609 203.903 157.689 203.708 157.801 203.531C157.934 203.315 158.113 203.131 158.326 202.993C158.541 202.85 158.785 202.756 159.041 202.717C159.139 202.711 159.238 202.711 159.336 202.717H241.146C241.244 202.711 241.343 202.711 241.441 202.717C241.692 202.754 241.931 202.846 242.143 202.986C242.363 203.125 242.547 203.314 242.681 203.537C242.794 203.71 242.872 203.904 242.91 204.108C242.94 204.237 242.953 204.369 242.95 204.501V240.096C242.948 240.563 242.761 241.011 242.431 241.342C242.1 241.672 241.652 241.859 241.185 241.861V241.847ZM204.672 222.272L239.44 237.393V207.158L204.672 222.272ZM161.068 207.184V237.419L195.836 222.299L161.068 207.184ZM167.785 206.259L200.244 220.377L232.709 206.259H167.785Z" fill="#030311"/>
<g opacity="0.3">
<path d="M241.185 241.847C240.944 241.846 240.705 241.797 240.483 241.703L200.237 224.201L159.998 241.703C159.73 241.82 159.436 241.867 159.145 241.842C158.853 241.817 158.572 241.72 158.328 241.559C158.083 241.398 157.882 241.179 157.743 240.921C157.604 240.664 157.532 240.376 157.532 240.083V204.501C157.526 204.369 157.537 204.237 157.565 204.108C157.609 203.903 157.689 203.708 157.801 203.531C157.934 203.315 158.113 203.131 158.326 202.993C158.541 202.85 158.785 202.756 159.041 202.717C159.139 202.711 159.238 202.711 159.336 202.717H241.146C241.244 202.711 241.343 202.711 241.441 202.717C241.692 202.754 241.931 202.846 242.143 202.986C242.363 203.125 242.547 203.314 242.681 203.537C242.794 203.71 242.872 203.904 242.91 204.108C242.94 204.237 242.953 204.369 242.95 204.501V240.096C242.948 240.563 242.761 241.011 242.431 241.342C242.1 241.672 241.652 241.859 241.185 241.861V241.847ZM204.672 222.272L239.44 237.393V207.158L204.672 222.272ZM161.068 207.184V237.419L195.836 222.299L161.068 207.184ZM167.785 206.259L200.244 220.377L232.709 206.259H167.785Z" fill="#F5F5F5"/>
</g>
<path d="M141.775 250.002C141.382 250.003 141.001 249.873 140.69 249.633C140.379 249.394 140.158 249.057 140.06 248.677C139.962 248.297 139.994 247.895 140.15 247.535C140.306 247.175 140.578 246.877 140.922 246.689L183.837 223.073C184.098 222.928 184.392 222.851 184.69 222.85H220.849L249.608 183.818C249.89 183.455 250.303 183.216 250.759 183.153C251.215 183.09 251.677 183.207 252.048 183.48C252.418 183.753 252.667 184.16 252.742 184.614C252.817 185.068 252.712 185.533 252.448 185.91L223.158 225.664C222.993 225.886 222.779 226.067 222.532 226.191C222.284 226.316 222.011 226.38 221.735 226.379H185.143L142.621 249.792C142.362 249.933 142.07 250.006 141.775 250.002Z" fill="#030311"/>
<g opacity="0.6">
<path d="M141.775 250.002C141.382 250.003 141.001 249.873 140.69 249.633C140.379 249.394 140.158 249.057 140.06 248.677C139.962 248.297 139.994 247.895 140.15 247.535C140.306 247.175 140.578 246.877 140.922 246.689L183.837 223.073C184.098 222.928 184.392 222.851 184.69 222.85H220.849L249.608 183.818C249.89 183.455 250.303 183.216 250.759 183.153C251.215 183.09 251.677 183.207 252.048 183.48C252.418 183.753 252.667 184.16 252.742 184.614C252.817 185.068 252.712 185.533 252.448 185.91L223.158 225.664C222.993 225.886 222.779 226.067 222.532 226.191C222.284 226.316 222.011 226.38 221.735 226.379H185.143L142.621 249.792C142.362 249.933 142.07 250.006 141.775 250.002Z" fill="#F5F5F5"/>
</g>
<path d="M141.794 254.849C141.311 254.849 140.846 254.66 140.5 254.322C140.154 253.983 139.955 253.523 139.944 253.039L139.63 240.129C139.623 239.882 139.667 239.636 139.757 239.407C139.847 239.177 139.983 238.968 140.155 238.791C140.327 238.614 140.533 238.474 140.761 238.378C140.988 238.282 141.233 238.233 141.48 238.233H241.192C241.511 238.232 241.826 238.315 242.104 238.472C242.383 238.63 242.615 238.857 242.779 239.132L249.936 251.123C250.06 251.332 250.143 251.564 250.178 251.804C250.213 252.045 250.2 252.29 250.14 252.526C250.081 252.762 249.975 252.983 249.83 253.178C249.684 253.373 249.502 253.538 249.293 253.662C249.084 253.787 248.853 253.869 248.612 253.904C248.372 253.939 248.126 253.926 247.891 253.866C247.655 253.807 247.433 253.701 247.238 253.556C247.043 253.41 246.879 253.228 246.754 253.019L240.148 241.933H143.375L143.651 252.947C143.661 253.438 143.477 253.914 143.137 254.269C142.798 254.624 142.332 254.831 141.84 254.843L141.794 254.849Z" fill="#030311"/>
<g opacity="0.5">
<path d="M141.794 254.849C141.311 254.849 140.846 254.66 140.5 254.322C140.154 253.983 139.955 253.523 139.944 253.039L139.63 240.129C139.623 239.882 139.667 239.636 139.757 239.407C139.847 239.177 139.983 238.968 140.155 238.791C140.327 238.614 140.533 238.474 140.761 238.378C140.988 238.282 141.233 238.233 141.48 238.233H241.192C241.511 238.232 241.826 238.315 242.104 238.472C242.383 238.63 242.615 238.857 242.779 239.132L249.936 251.123C250.06 251.332 250.143 251.564 250.178 251.804C250.213 252.045 250.2 252.29 250.14 252.526C250.081 252.762 249.975 252.983 249.83 253.178C249.684 253.373 249.502 253.538 249.293 253.662C249.084 253.787 248.853 253.869 248.612 253.904C248.372 253.939 248.126 253.926 247.891 253.866C247.655 253.807 247.433 253.701 247.238 253.556C247.043 253.41 246.879 253.228 246.754 253.019L240.148 241.933H143.375L143.651 252.947C143.661 253.438 143.477 253.914 143.137 254.269C142.798 254.624 142.332 254.831 141.84 254.843L141.794 254.849Z" fill="#F5F5F5"/>
</g>
<path d="M252.77 162.8C252.617 162.291 252.304 161.846 251.877 161.53C251.45 161.215 250.933 161.045 250.402 161.048H178.767C178.386 161.049 178.011 161.137 177.67 161.305C177.329 161.474 177.031 161.718 176.799 162.019L141.086 209.015C140.856 209.319 140.558 209.565 140.217 209.735C139.875 209.904 139.499 209.993 139.118 209.992H105.085C104.664 209.994 104.251 210.102 103.884 210.307L68.0994 230.256C67.6657 230.486 67.3127 230.843 67.0875 231.279C66.8624 231.715 66.776 232.21 66.8399 232.696C66.9842 233.844 67.9157 243.055 68.1125 244.026C68.2192 244.586 68.5206 245.091 68.9635 245.452C69.4064 245.812 69.9624 246.004 70.5331 245.994H138.206C138.628 245.995 139.043 245.889 139.413 245.685L182.965 221.446C183.332 221.241 183.745 221.133 184.165 221.131H218.199C218.579 221.13 218.954 221.042 219.295 220.874C219.636 220.706 219.935 220.462 220.167 220.16L253.623 176.156C254.007 175.658 254.186 175.03 254.121 174.404C254.082 174.247 252.986 163.515 252.77 162.8Z" fill="url(#paint19_linear_620_1193)"/>
<path opacity="0.5" d="M252.77 162.8C252.617 162.291 252.304 161.846 251.877 161.53C251.45 161.215 250.933 161.045 250.402 161.048H178.767C178.386 161.049 178.011 161.137 177.67 161.305C177.329 161.474 177.031 161.718 176.799 162.019L141.086 209.015C140.856 209.319 140.558 209.565 140.217 209.735C139.875 209.904 139.499 209.993 139.118 209.992H105.085C104.664 209.994 104.251 210.102 103.884 210.307L68.0994 230.256C67.6657 230.486 67.3127 230.843 67.0875 231.279C66.8624 231.715 66.776 232.21 66.8399 232.696C66.9842 233.844 67.9157 243.055 68.1125 244.026C68.2192 244.586 68.5206 245.091 68.9635 245.452C69.4064 245.812 69.9624 246.004 70.5331 245.994H138.206C138.628 245.995 139.043 245.889 139.413 245.685L182.965 221.446C183.332 221.241 183.745 221.133 184.165 221.131H218.199C218.579 221.13 218.954 221.042 219.295 220.874C219.636 220.706 219.935 220.462 220.167 220.16L253.623 176.156C254.007 175.658 254.186 175.03 254.121 174.404C254.082 174.247 252.986 163.515 252.77 162.8Z" fill="#F5F5F5"/>
<g opacity="0.7">
<path d="M137.576 243.934C136.893 243.933 136.228 243.707 135.687 243.289C135.146 242.871 134.759 242.285 134.587 241.623C134.414 240.962 134.466 240.262 134.734 239.633C135.002 239.004 135.471 238.482 136.068 238.148L176.516 215.64C177.232 215.242 178.076 215.144 178.863 215.368C179.65 215.592 180.316 216.119 180.715 216.834C181.113 217.549 181.211 218.393 180.987 219.181C180.764 219.968 180.236 220.634 179.521 221.033L139.072 243.547C138.614 243.8 138.1 243.934 137.576 243.934Z" fill="#F5F5F5"/>
</g>
<g opacity="0.7">
<path d="M212.019 219.262H186.015C185.196 219.262 184.41 218.936 183.831 218.357C183.251 217.777 182.926 216.991 182.926 216.172C182.926 215.352 183.251 214.566 183.831 213.987C184.41 213.408 185.196 213.082 186.015 213.082H212.019C212.839 213.082 213.625 213.408 214.204 213.987C214.783 214.566 215.109 215.352 215.109 216.172C215.109 216.991 214.783 217.777 214.204 218.357C213.625 218.936 212.839 219.262 212.019 219.262Z" fill="#F5F5F5"/>
</g>
<g opacity="0.7">
<path d="M219.57 216.657C218.995 216.656 218.433 216.495 217.945 216.192C217.457 215.889 217.063 215.456 216.807 214.942C216.552 214.427 216.445 213.852 216.498 213.28C216.552 212.708 216.763 212.162 217.11 211.704L247.437 171.793C247.682 171.47 247.989 171.199 248.339 170.994C248.69 170.79 249.077 170.656 249.479 170.601C249.881 170.547 250.29 170.571 250.682 170.675C251.075 170.778 251.443 170.957 251.766 171.203C252.089 171.448 252.361 171.755 252.565 172.106C252.77 172.456 252.903 172.843 252.958 173.245C253.013 173.647 252.988 174.056 252.885 174.449C252.782 174.841 252.602 175.209 252.357 175.532L222.03 215.437C221.742 215.817 221.37 216.124 220.943 216.336C220.516 216.548 220.046 216.658 219.57 216.657Z" fill="#F5F5F5"/>
</g>
<path d="M249.68 152.297C249.527 151.789 249.214 151.343 248.787 151.028C248.36 150.712 247.843 150.543 247.312 150.545H175.677C175.296 150.546 174.921 150.634 174.58 150.803C174.239 150.971 173.941 151.215 173.709 151.516L137.996 198.512C137.766 198.816 137.468 199.063 137.127 199.232C136.786 199.402 136.409 199.49 136.028 199.49H101.995C101.575 199.491 101.162 199.6 100.794 199.804L65.0096 219.721C64.5753 219.949 64.2219 220.306 63.9977 220.743C63.7735 221.18 63.6894 221.675 63.7567 222.161C63.8944 223.309 64.8259 232.519 65.0227 233.49C65.1308 234.051 65.4335 234.557 65.8775 234.917C66.3215 235.277 66.8784 235.468 67.4499 235.458H135.136C135.556 235.459 135.969 235.352 136.336 235.15L179.888 210.878C180.255 210.673 180.668 210.565 181.089 210.563H215.122C215.503 210.563 215.878 210.475 216.219 210.307C216.561 210.139 216.859 209.894 217.09 209.592L250.546 165.588C250.931 165.089 251.109 164.462 251.045 163.836C250.992 163.744 249.897 153.012 249.68 152.297Z" fill="#030311"/>
<path opacity="0.2" d="M249.68 152.297C249.527 151.789 249.214 151.343 248.787 151.028C248.36 150.712 247.843 150.543 247.312 150.545H175.677C175.296 150.546 174.921 150.634 174.58 150.803C174.239 150.971 173.941 151.215 173.709 151.516L137.996 198.512C137.766 198.816 137.468 199.063 137.127 199.232C136.786 199.402 136.409 199.49 136.028 199.49H101.995C101.575 199.491 101.162 199.6 100.794 199.804L65.0096 219.721C64.5753 219.949 64.2219 220.306 63.9977 220.743C63.7735 221.18 63.6894 221.675 63.7567 222.161C63.8944 223.309 64.8259 232.519 65.0227 233.49C65.1308 234.051 65.4335 234.557 65.8775 234.917C66.3215 235.277 66.8784 235.468 67.4499 235.458H135.136C135.556 235.459 135.969 235.352 136.336 235.15L179.888 210.878C180.255 210.673 180.668 210.565 181.089 210.563H215.122C215.503 210.563 215.878 210.475 216.219 210.307C216.561 210.139 216.859 209.894 217.09 209.592L250.546 165.588C250.931 165.089 251.109 164.462 251.045 163.836C250.992 163.744 249.897 153.012 249.68 152.297Z" fill="#F5F5F5"/>
<path opacity="0.2" d="M249.28 154.514L215.824 198.512C215.594 198.816 215.296 199.063 214.955 199.232C214.613 199.402 214.237 199.49 213.856 199.49H179.842C179.42 199.491 179.005 199.6 178.635 199.805L135.084 224.037C134.718 224.245 134.304 224.354 133.883 224.352H66.2101C65.6634 224.35 65.1327 224.168 64.7008 223.833C64.269 223.497 63.9604 223.029 63.8232 222.499C63.686 221.97 63.7281 221.411 63.9427 220.908C64.1574 220.405 64.5325 219.988 65.0096 219.721L100.794 199.805C101.162 199.6 101.575 199.491 101.995 199.49H136.028C136.409 199.49 136.786 199.402 137.127 199.232C137.468 199.063 137.766 198.816 137.996 198.512L173.709 151.536C173.941 151.235 174.239 150.991 174.58 150.822C174.921 150.654 175.296 150.566 175.677 150.565H247.312C247.769 150.568 248.216 150.698 248.604 150.94C248.992 151.181 249.305 151.526 249.509 151.935C249.713 152.344 249.8 152.802 249.759 153.257C249.719 153.712 249.553 154.148 249.28 154.514Z" fill="#F5F5F5"/>
<path d="M209.585 209.861C209.593 210.038 209.565 210.215 209.503 210.381C209.441 210.547 209.345 210.699 209.223 210.827C209.1 210.955 208.953 211.057 208.79 211.127C208.626 211.196 208.451 211.232 208.273 211.232H181.056C180.739 211.231 180.427 211.312 180.151 211.468L136.625 235.701C136.162 235.953 135.644 236.086 135.116 236.088H67.4434C66.7276 236.098 66.0313 235.855 65.4778 235.401C64.9243 234.947 64.5493 234.312 64.4192 233.608C64.288 232.952 63.8878 229.246 63.4549 225.165C63.3762 224.411 63.3106 223.748 63.2515 223.197C63.1925 222.646 63.1662 222.384 63.14 222.213C63.0617 221.604 63.1696 220.986 63.4494 220.439C63.7292 219.892 64.1679 219.443 64.7078 219.15L100.493 199.24C100.954 198.983 101.473 198.847 102.001 198.847H207.795C208.131 198.846 208.456 198.975 208.7 199.207C208.944 199.44 209.09 199.757 209.107 200.093L209.585 209.861Z" fill="url(#paint20_linear_620_1193)"/>
<g opacity="0.2">
<path d="M178.603 198.873C178.289 198.877 177.981 198.956 177.704 199.103L134.152 223.342C133.693 223.599 133.176 223.734 132.65 223.735H64.9768C64.3631 223.744 63.7612 223.566 63.2515 223.224C63.199 222.751 63.1662 222.41 63.14 222.24C63.0617 221.631 63.1696 221.012 63.4494 220.465C63.7292 219.918 64.1679 219.469 64.7078 219.176L100.493 199.267C100.954 199.009 101.473 198.873 102.001 198.873H178.603Z" fill="#F5F5F5"/>
</g>
<path d="M128.576 195.75H50.7744C49.4624 195.75 48.3538 197.292 48.3538 199.201V247.253C48.3538 249.162 49.4427 250.704 50.7744 250.704H128.576C129.888 250.704 130.997 249.162 130.997 247.253V199.201C131.016 197.292 129.927 195.75 128.576 195.75ZM64.1634 205.59C63.996 205.862 63.7652 206.088 63.491 206.25C63.2167 206.413 62.9072 206.506 62.589 206.522H54.717C53.4837 206.522 52.4866 205.105 52.4866 203.34C52.473 202.543 52.7018 201.761 53.1426 201.097C53.31 200.826 53.5407 200.599 53.8149 200.437C54.0892 200.275 54.3987 200.182 54.717 200.165H62.589C63.8222 200.165 64.8128 201.589 64.8128 203.34C64.8395 204.144 64.6197 204.936 64.183 205.61L64.1634 205.59ZM126.214 205.59C126.047 205.862 125.816 206.088 125.542 206.25C125.268 206.413 124.958 206.506 124.64 206.522H116.768C115.541 206.522 114.544 205.105 114.544 203.34C114.531 202.543 114.759 201.761 115.2 201.097C115.368 200.826 115.598 200.599 115.873 200.437C116.147 200.275 116.456 200.182 116.775 200.165H124.647C125.873 200.165 126.87 201.589 126.87 203.34C126.892 204.144 126.67 204.935 126.234 205.61L126.214 205.59Z" fill="url(#paint21_linear_620_1193)"/>
<path opacity="0.6" d="M128.576 195.75H50.7744C49.4624 195.75 48.3538 197.292 48.3538 199.201V247.253C48.3538 249.162 49.4427 250.704 50.7744 250.704H128.576C129.888 250.704 130.997 249.162 130.997 247.253V199.201C131.016 197.292 129.927 195.75 128.576 195.75ZM64.1634 205.59C63.996 205.862 63.7652 206.088 63.491 206.25C63.2167 206.413 62.9072 206.506 62.589 206.522H54.717C53.4837 206.522 52.4866 205.105 52.4866 203.34C52.473 202.543 52.7018 201.761 53.1426 201.097C53.31 200.826 53.5407 200.599 53.8149 200.437C54.0892 200.275 54.3987 200.182 54.717 200.165H62.589C63.8222 200.165 64.8128 201.589 64.8128 203.34C64.8395 204.144 64.6197 204.936 64.183 205.61L64.1634 205.59ZM126.214 205.59C126.047 205.862 125.816 206.088 125.542 206.25C125.268 206.413 124.958 206.506 124.64 206.522H116.768C115.541 206.522 114.544 205.105 114.544 203.34C114.531 202.543 114.759 201.761 115.2 201.097C115.368 200.826 115.598 200.599 115.873 200.437C116.147 200.275 116.456 200.182 116.775 200.165H124.647C125.873 200.165 126.87 201.589 126.87 203.34C126.892 204.144 126.67 204.935 126.234 205.61L126.214 205.59Z" fill="#F5F5F5"/>
<path d="M127.297 195.75H49.4755C48.1635 195.75 47.0549 197.292 47.0549 199.201V247.253C47.0549 249.162 48.1438 250.704 49.4755 250.704H127.297C128.609 250.704 129.717 249.162 129.717 247.253V199.201C129.717 197.292 128.628 195.75 127.297 195.75ZM62.8842 205.59C62.7161 205.863 62.4844 206.089 62.2089 206.252C61.9334 206.414 61.6226 206.507 61.3032 206.522H53.4312C52.1979 206.522 51.2008 205.105 51.2008 203.34C51.1872 202.543 51.416 201.761 51.8568 201.097C52.0242 200.826 52.255 200.599 52.5292 200.437C52.8034 200.275 53.113 200.182 53.4312 200.165H61.3032C62.5365 200.165 63.5336 201.589 63.5336 203.34C63.5545 204.146 63.3278 204.938 62.8842 205.61V205.59ZM124.935 205.59C124.768 205.862 124.537 206.088 124.263 206.25C123.989 206.413 123.679 206.506 123.361 206.522H115.456C114.229 206.522 113.232 205.105 113.232 203.34C113.219 202.543 113.447 201.761 113.888 201.097C114.056 200.826 114.286 200.599 114.561 200.437C114.835 200.275 115.144 200.182 115.463 200.165H123.335C124.561 200.165 125.558 201.589 125.558 203.34C125.584 204.143 125.367 204.934 124.935 205.61V205.59Z" fill="url(#paint22_linear_620_1193)"/>
<path opacity="0.7" d="M127.297 195.75H49.4755C48.1635 195.75 47.0549 197.292 47.0549 199.201V247.253C47.0549 249.162 48.1438 250.704 49.4755 250.704H127.297C128.609 250.704 129.717 249.162 129.717 247.253V199.201C129.717 197.292 128.628 195.75 127.297 195.75ZM62.8842 205.59C62.7161 205.863 62.4844 206.089 62.2089 206.252C61.9334 206.414 61.6226 206.507 61.3032 206.522H53.4312C52.1979 206.522 51.2008 205.105 51.2008 203.34C51.1872 202.543 51.416 201.761 51.8568 201.097C52.0242 200.826 52.255 200.599 52.5292 200.437C52.8034 200.275 53.113 200.182 53.4312 200.165H61.3032C62.5365 200.165 63.5336 201.589 63.5336 203.34C63.5545 204.146 63.3278 204.938 62.8842 205.61V205.59ZM124.935 205.59C124.768 205.862 124.537 206.088 124.263 206.25C123.989 206.413 123.679 206.506 123.361 206.522H115.456C114.229 206.522 113.232 205.105 113.232 203.34C113.219 202.543 113.447 201.761 113.888 201.097C114.056 200.826 114.286 200.599 114.561 200.437C114.835 200.275 115.144 200.182 115.463 200.165H123.335C124.561 200.165 125.558 201.589 125.558 203.34C125.584 204.143 125.367 204.934 124.935 205.61V205.59Z" fill="#F5F5F5"/>
<path opacity="0.1" d="M123.649 217.589H53.1229C52.0541 217.589 51.1877 218.455 51.1877 219.524V237.295C51.1877 238.364 52.0541 239.23 53.1229 239.23H123.649C124.718 239.23 125.585 238.364 125.585 237.295V219.524C125.585 218.455 124.718 217.589 123.649 217.589Z" fill="black"/>
<path d="M129.717 243.087H47.0549V244.124H129.717V243.087Z" fill="url(#paint23_linear_620_1193)"/>
<path d="M73.2883 194.425V220.318H99.056V194.425H73.2883ZM90.0295 200.802H82.3411V195.757H90.0295V200.802Z" fill="url(#paint24_linear_620_1193)"/>
<path d="M78.9299 205.741H73.5376V219.294H78.9299V205.741Z" fill="url(#paint25_linear_620_1193)"/>
<path opacity="0.2" d="M78.9299 205.741H73.5376V219.294H78.9299V205.741Z" fill="black"/>
<path d="M98.8461 205.741H93.4538V219.294H98.8461V205.741Z" fill="url(#paint26_linear_620_1193)"/>
<path opacity="0.2" d="M98.8461 205.741H93.4538V219.294H98.8461V205.741Z" fill="black"/>
<path d="M77.6311 205.741H72.2387V219.294H77.6311V205.741Z" fill="url(#paint27_linear_620_1193)"/>
<path opacity="0.2" d="M77.6311 205.741H72.2387V219.294H77.6311V205.741Z" fill="#F5F5F5"/>
<path d="M97.5472 205.741H92.1549V219.294H97.5472V205.741Z" fill="url(#paint28_linear_620_1193)"/>
<path opacity="0.2" d="M97.5472 205.741H92.1549V219.294H97.5472V205.741Z" fill="#F5F5F5"/>
<path d="M101.26 194.425H97.7768V195.75H101.26V194.425Z" fill="url(#paint29_linear_620_1193)"/>
<path d="M242.156 264.512L244.99 267.346H246.82L247.627 262.794L242.156 264.512Z" fill="url(#paint30_linear_620_1193)"/>
<path d="M249.89 261.186H247.738C245.252 261.186 243.232 263.705 243.232 266.821C243.232 269.937 245.252 272.456 247.738 272.456H249.89C252.376 272.456 254.397 269.931 254.397 266.821C254.397 263.712 252.376 261.186 249.89 261.186Z" fill="#030311"/>
<path opacity="0.3" d="M249.89 272.456C252.383 272.456 254.403 269.934 254.403 266.821C254.403 263.709 252.383 261.186 249.89 261.186C247.397 261.186 245.377 263.709 245.377 266.821C245.377 269.934 247.397 272.456 249.89 272.456Z" fill="#F5F5F5"/>
<path opacity="0.3" d="M249.89 270.849C251.491 270.849 252.79 269.046 252.79 266.821C252.79 264.597 251.491 262.794 249.89 262.794C248.289 262.794 246.991 264.597 246.991 266.821C246.991 269.046 248.289 270.849 249.89 270.849Z" fill="#F5F5F5"/>
<path d="M250.717 266.29V261.744C250.717 261.31 250.632 260.88 250.465 260.479C250.299 260.078 250.054 259.714 249.746 259.409L247.122 256.785H242.169V264.525H246.446L248.959 267.038C249.062 267.14 249.185 267.219 249.321 267.271C249.456 267.323 249.601 267.347 249.746 267.34C250.011 267.321 250.259 267.202 250.439 267.007C250.62 266.812 250.719 266.556 250.717 266.29Z" fill="url(#paint31_linear_620_1193)"/>
<path opacity="0.7" d="M250.717 261.744V266.29C250.717 266.555 250.615 266.811 250.431 267.003C250.248 267.194 249.998 267.308 249.733 267.32C249.587 267.329 249.442 267.307 249.306 267.255C249.17 267.203 249.047 267.122 248.945 267.018L246.433 264.512H242.156V256.771H247.109L249.733 259.395C250.045 259.702 250.293 260.067 250.462 260.47C250.631 260.874 250.717 261.307 250.717 261.744Z" fill="#F5F5F5"/>
<path opacity="0.2" d="M250.717 261.744V266.29C250.717 266.555 250.615 266.811 250.431 267.003C250.248 267.194 249.998 267.308 249.733 267.32C249.587 267.329 249.442 267.307 249.306 267.255C249.17 267.203 249.047 267.122 248.945 267.018L246.433 264.512V256.771H247.089L249.713 259.395C250.029 259.7 250.28 260.065 250.453 260.468C250.625 260.871 250.715 261.305 250.717 261.744Z" fill="#F5F5F5"/>
<path d="M251.524 248.657H242.116C241.707 248.657 241.375 248.989 241.375 249.398V256.588C241.375 256.997 241.707 257.329 242.116 257.329H251.524C251.933 257.329 252.265 256.997 252.265 256.588V249.398C252.265 248.989 251.933 248.657 251.524 248.657Z" fill="url(#paint32_linear_620_1193)"/>
<path opacity="0.5" d="M252.265 249.398V256.614C252.266 256.712 252.247 256.808 252.21 256.899C252.173 256.989 252.119 257.071 252.05 257.14C251.981 257.209 251.899 257.264 251.808 257.301C251.718 257.338 251.621 257.356 251.524 257.355H242.123C242.025 257.356 241.929 257.338 241.838 257.301C241.748 257.264 241.666 257.209 241.597 257.14C241.528 257.071 241.473 256.989 241.436 256.899C241.399 256.808 241.381 256.712 241.382 256.614V249.398C241.382 249.201 241.46 249.013 241.599 248.874C241.738 248.735 241.926 248.657 242.123 248.657H251.524C251.72 248.657 251.909 248.735 252.048 248.874C252.187 249.013 252.265 249.201 252.265 249.398Z" fill="#F5F5F5"/>
<path opacity="0.2" d="M252.265 249.398V256.614C252.266 256.712 252.247 256.808 252.21 256.899C252.173 256.989 252.119 257.071 252.05 257.14C251.981 257.209 251.899 257.264 251.808 257.301C251.718 257.338 251.621 257.356 251.524 257.355H246.44C246.243 257.355 246.054 257.277 245.915 257.138C245.776 256.999 245.698 256.811 245.698 256.614V249.398C245.7 249.202 245.779 249.014 245.917 248.876C246.056 248.737 246.243 248.658 246.44 248.657H251.524C251.72 248.657 251.909 248.735 252.048 248.874C252.187 249.013 252.265 249.201 252.265 249.398Z" fill="#F5F5F5"/>
<path d="M141.794 249.392H244.491C244.597 249.392 244.699 249.434 244.774 249.509C244.849 249.584 244.891 249.686 244.891 249.792V255.945C244.891 256.051 244.849 256.153 244.774 256.228C244.699 256.303 244.597 256.345 244.491 256.345H141.794V249.392Z" fill="url(#paint33_linear_620_1193)"/>
<path opacity="0.7" d="M141.794 249.392H244.491C244.597 249.392 244.699 249.434 244.774 249.509C244.849 249.584 244.891 249.686 244.891 249.792V255.945C244.891 256.051 244.849 256.153 244.774 256.228C244.699 256.303 244.597 256.345 244.491 256.345H141.794V249.392Z" fill="#F5F5F5"/>
<path d="M137.13 264.512L139.964 267.346H141.794L142.601 262.794L137.13 264.512Z" fill="url(#paint34_linear_620_1193)"/>
<path d="M144.864 261.186H142.713C140.227 261.186 138.206 263.705 138.206 266.821C138.206 269.937 140.227 272.456 142.713 272.456H144.864C147.351 272.456 149.371 269.931 149.371 266.821C149.371 263.712 147.351 261.186 144.864 261.186Z" fill="#030311"/>
<path opacity="0.3" d="M144.864 272.456C147.357 272.456 149.378 269.934 149.378 266.821C149.378 263.709 147.357 261.186 144.864 261.186C142.372 261.186 140.351 263.709 140.351 266.821C140.351 269.934 142.372 272.456 144.864 272.456Z" fill="#F5F5F5"/>
<path opacity="0.3" d="M144.864 270.849C146.466 270.849 147.764 269.046 147.764 266.821C147.764 264.597 146.466 262.794 144.864 262.794C143.263 262.794 141.965 264.597 141.965 266.821C141.965 269.046 143.263 270.849 144.864 270.849Z" fill="#F5F5F5"/>
<path d="M145.691 266.29V261.744C145.692 261.31 145.606 260.88 145.44 260.479C145.273 260.078 145.028 259.714 144.72 259.409L142.096 256.785H137.104V264.525H141.381L143.894 267.038C143.997 267.14 144.12 267.219 144.256 267.271C144.391 267.323 144.536 267.347 144.681 267.34C144.953 267.331 145.211 267.217 145.4 267.02C145.588 266.824 145.693 266.562 145.691 266.29Z" fill="url(#paint35_linear_620_1193)"/>
<path opacity="0.7" d="M145.691 261.744V266.29C145.691 266.555 145.589 266.811 145.406 267.003C145.222 267.194 144.972 267.308 144.707 267.32C144.562 267.329 144.416 267.307 144.28 267.255C144.145 267.203 144.022 267.122 143.92 267.018L141.407 264.512H137.104V256.771H142.057L144.681 259.395C144.998 259.699 145.251 260.064 145.424 260.467C145.598 260.871 145.688 261.305 145.691 261.744Z" fill="#F5F5F5"/>
<path opacity="0.2" d="M145.691 261.744V266.29C145.691 266.555 145.589 266.811 145.406 267.003C145.222 267.194 144.972 267.308 144.707 267.32C144.562 267.329 144.416 267.307 144.28 267.255C144.145 267.203 144.022 267.122 143.92 267.018L141.407 264.512V256.771H142.063L144.687 259.395C145.003 259.7 145.255 260.065 145.427 260.468C145.6 260.871 145.689 261.305 145.691 261.744Z" fill="#F5F5F5"/>
<path d="M146.498 248.657H137.091C136.681 248.657 136.35 248.989 136.35 249.398V256.588C136.35 256.997 136.681 257.329 137.091 257.329H146.498C146.907 257.329 147.239 256.997 147.239 256.588V249.398C147.239 248.989 146.907 248.657 146.498 248.657Z" fill="url(#paint36_linear_620_1193)"/>
<path opacity="0.5" d="M147.239 249.398V256.614C147.24 256.712 147.222 256.808 147.185 256.899C147.148 256.989 147.093 257.071 147.024 257.14C146.955 257.209 146.873 257.264 146.783 257.301C146.692 257.338 146.596 257.356 146.498 257.355H137.104C137.006 257.356 136.91 257.338 136.819 257.301C136.729 257.264 136.647 257.209 136.578 257.14C136.509 257.071 136.454 256.989 136.417 256.899C136.38 256.808 136.362 256.712 136.363 256.614V249.398C136.363 249.201 136.441 249.013 136.58 248.874C136.719 248.735 136.907 248.657 137.104 248.657H146.504C146.7 248.658 146.887 248.737 147.024 248.876C147.162 249.015 147.239 249.203 147.239 249.398Z" fill="#F5F5F5"/>
<path opacity="0.2" d="M147.239 249.398V256.614C147.24 256.712 147.221 256.808 147.185 256.899C147.148 256.989 147.093 257.071 147.024 257.14C146.955 257.209 146.873 257.264 146.783 257.301C146.692 257.338 146.596 257.356 146.498 257.355H141.414C141.217 257.355 141.029 257.277 140.89 257.138C140.751 256.999 140.673 256.811 140.673 256.614V249.398C140.674 249.202 140.753 249.014 140.892 248.876C141.03 248.737 141.218 248.658 141.414 248.657H146.498C146.695 248.657 146.883 248.735 147.022 248.874C147.161 249.013 147.239 249.201 147.239 249.398Z" fill="#F5F5F5"/>
<path d="M265.68 250.592C265.68 250.592 266.572 244.032 270.771 243.31C274.969 242.589 273.703 239.42 274.792 238.193C275.881 236.967 278.728 240.588 276.294 244.097C273.86 247.607 275.848 246.505 274.792 249.765C273.736 253.026 265.306 256.056 265.68 250.592Z" fill="#030311"/>
<path opacity="0.2" d="M265.68 250.592C265.68 250.592 266.572 244.032 270.771 243.31C274.969 242.589 273.703 239.42 274.792 238.193C275.881 236.967 278.728 240.588 276.294 244.097C273.86 247.607 275.848 246.505 274.792 249.765C273.736 253.026 265.306 256.056 265.68 250.592Z" fill="#F5F5F5"/>
<path d="M267.09 255.046C267.062 255.053 267.033 255.053 267.005 255.046C266.976 255.036 266.949 255.02 266.926 254.999C266.903 254.978 266.885 254.953 266.872 254.925C266.859 254.896 266.852 254.866 266.851 254.835C266.85 254.804 266.856 254.773 266.867 254.744C266.867 254.672 269.491 247.758 266.972 237.223C266.189 234.199 265.09 231.265 263.692 228.472C261.272 223.224 259.186 218.684 262.275 210.228C263.233 207.604 264.243 205.164 265.195 202.796C268.757 194.051 271.564 187.144 268.593 180.734C268.568 180.677 268.566 180.612 268.588 180.553C268.61 180.495 268.654 180.447 268.711 180.42C268.739 180.406 268.77 180.399 268.801 180.398C268.832 180.397 268.864 180.402 268.893 180.413C268.922 180.424 268.949 180.44 268.972 180.462C268.995 180.483 269.013 180.509 269.026 180.538C272.083 187.13 269.236 194.123 265.634 202.973C264.67 205.341 263.666 207.781 262.721 210.392C259.697 218.664 261.652 222.902 264.119 228.268C265.512 231.096 266.611 234.059 267.399 237.111C269.937 247.797 267.294 254.823 267.268 254.915C267.251 254.95 267.226 254.98 267.195 255.002C267.164 255.025 267.128 255.04 267.09 255.046Z" fill="#030311"/>
<path d="M268.304 253.564C268.304 253.564 271.013 249.477 267.104 247.378C263.194 245.278 262.4 246.964 259.979 245.455C257.559 243.947 255.722 240.28 255.309 242.628C254.895 244.977 257.696 246.302 256.706 247.378C255.715 248.453 263.272 255.407 268.304 253.564Z" fill="#030311"/>
<path d="M270.272 183.923C270.272 183.923 272.24 175.71 266.264 176.051C260.288 176.392 267.445 183.293 270.272 183.923Z" fill="#030311"/>
<path d="M265.542 190.496C265.542 190.496 263.174 183.358 259.048 185.248C254.922 187.137 261.318 190.975 265.542 190.496Z" fill="#030311"/>
<path d="M272.811 190.548C272.811 190.548 271.702 184.795 276.202 184.316C280.702 183.837 279.108 189.099 272.811 190.548Z" fill="#030311"/>
<path d="M270.757 202.638C270.757 202.638 276.379 196.734 278.879 200.598C281.378 204.462 274.7 205.82 270.757 202.638Z" fill="#030311"/>
<path d="M259.966 202.54C259.966 202.54 258.11 193.664 253.446 196.872C248.781 200.08 255.774 203.78 259.966 202.54Z" fill="#030311"/>
<path d="M256.693 215.726C256.693 215.726 259.573 206.378 252.947 207.932C246.321 209.487 251.779 213.902 256.693 215.726Z" fill="#030311"/>
<path d="M267.248 218.126C267.248 218.126 272.378 211.002 276.878 212.767C281.378 214.531 278.374 221.459 267.248 218.126Z" fill="#030311"/>
<path d="M263.286 233.333C263.286 233.333 257.605 223.001 253.596 226.956C249.588 230.912 257.06 235.753 263.286 233.333Z" fill="#030311"/>
<path d="M270.272 232.145C270.272 232.145 268.304 223.932 273.165 224.214C278.026 224.496 277.127 229.685 270.272 232.145Z" fill="#030311"/>
<g opacity="0.2">
<path d="M270.272 183.923C270.272 183.923 272.24 175.71 266.264 176.051C260.288 176.392 267.445 183.293 270.272 183.923Z" fill="#F5F5F5"/>
<path d="M265.542 190.496C265.542 190.496 263.174 183.358 259.048 185.248C254.922 187.137 261.318 190.975 265.542 190.496Z" fill="#F5F5F5"/>
<path d="M272.811 190.548C272.811 190.548 271.702 184.795 276.202 184.316C280.702 183.837 279.108 189.099 272.811 190.548Z" fill="#F5F5F5"/>
<path d="M270.757 202.638C270.757 202.638 276.379 196.734 278.879 200.598C281.378 204.462 274.7 205.82 270.757 202.638Z" fill="#F5F5F5"/>
<path d="M259.966 202.54C259.966 202.54 258.11 193.664 253.446 196.872C248.781 200.08 255.774 203.78 259.966 202.54Z" fill="#F5F5F5"/>
<path d="M256.693 215.726C256.693 215.726 259.573 206.378 252.947 207.932C246.321 209.487 251.779 213.902 256.693 215.726Z" fill="#F5F5F5"/>
<path d="M267.248 218.126C267.248 218.126 272.378 211.002 276.878 212.767C281.378 214.531 278.374 221.459 267.248 218.126Z" fill="#F5F5F5"/>
<path d="M263.286 233.333C263.286 233.333 257.605 223.001 253.596 226.956C249.588 230.912 257.06 235.753 263.286 233.333Z" fill="#F5F5F5"/>
<path d="M270.272 232.145C270.272 232.145 268.304 223.932 273.165 224.214C278.026 224.496 277.127 229.685 270.272 232.145Z" fill="#F5F5F5"/>
</g>
<path d="M268.52 195.055H268.468C268.406 195.04 268.352 195.003 268.317 194.95C268.317 194.904 265.641 190.686 263.817 189.781C263.76 189.752 263.716 189.703 263.695 189.643C263.675 189.583 263.678 189.517 263.705 189.459C263.719 189.431 263.739 189.406 263.763 189.385C263.786 189.365 263.814 189.349 263.844 189.339C263.874 189.329 263.906 189.326 263.937 189.328C263.968 189.331 263.999 189.34 264.027 189.354C265.746 190.207 268.015 193.599 268.586 194.491C271.761 192.267 273.926 188.456 273.952 188.416C273.983 188.361 274.034 188.321 274.094 188.304C274.154 188.287 274.219 188.294 274.274 188.324C274.328 188.355 274.369 188.406 274.386 188.466C274.403 188.526 274.396 188.591 274.365 188.646C274.267 188.816 272.03 192.759 268.652 195.022C268.612 195.046 268.566 195.057 268.52 195.055Z" fill="#030311"/>
<path d="M263.922 206.64C263.888 206.636 263.856 206.626 263.826 206.609C263.797 206.592 263.771 206.569 263.751 206.541C263.751 206.495 260.471 201.917 256.614 200.04C256.586 200.027 256.561 200.007 256.54 199.984C256.52 199.961 256.504 199.933 256.494 199.904C256.484 199.874 256.48 199.843 256.482 199.812C256.484 199.781 256.492 199.75 256.506 199.722C256.52 199.694 256.539 199.669 256.562 199.649C256.586 199.628 256.613 199.612 256.643 199.602C256.672 199.592 256.703 199.588 256.734 199.59C256.766 199.592 256.796 199.6 256.824 199.614C260.347 201.333 263.286 205.105 263.988 206.049C268.842 201.871 275.31 201.516 275.376 201.516C275.438 201.515 275.498 201.537 275.545 201.578C275.591 201.62 275.62 201.677 275.625 201.739C275.627 201.77 275.622 201.802 275.612 201.831C275.602 201.86 275.586 201.887 275.565 201.91C275.544 201.934 275.519 201.952 275.491 201.966C275.463 201.979 275.433 201.987 275.402 201.989C275.336 201.989 268.842 202.35 264.106 206.581C264.081 206.603 264.052 206.62 264.02 206.63C263.988 206.64 263.955 206.643 263.922 206.64Z" fill="#030311"/>
<path d="M261.6 221.597C261.553 221.597 261.507 221.583 261.468 221.557C257.637 218.933 254.298 211.986 254.161 211.717C254.134 211.661 254.13 211.596 254.151 211.537C254.172 211.478 254.216 211.429 254.272 211.402C254.329 211.375 254.394 211.372 254.453 211.393C254.512 211.414 254.56 211.457 254.587 211.514C254.62 211.586 257.933 218.5 261.6 221.098C262.643 220.396 269.026 216.204 274.136 215.693C274.167 215.69 274.198 215.693 274.228 215.703C274.258 215.712 274.285 215.728 274.309 215.748C274.333 215.768 274.352 215.792 274.366 215.82C274.381 215.848 274.389 215.878 274.392 215.909C274.395 215.94 274.393 215.971 274.384 216.001C274.375 216.03 274.361 216.058 274.341 216.082C274.322 216.106 274.297 216.125 274.27 216.14C274.243 216.154 274.213 216.163 274.182 216.165C268.848 216.696 261.81 221.538 261.718 221.584C261.68 221.597 261.64 221.602 261.6 221.597Z" fill="#030311"/>
<path d="M267.09 236.455C267.055 236.456 267.02 236.449 266.988 236.435C266.956 236.42 266.928 236.398 266.907 236.37C264.634 234.033 261.702 232.445 258.503 231.817C258.47 231.814 258.439 231.803 258.41 231.787C258.381 231.77 258.356 231.748 258.337 231.721C258.317 231.694 258.304 231.664 258.297 231.631C258.29 231.599 258.29 231.565 258.297 231.533C258.304 231.5 258.318 231.47 258.337 231.443C258.357 231.416 258.382 231.394 258.41 231.378C258.439 231.361 258.471 231.351 258.504 231.347C258.537 231.344 258.57 231.348 258.602 231.358C261.834 231.99 264.804 233.573 267.13 235.904C269.623 233.975 272.568 226.937 272.594 226.864C272.619 226.807 272.665 226.762 272.723 226.739C272.781 226.715 272.845 226.716 272.903 226.74C272.932 226.751 272.959 226.767 272.982 226.789C273.005 226.811 273.023 226.837 273.035 226.866C273.047 226.894 273.054 226.926 273.053 226.957C273.053 226.988 273.046 227.019 273.034 227.048C272.909 227.356 269.872 234.605 267.228 236.416C267.187 236.443 267.139 236.457 267.09 236.455Z" fill="#030311"/>
<path d="M267.871 252.56C267.871 252.56 270.2 248.86 272.824 248.335C275.448 247.811 276.583 244.78 277.554 246.603C278.524 248.427 275.848 254.482 267.871 252.56Z" fill="#030311"/>
<path d="M278.767 252.002L277.98 258.792L277.875 259.684L277.554 262.531L277.311 264.545L277.16 265.85L276.399 272.456H256.745L255.978 265.85L255.827 264.545L255.591 262.531L255.263 259.684L255.158 258.792L254.371 252.002H278.767Z" fill="url(#paint37_linear_620_1193)"/>
<path opacity="0.4" d="M277.554 262.531L277.311 264.545H255.827L255.591 262.531H277.554Z" fill="#F5F5F5"/>
<path opacity="0.4" d="M277.16 265.85L276.399 272.456H256.745L255.978 265.85H277.16Z" fill="#F5F5F5"/>
<path opacity="0.4" d="M277.98 258.792L277.875 259.684H255.263L255.158 258.792H277.98Z" fill="#F5F5F5"/>
<defs>
<linearGradient id="paint0_linear_620_1193" x1="96.2502" y1="157.873" x2="96.2502" y2="266.765" gradientUnits="userSpaceOnUse">
<stop stop-color="#3FB65B"/>
<stop offset="1" stop-color="#214694"/>
</linearGradient>
<linearGradient id="paint1_linear_620_1193" x1="79.5378" y1="156.128" x2="79.5378" y2="266.997" gradientUnits="userSpaceOnUse">
<stop stop-color="#3FB65B"/>
<stop offset="1" stop-color="#214694"/>
</linearGradient>
<linearGradient id="paint2_linear_620_1193" x1="106.818" y1="123.513" x2="106.818" y2="140.653" gradientUnits="userSpaceOnUse">
<stop stop-color="#3FB65B"/>
<stop offset="1" stop-color="#214694"/>
</linearGradient>
<linearGradient id="paint3_linear_620_1193" x1="88.6085" y1="121.815" x2="88.6085" y2="166.263" gradientUnits="userSpaceOnUse">
<stop stop-color="#3FB65B"/>
<stop offset="1" stop-color="#214694"/>
</linearGradient>
<linearGradient id="paint4_linear_620_1193" x1="93.7179" y1="120.354" x2="93.7179" y2="139.774" gradientUnits="userSpaceOnUse">
<stop stop-color="#3FB65B"/>
<stop offset="1" stop-color="#214694"/>
</linearGradient>
<linearGradient id="paint5_linear_620_1193" x1="96.3795" y1="95.7805" x2="96.3795" y2="106.987" gradientUnits="userSpaceOnUse">
<stop stop-color="#3FB65B"/>
<stop offset="1" stop-color="#214694"/>
</linearGradient>
<linearGradient id="paint6_linear_620_1193" x1="100.952" y1="137.393" x2="100.952" y2="141.591" gradientUnits="userSpaceOnUse">
<stop stop-color="#3FB65B"/>
<stop offset="1" stop-color="#214694"/>
</linearGradient>
<linearGradient id="paint7_linear_620_1193" x1="117.081" y1="137.655" x2="117.081" y2="186.261" gradientUnits="userSpaceOnUse">
<stop stop-color="#3FB65B"/>
<stop offset="1" stop-color="#214694"/>
</linearGradient>
<linearGradient id="paint8_linear_620_1193" x1="79.9117" y1="122.232" x2="79.9117" y2="139.577" gradientUnits="userSpaceOnUse">
<stop stop-color="#3FB65B"/>
<stop offset="1" stop-color="#214694"/>
</linearGradient>
<linearGradient id="paint9_linear_620_1193" x1="217.631" y1="149.194" x2="217.631" y2="204.147" gradientUnits="userSpaceOnUse">
<stop stop-color="#3FB65B"/>
<stop offset="1" stop-color="#214694"/>
</linearGradient>
<linearGradient id="paint10_linear_620_1193" x1="216.332" y1="149.194" x2="216.332" y2="204.147" gradientUnits="userSpaceOnUse">
<stop stop-color="#3FB65B"/>
<stop offset="1" stop-color="#214694"/>
</linearGradient>
<linearGradient id="paint11_linear_620_1193" x1="216.332" y1="155.78" x2="216.332" y2="156.817" gradientUnits="userSpaceOnUse">
<stop stop-color="#3FB65B"/>
<stop offset="1" stop-color="#214694"/>
</linearGradient>
<linearGradient id="paint12_linear_620_1193" x1="164.577" y1="262.794" x2="164.577" y2="267.346" gradientUnits="userSpaceOnUse">
<stop stop-color="#3FB65B"/>
<stop offset="1" stop-color="#214694"/>
</linearGradient>
<linearGradient id="paint13_linear_620_1193" x1="166.129" y1="256.785" x2="166.129" y2="267.341" gradientUnits="userSpaceOnUse">
<stop stop-color="#3FB65B"/>
<stop offset="1" stop-color="#214694"/>
</linearGradient>
<linearGradient id="paint14_linear_620_1193" x1="166.506" y1="248.657" x2="166.506" y2="257.329" gradientUnits="userSpaceOnUse">
<stop stop-color="#3FB65B"/>
<stop offset="1" stop-color="#214694"/>
</linearGradient>
<linearGradient id="paint15_linear_620_1193" x1="113.029" y1="249.392" x2="113.029" y2="256.345" gradientUnits="userSpaceOnUse">
<stop stop-color="#3FB65B"/>
<stop offset="1" stop-color="#214694"/>
</linearGradient>
<linearGradient id="paint16_linear_620_1193" x1="59.5517" y1="262.794" x2="59.5517" y2="267.346" gradientUnits="userSpaceOnUse">
<stop stop-color="#3FB65B"/>
<stop offset="1" stop-color="#214694"/>
</linearGradient>
<linearGradient id="paint17_linear_620_1193" x1="61.0966" y1="256.785" x2="61.0966" y2="267.328" gradientUnits="userSpaceOnUse">
<stop stop-color="#3FB65B"/>
<stop offset="1" stop-color="#214694"/>
</linearGradient>
<linearGradient id="paint18_linear_620_1193" x1="61.4803" y1="248.657" x2="61.4803" y2="257.329" gradientUnits="userSpaceOnUse">
<stop stop-color="#3FB65B"/>
<stop offset="1" stop-color="#214694"/>
</linearGradient>
<linearGradient id="paint19_linear_620_1193" x1="160.477" y1="161.048" x2="160.477" y2="245.994" gradientUnits="userSpaceOnUse">
<stop stop-color="#3FB65B"/>
<stop offset="1" stop-color="#214694"/>
</linearGradient>
<linearGradient id="paint20_linear_620_1193" x1="136.351" y1="198.847" x2="136.351" y2="236.088" gradientUnits="userSpaceOnUse">
<stop stop-color="#3FB65B"/>
<stop offset="1" stop-color="#214694"/>
</linearGradient>
<linearGradient id="paint21_linear_620_1193" x1="89.6753" y1="195.75" x2="89.6753" y2="250.704" gradientUnits="userSpaceOnUse">
<stop stop-color="#3FB65B"/>
<stop offset="1" stop-color="#214694"/>
</linearGradient>
<linearGradient id="paint22_linear_620_1193" x1="88.3862" y1="195.75" x2="88.3862" y2="250.704" gradientUnits="userSpaceOnUse">
<stop stop-color="#3FB65B"/>
<stop offset="1" stop-color="#214694"/>
</linearGradient>
<linearGradient id="paint23_linear_620_1193" x1="88.3862" y1="243.087" x2="88.3862" y2="244.124" gradientUnits="userSpaceOnUse">
<stop stop-color="#3FB65B"/>
<stop offset="1" stop-color="#214694"/>
</linearGradient>
<linearGradient id="paint24_linear_620_1193" x1="86.1722" y1="194.425" x2="86.1722" y2="220.318" gradientUnits="userSpaceOnUse">
<stop stop-color="#3FB65B"/>
<stop offset="1" stop-color="#214694"/>
</linearGradient>
<linearGradient id="paint25_linear_620_1193" x1="76.2338" y1="205.741" x2="76.2338" y2="219.294" gradientUnits="userSpaceOnUse">
<stop stop-color="#3FB65B"/>
<stop offset="1" stop-color="#214694"/>
</linearGradient>
<linearGradient id="paint26_linear_620_1193" x1="96.1499" y1="205.741" x2="96.1499" y2="219.294" gradientUnits="userSpaceOnUse">
<stop stop-color="#3FB65B"/>
<stop offset="1" stop-color="#214694"/>
</linearGradient>
<linearGradient id="paint27_linear_620_1193" x1="74.9349" y1="205.741" x2="74.9349" y2="219.294" gradientUnits="userSpaceOnUse">
<stop stop-color="#3FB65B"/>
<stop offset="1" stop-color="#214694"/>
</linearGradient>
<linearGradient id="paint28_linear_620_1193" x1="94.851" y1="205.741" x2="94.851" y2="219.294" gradientUnits="userSpaceOnUse">
<stop stop-color="#3FB65B"/>
<stop offset="1" stop-color="#214694"/>
</linearGradient>
<linearGradient id="paint29_linear_620_1193" x1="99.5185" y1="194.425" x2="99.5185" y2="195.75" gradientUnits="userSpaceOnUse">
<stop stop-color="#3FB65B"/>
<stop offset="1" stop-color="#214694"/>
</linearGradient>
<linearGradient id="paint30_linear_620_1193" x1="244.891" y1="262.794" x2="244.891" y2="267.346" gradientUnits="userSpaceOnUse">
<stop stop-color="#3FB65B"/>
<stop offset="1" stop-color="#214694"/>
</linearGradient>
<linearGradient id="paint31_linear_620_1193" x1="246.443" y1="256.785" x2="246.443" y2="267.341" gradientUnits="userSpaceOnUse">
<stop stop-color="#3FB65B"/>
<stop offset="1" stop-color="#214694"/>
</linearGradient>
<linearGradient id="paint32_linear_620_1193" x1="246.82" y1="248.657" x2="246.82" y2="257.329" gradientUnits="userSpaceOnUse">
<stop stop-color="#3FB65B"/>
<stop offset="1" stop-color="#214694"/>
</linearGradient>
<linearGradient id="paint33_linear_620_1193" x1="193.343" y1="249.392" x2="193.343" y2="256.345" gradientUnits="userSpaceOnUse">
<stop stop-color="#3FB65B"/>
<stop offset="1" stop-color="#214694"/>
</linearGradient>
<linearGradient id="paint34_linear_620_1193" x1="139.866" y1="262.794" x2="139.866" y2="267.346" gradientUnits="userSpaceOnUse">
<stop stop-color="#3FB65B"/>
<stop offset="1" stop-color="#214694"/>
</linearGradient>
<linearGradient id="paint35_linear_620_1193" x1="141.398" y1="256.785" x2="141.398" y2="267.341" gradientUnits="userSpaceOnUse">
<stop stop-color="#3FB65B"/>
<stop offset="1" stop-color="#214694"/>
</linearGradient>
<linearGradient id="paint36_linear_620_1193" x1="141.794" y1="248.657" x2="141.794" y2="257.329" gradientUnits="userSpaceOnUse">
<stop stop-color="#3FB65B"/>
<stop offset="1" stop-color="#214694"/>
</linearGradient>
<linearGradient id="paint37_linear_620_1193" x1="266.569" y1="252.002" x2="266.569" y2="272.456" gradientUnits="userSpaceOnUse">
<stop stop-color="#3FB65B"/>
<stop offset="1" stop-color="#214694"/>
</linearGradient>
</defs>
</svg>
