<svg width="328" height="328" viewBox="0 0 328 328" fill="none" xmlns="http://www.w3.org/2000/svg">
<path d="M328 250.854H0V251.018H328V250.854Z" fill="#EEEEEE"/>
<path d="M295.134 261.41H273.408V261.574H295.134V261.41Z" fill="#EEEEEE"/>
<path d="M217.28 263.194H211.58V263.358H217.28V263.194Z" fill="#EEEEEE"/>
<path d="M272.752 255.322H241.48V255.486H272.752V255.322Z" fill="#EEEEEE"/>
<path d="M49.9478 256.424H34.4138V256.588H49.9478V256.424Z" fill="#EEEEEE"/>
<path d="M72.7438 256.424H55.7862V256.588H72.7438V256.424Z" fill="#EEEEEE"/>
<path d="M128.648 259.192H86.2443V259.356H128.648V259.192Z" fill="#EEEEEE"/>
<path d="M155.472 221.597H28.805C27.8127 221.595 26.8616 221.2 26.1606 220.497C25.4595 219.795 25.0658 218.843 25.0658 217.851V39.793C25.0744 38.8064 25.472 37.8631 26.1721 37.1679C26.8722 36.4727 27.8183 36.0818 28.805 36.0801H155.472C156.465 36.0801 157.418 36.4747 158.121 37.1772C158.823 37.8797 159.218 38.8324 159.218 39.8258V217.851C159.218 218.845 158.823 219.797 158.121 220.5C157.418 221.202 156.465 221.597 155.472 221.597ZM28.805 36.2113C27.8562 36.213 26.9468 36.5911 26.2765 37.2627C25.6062 37.9342 25.2298 38.8442 25.2298 39.793V217.851C25.2298 218.8 25.6062 219.71 26.2765 220.381C26.9468 221.053 27.8562 221.431 28.805 221.433H155.472C156.421 221.431 157.331 221.053 158.003 220.382C158.674 219.711 159.052 218.801 159.054 217.851V39.793C159.052 38.8436 158.674 37.9336 158.003 37.2623C157.331 36.5909 156.421 36.213 155.472 36.2113H28.805Z" fill="#EEEEEE"/>
<path d="M297.371 221.597H170.698C169.705 221.595 168.753 221.2 168.051 220.498C167.349 219.796 166.954 218.844 166.952 217.851V39.793C166.962 38.8058 167.361 37.8625 168.063 37.1675C168.764 36.4724 169.71 36.0817 170.698 36.0801H297.371C298.357 36.0835 299.301 36.4752 300 37.1702C300.699 37.8652 301.095 38.8076 301.104 39.793V217.851C301.104 218.842 300.711 219.793 300.012 220.495C299.312 221.197 298.363 221.593 297.371 221.597ZM170.698 36.2113C169.748 36.213 168.838 36.5909 168.167 37.2623C167.496 37.9336 167.118 38.8436 167.116 39.793V217.851C167.118 218.801 167.496 219.711 168.167 220.382C168.838 221.053 169.748 221.431 170.698 221.433H297.371C298.321 221.431 299.231 221.053 299.902 220.382C300.573 219.711 300.951 218.801 300.953 217.851V39.793C300.951 38.8436 300.573 37.9336 299.902 37.2623C299.231 36.5909 298.321 36.213 297.371 36.2113H170.698Z" fill="#EEEEEE"/>
<path d="M289.565 53.136H185.937V250.854H289.565V53.136Z" fill="#EEEEEE"/>
<path d="M281.857 59.5845H193.645V250.854H281.857V59.5845Z" fill="white"/>
<path d="M250.159 75.4465H225.356V82.3017H250.159V75.4465Z" fill="#F5F5F5"/>
<path d="M261.331 143.546H274.785C275.342 143.546 275.876 143.767 276.27 144.161C276.663 144.554 276.884 145.088 276.884 145.645C276.884 146.202 276.663 146.736 276.27 147.129C275.876 147.523 275.342 147.744 274.785 147.744H261.331C260.774 147.744 260.24 147.523 259.846 147.129C259.453 146.736 259.232 146.202 259.232 145.645C259.232 145.088 259.453 144.554 259.846 144.161C260.24 143.767 260.774 143.546 261.331 143.546Z" fill="#F5F5F5"/>
<path d="M115.089 74.1741H46.1693V129.718H115.089V74.1741Z" fill="#EEEEEE"/>
<path d="M111.382 126.018V77.8738H49.8626V126.018H111.382Z" fill="#D9D9D9"/>
<path d="M104.212 102.579V100.276H57.0392V102.579H104.212Z" fill="#F1F1F1"/>
<path d="M104.212 107.82V105.518H57.0392V107.82H104.212Z" fill="#F1F1F1"/>
<path d="M104.212 113.055V110.752H57.0392V113.055H104.212Z" fill="#F1F1F1"/>
<path d="M92.3845 118.296V115.994H68.8669V118.296H92.3845Z" fill="#F1F1F1"/>
<path d="M57.072 77.8739C57.072 78.8194 56.885 79.7555 56.5219 80.6284C56.1587 81.5013 55.6264 82.2938 54.9557 82.9602C54.285 83.6266 53.4892 84.1538 52.614 84.5114C51.7388 84.8691 50.8014 85.05 49.856 85.044C48.5515 85.0472 47.2714 84.6909 46.1562 84.0141V74.1741H55.9962C56.6856 75.2861 57.0577 76.5656 57.072 77.8739Z" fill="#EEEEEE"/>
<path d="M115.089 74.1741V84.0141C113.717 84.839 112.109 85.1814 110.521 84.9867C108.932 84.7921 107.454 84.0716 106.323 82.9399C105.191 81.8082 104.471 80.3305 104.276 78.742C104.081 77.1535 104.424 75.5455 105.249 74.1741H115.089Z" fill="#EEEEEE"/>
<path d="M57.072 126.024C57.0743 127.326 56.7204 128.603 56.0486 129.718H46.2086V119.878C47.297 119.226 48.5387 118.874 49.8071 118.859C51.0756 118.843 52.3255 119.164 53.4295 119.789C54.5336 120.413 55.4524 121.32 56.0922 122.415C56.7321 123.51 57.0701 124.756 57.072 126.024Z" fill="#EEEEEE"/>
<path d="M115.089 119.871V129.711H105.249C104.572 128.598 104.215 127.32 104.219 126.018C104.22 124.748 104.558 123.5 105.199 122.403C105.839 121.306 106.759 120.399 107.865 119.773C108.97 119.148 110.222 118.827 111.492 118.843C112.762 118.859 114.006 119.211 115.095 119.864L115.089 119.871Z" fill="#EEEEEE"/>
<path d="M86.6566 90.5827C87.1971 87.2533 84.9362 84.1161 81.6067 83.5757C78.2773 83.0353 75.1402 85.2962 74.5997 88.6256C74.0593 91.955 76.3202 95.0922 79.6496 95.6326C82.979 96.1731 86.1162 93.9121 86.6566 90.5827Z" fill="#F1F1F1"/>
<path d="M170.783 171.97H34.4138V176.877H170.783V171.97Z" fill="#EEEEEE"/>
<path d="M169.602 176.877H125.296V250.855H169.602V176.877Z" fill="#DDDDDD"/>
<path d="M80.4059 176.877H36.0997V250.855H80.4059V176.877Z" fill="#DDDDDD"/>
<path d="M37.615 176.877H36.0997V250.855H37.615V176.877Z" fill="#EEEEEE"/>
<path d="M126.811 176.877H125.296V250.855H126.811V176.877Z" fill="#EEEEEE"/>
<path d="M59.368 160.143H51.2205L51.8765 171.971H58.712L59.368 160.143Z" fill="white"/>
<path d="M130.104 166.841H87.5367V171.97H130.104V166.841Z" fill="white"/>
<path d="M130.111 167.444H110.484V171.374H130.111V167.444Z" fill="#D9D9D9"/>
<path d="M164 280.479C234.246 280.479 291.192 277.155 291.192 273.053C291.192 268.952 234.246 265.628 164 265.628C93.7539 265.628 36.8082 268.952 36.8082 273.053C36.8082 277.155 93.7539 280.479 164 280.479Z" fill="#DDDDDD"/>
<path d="M223.506 227.12C234.983 227.12 244.288 217.816 244.288 206.338C244.288 194.861 234.983 185.556 223.506 185.556C212.028 185.556 202.724 194.861 202.724 206.338C202.724 217.816 212.028 227.12 223.506 227.12Z" fill="#F5F5F5"/>
<path d="M223.506 227.376C219.345 227.377 215.276 226.145 211.816 223.834C208.355 221.523 205.658 218.238 204.065 214.394C202.471 210.55 202.054 206.319 202.865 202.238C203.676 198.157 205.679 194.407 208.621 191.464C211.563 188.522 215.311 186.517 219.392 185.705C223.474 184.893 227.704 185.309 231.549 186.901C235.393 188.493 238.679 191.19 240.991 194.65C243.303 198.109 244.537 202.177 244.537 206.338C244.532 211.915 242.315 217.262 238.372 221.206C234.429 225.15 229.083 227.369 223.506 227.376ZM223.506 185.819C219.446 185.819 215.477 187.023 212.101 189.278C208.726 191.534 206.095 194.74 204.541 198.491C202.988 202.242 202.582 206.37 203.374 210.352C204.167 214.334 206.123 217.991 208.994 220.861C211.865 223.732 215.523 225.686 219.505 226.477C223.487 227.269 227.615 226.861 231.365 225.307C235.116 223.752 238.321 221.12 240.576 217.744C242.831 214.367 244.033 210.398 244.032 206.338C244.027 200.897 241.862 195.679 238.014 191.832C234.165 187.985 228.947 185.822 223.506 185.819Z" fill="url(#paint0_linear_620_922)"/>
<path d="M226.851 194.556H220.16V218.12H226.851V194.556Z" fill="url(#paint1_linear_620_922)"/>
<path d="M235.288 209.69V202.999H211.724V209.69H235.288Z" fill="url(#paint2_linear_620_922)"/>
<path d="M82.7282 49.2459L82.2821 48.767C85.3188 45.8963 89.172 44.0396 93.3094 43.4534L93.4013 44.1094C89.3972 44.6741 85.6676 46.469 82.7282 49.2459Z" fill="url(#paint3_linear_620_922)"/>
<path d="M77.8738 56.4158L77.2637 56.1797C77.9259 54.5085 78.8083 52.9333 79.8877 51.4958L80.4125 51.8894C79.3717 53.2806 78.5181 54.8024 77.8738 56.4158Z" fill="url(#paint4_linear_620_922)"/>
<path d="M96.1761 81.5472C106.118 81.5472 114.177 73.488 114.177 63.5465C114.177 53.6051 106.118 45.5459 96.1761 45.5459C86.2347 45.5459 78.1755 53.6051 78.1755 63.5465C78.1755 73.488 86.2347 81.5472 96.1761 81.5472Z" fill="url(#paint5_linear_620_922)"/>
<path d="M106.928 55.4385C106.235 54.7188 105.405 54.1445 104.487 53.7492C103.569 53.354 102.582 53.1457 101.583 53.1365C100.583 53.1274 99.5922 53.3175 98.6673 53.6959C97.7424 54.0742 96.9022 54.6332 96.1958 55.3401C95.49 54.6334 94.6504 54.0746 93.726 53.6963C92.8016 53.318 91.8111 53.1279 90.8124 53.1371C89.8136 53.1462 88.8268 53.3545 87.9095 53.7497C86.9922 54.1448 86.1629 54.719 85.4702 55.4385C84.1127 56.9069 83.3813 58.8469 83.4316 60.846C83.4818 62.8452 84.3096 64.746 85.7392 66.1444L94.2672 74.6724C94.523 74.9283 94.8268 75.1312 95.1611 75.2697C95.4954 75.4082 95.8537 75.4795 96.2155 75.4795C96.5774 75.4795 96.9357 75.4082 97.27 75.2697C97.6042 75.1312 97.908 74.9283 98.1638 74.6724L106.692 66.1444C108.117 64.7416 108.939 62.8385 108.983 60.8394C109.027 58.8402 108.29 56.9027 106.928 55.4385Z" fill="#F5F5F5"/>
<path d="M96.1761 71.4122C96.0439 71.4077 95.9162 71.3633 95.8096 71.2848C95.7031 71.2064 95.6228 71.0976 95.5792 70.9727L91.7809 59.8666L90.1934 64.5111C90.1483 64.6402 90.064 64.7519 89.9523 64.8307C89.8405 64.9095 89.7069 64.9514 89.5702 64.9506H83.2136C83.0396 64.9506 82.8727 64.8815 82.7497 64.7585C82.6267 64.6354 82.5576 64.4686 82.5576 64.2946C82.5576 64.1206 82.6267 63.9538 82.7497 63.8307C82.8727 63.7077 83.0396 63.6386 83.2136 63.6386H89.1176L91.1774 57.6231C91.222 57.4942 91.3057 57.3824 91.4168 57.3033C91.5279 57.2242 91.6609 57.1816 91.7973 57.1816C91.9337 57.1816 92.0668 57.2242 92.1779 57.3033C92.289 57.3824 92.3727 57.4942 92.4173 57.6231L96.2811 68.926L100.033 60.0896C100.081 59.977 100.159 59.8799 100.258 59.8092C100.358 59.7385 100.476 59.697 100.598 59.6895C100.72 59.6824 100.843 59.7101 100.951 59.7692C101.059 59.8284 101.148 59.9167 101.208 60.024L103.189 63.632H109.165C109.339 63.632 109.506 63.7012 109.629 63.8242C109.752 63.9472 109.821 64.1141 109.821 64.288C109.821 64.462 109.752 64.6289 109.629 64.7519C109.506 64.8749 109.339 64.944 109.165 64.944H102.808C102.691 64.945 102.575 64.9145 102.474 64.8556C102.372 64.7968 102.289 64.7118 102.231 64.6095L100.676 61.828L96.7797 71.012C96.7294 71.1306 96.6454 71.2318 96.5381 71.3029C96.4308 71.3741 96.3049 71.4121 96.1761 71.4122Z" fill="url(#paint6_linear_620_922)"/>
<path d="M196.052 250.067H127.585C126.47 250.079 125.364 249.86 124.338 249.421C123.312 248.983 122.388 248.336 121.625 247.522C120.863 246.708 120.278 245.744 119.908 244.691C119.538 243.638 119.392 242.52 119.477 241.408L130.544 77.4079C130.737 75.0657 131.794 72.8791 133.51 71.2727C135.225 69.6664 137.477 68.7551 139.826 68.7159H208.306C209.425 68.7031 210.534 68.9238 211.562 69.3639C212.591 69.804 213.516 70.4539 214.279 71.2719C215.042 72.0899 215.626 73.0581 215.994 74.1147C216.362 75.1712 216.505 76.2928 216.414 77.4079L205.328 241.408C205.128 243.744 204.069 245.922 202.356 247.522C200.642 249.122 198.396 250.028 196.052 250.067Z" fill="#030311"/>
<path d="M211.232 135.503H209.507C209.194 135.507 208.885 135.446 208.597 135.323C208.31 135.2 208.052 135.019 207.839 134.79C207.626 134.562 207.463 134.291 207.36 133.996C207.258 133.701 207.218 133.388 207.244 133.076L209.362 101.726C209.412 101.07 209.705 100.457 210.185 100.008C210.665 99.5581 211.296 99.3051 211.954 99.2987H213.679C213.991 99.295 214.301 99.3565 214.588 99.4793C214.876 99.6021 215.134 99.7836 215.347 100.012C215.56 100.241 215.723 100.511 215.826 100.806C215.928 101.101 215.968 101.415 215.942 101.726L213.823 133.076C213.774 133.732 213.48 134.345 213 134.795C212.521 135.244 211.889 135.497 211.232 135.503Z" fill="#030311"/>
<path d="M129.547 114.59H127.828C127.574 114.594 127.322 114.544 127.087 114.445C126.853 114.346 126.642 114.199 126.468 114.014C126.293 113.829 126.159 113.61 126.074 113.37C125.988 113.131 125.953 112.876 125.972 112.622L126.739 101.3C126.788 100.768 127.031 100.273 127.422 99.9099C127.813 99.5466 128.324 99.3407 128.858 99.3316H130.583C130.837 99.3301 131.088 99.3809 131.321 99.4808C131.554 99.5808 131.764 99.7277 131.937 99.9124C132.111 100.097 132.245 100.316 132.33 100.554C132.415 100.793 132.45 101.047 132.433 101.3L131.666 112.622C131.619 113.154 131.376 113.65 130.985 114.013C130.593 114.377 130.081 114.582 129.547 114.59Z" fill="url(#paint7_linear_620_922)"/>
<path d="M128.182 134.808H126.457C126.203 134.81 125.952 134.76 125.718 134.661C125.485 134.561 125.275 134.414 125.101 134.229C124.927 134.044 124.794 133.825 124.709 133.586C124.624 133.347 124.589 133.093 124.607 132.84L125.375 121.517C125.423 120.986 125.666 120.491 126.057 120.128C126.448 119.764 126.96 119.558 127.494 119.549H129.232C129.485 119.548 129.737 119.599 129.97 119.699C130.202 119.799 130.412 119.945 130.586 120.13C130.76 120.315 130.893 120.533 130.979 120.772C131.064 121.011 131.099 121.264 131.082 121.517L130.314 132.84C130.267 133.374 130.023 133.872 129.628 134.236C129.234 134.599 128.719 134.803 128.182 134.808Z" fill="url(#paint8_linear_620_922)"/>
<path d="M194.602 250.067H126.136C125.02 250.08 123.914 249.86 122.888 249.422C121.862 248.983 120.938 248.337 120.176 247.522C119.413 246.708 118.828 245.744 118.459 244.691C118.089 243.638 117.942 242.52 118.028 241.408L129.101 77.408C129.301 75.065 130.365 72.8801 132.087 71.2785C133.809 69.6768 136.065 68.7728 138.416 68.7422H206.856C207.973 68.7297 209.079 68.9498 210.106 69.3883C211.132 69.8268 212.056 70.4743 212.819 71.2894C213.582 72.1045 214.166 73.0695 214.536 74.1229C214.905 75.1763 215.051 76.295 214.965 77.408L203.885 241.408C203.685 243.745 202.625 245.924 200.91 247.524C199.195 249.124 196.947 250.03 194.602 250.067Z" fill="url(#paint9_linear_620_922)"/>
<path opacity="0.3" d="M118.749 239.571L129.56 79.5334H214.223L203.412 239.571H118.749Z" fill="#F5F5F5"/>
<path opacity="0.1" d="M152.172 239.571L182.388 79.5334H201.353L171.137 239.571H152.172Z" fill="#F5F5F5"/>
<path opacity="0.1" d="M137.845 239.571L168.061 79.5334H177.671L147.456 239.571H137.845Z" fill="#F5F5F5"/>
<path d="M164.092 72.7636H180.603C180.741 72.7612 180.878 72.7878 181.005 72.8417C181.132 72.8956 181.246 72.9755 181.34 73.0763C181.434 73.1772 181.506 73.2966 181.551 73.4269C181.595 73.5572 181.612 73.6955 181.6 73.8329C181.578 74.1219 181.448 74.3921 181.237 74.591C181.026 74.7898 180.749 74.9031 180.459 74.9087H163.948C163.809 74.9101 163.672 74.8826 163.546 74.828C163.419 74.7734 163.305 74.6928 163.211 74.5915C163.117 74.4902 163.045 74.3704 163 74.2397C162.956 74.1091 162.938 73.9705 162.95 73.8329C162.973 73.5445 163.103 73.275 163.314 73.0772C163.525 72.8794 163.803 72.7676 164.092 72.7636Z" fill="#F5F5F5"/>
<path d="M160.654 265.844L154.868 266.395L152.782 253.045L158.568 252.488L160.654 265.844Z" fill="#FFB573"/>
<path d="M154.206 263.568L160.267 261.685C160.372 261.649 160.486 261.654 160.587 261.701C160.687 261.747 160.765 261.831 160.805 261.934L162.773 266.743C162.822 266.872 162.844 267.009 162.837 267.147C162.83 267.284 162.795 267.419 162.733 267.542C162.671 267.666 162.585 267.775 162.479 267.863C162.373 267.951 162.25 268.016 162.117 268.055C159.926 268.711 157.84 268.862 155.196 270.023C152.107 271.335 150.814 273.093 147.488 273.093C145.107 273.093 144.569 270.908 145.58 270.607C150.172 269.216 149.568 268.074 152.9 264.486C153.247 264.07 153.697 263.753 154.206 263.568Z" fill="#030311"/>
<path opacity="0.2" d="M152.782 253.045L153.858 259.933L159.651 259.376L158.575 252.488L152.782 253.045Z" fill="black"/>
<path d="M156.968 84.3616C149.378 83.4694 141.827 84.0664 134.25 85.5358C132.988 85.7809 131.836 86.4217 130.962 87.3653C130.088 88.3088 129.537 89.5062 129.389 90.7838C128.569 98.0392 127.631 114.301 131.292 138.56L162.308 135.936C162.367 131.535 159.237 111.481 161.822 90.6723C161.928 89.9378 161.885 89.1895 161.697 88.4716C161.509 87.7537 161.179 87.0808 160.727 86.4926C160.274 85.9044 159.708 85.4127 159.063 85.0467C158.417 84.6807 157.705 84.4478 156.968 84.3616Z" fill="#F5F5F5"/>
<path d="M138.908 90.5805L140.017 92.7978C140.068 92.9097 140.151 93.0047 140.254 93.072C140.357 93.1393 140.477 93.1761 140.6 93.1783L141.801 93.2439C142.015 93.2532 142.226 93.1883 142.398 93.0602L144.464 91.5186L141.912 89.6621L138.908 90.5805Z" fill="#030311"/>
<path d="M141.84 92.6074C141.403 92.4047 140.907 92.3651 140.443 92.4959C139.466 95.9399 138.396 105.826 138.285 110.208C141.25 118.847 142.221 119.72 142.221 119.72L143.723 109.322C143.723 109.322 142.037 98.6885 141.84 92.6074Z" fill="#030311"/>
<path d="M150.401 69.4048C149.693 73.6819 149.089 81.4949 152.159 84.2566C149.909 86.6182 146.964 89.3537 141.912 89.6621C136.861 89.9704 137.642 86.4739 138.921 84.6043C143.638 83.3448 143.408 79.8286 142.483 76.5421L150.401 69.4048Z" fill="#FFB573"/>
<path d="M153.445 83.8827C153.087 83.7285 152.716 83.6077 152.336 83.5219C152.243 83.4973 152.145 83.5039 152.056 83.5407C151.967 83.5774 151.893 83.6422 151.844 83.7253C151.359 84.5519 149.876 88.2451 141.912 89.6621C143.224 90.4362 144.963 92.8371 145.711 93.9917C148.099 92.7519 154.311 89.0455 153.72 84.2501C153.708 84.1709 153.677 84.0959 153.629 84.0318C153.581 83.9677 153.518 83.9165 153.445 83.8827Z" fill="#DDDDDD"/>
<path d="M138.967 84.8011C138.984 84.7265 138.982 84.6488 138.961 84.5752C138.94 84.5016 138.901 84.4344 138.848 84.3796C138.794 84.3249 138.728 84.2844 138.655 84.2617C138.582 84.2391 138.504 84.2351 138.429 84.2501C138.153 84.3036 137.882 84.376 137.616 84.4666C137.554 84.4906 137.497 84.5238 137.445 84.565C136.835 85.1291 133.509 89.9311 136.625 93.8146C137.281 92.7584 139.544 90.364 141.912 89.6621C139.669 88.6519 138.567 86.7691 138.967 84.8011Z" fill="#DDDDDD"/>
<path opacity="0.2" d="M147.174 72.3174L142.49 76.542C142.716 77.3051 142.874 78.0866 142.962 78.8774C144.773 78.5691 147.206 76.5158 147.338 74.6134C147.426 73.8445 147.371 73.0658 147.174 72.3174Z" fill="black"/>
<path d="M140.915 56.4751C136.874 58.056 136.612 61.3754 136.979 65.0031C137.347 68.6307 141.296 66.2298 142.175 63.96C143.054 61.6903 146.511 54.284 140.915 56.4751Z" fill="#030311"/>
<path d="M153.806 63.7106C152.684 69.4243 152.31 72.8159 149.043 75.4464C144.117 79.3824 137.445 75.9843 136.855 70.0935C136.323 64.7864 138.245 56.3175 144.13 54.6643C145.413 54.2865 146.773 54.2501 148.074 54.5586C149.376 54.8671 150.575 55.5099 151.552 56.4235C152.529 57.3371 153.251 58.4898 153.646 59.7678C154.042 61.0458 154.096 62.4048 153.806 63.7106Z" fill="#FFB573"/>
<path d="M153.57 68.4404C148.761 68.6963 149.778 65.9673 150.65 64.3995C151.523 62.8316 149.745 60.2404 150.906 58.8956C148.833 59.7222 146.649 59.04 143.874 57.1113C141.722 55.6091 139.026 61.6115 136.402 58.6004C133.922 55.76 136.225 51.4763 142.181 50.7875C148.138 50.0987 149.22 54.3102 153.13 53.9363C157.04 53.5624 155.682 56.7833 154.914 57.4393C158.194 57.6558 159.985 60.7915 153.57 68.4404Z" fill="#030311"/>
<path d="M154.16 57.8395C154.912 57.4269 155.541 56.8207 155.98 56.0837C156.42 55.3468 156.654 54.5057 156.659 53.6477C157.958 55.924 157.82 58.5087 154.16 57.8395Z" fill="#030311"/>
<path d="M141.696 69.8116C142.219 69.902 142.754 69.8859 143.271 69.7642C143.787 69.6424 144.273 69.4176 144.7 69.1031C144.713 69.0908 144.724 69.0761 144.731 69.0597C144.738 69.0434 144.741 69.0258 144.741 69.008C144.741 68.9902 144.738 68.9726 144.731 68.9562C144.724 68.9399 144.713 68.9251 144.7 68.9129C144.675 68.8884 144.641 68.8748 144.605 68.8748C144.57 68.8748 144.536 68.8884 144.51 68.9129C144.032 69.252 143.481 69.4753 142.902 69.5653C142.322 69.6552 141.73 69.6093 141.171 69.4311C141.136 69.4222 141.098 69.4267 141.065 69.4436C141.033 69.4605 141.007 69.4887 140.994 69.5229C140.984 69.5577 140.988 69.5952 141.005 69.6271C141.022 69.659 141.051 69.6829 141.086 69.6935C141.285 69.751 141.49 69.7905 141.696 69.8116Z" fill="#030311"/>
<path d="M154.967 70.1921C154.069 71.3496 152.752 72.1081 151.3 72.3044C149.391 72.5537 148.755 70.7759 149.555 69.1162C150.283 67.6205 152.179 65.6919 153.937 66.2101C155.695 66.7284 156.069 68.7489 154.967 70.1921Z" fill="#FFB573"/>
<path d="M153.071 194.419C153.301 177.291 155.492 136.494 155.492 136.494L131.312 138.534C131.312 138.534 136.12 180.577 139.02 198.053C142.037 216.218 151.293 258.772 151.293 258.772L161.133 257.933C161.133 257.933 157.538 207.663 153.071 194.419Z" fill="#030311"/>
<path d="M150.703 259.041L162.373 258.051L161.914 254.285L149.752 255.099L150.703 259.041Z" fill="url(#paint10_linear_620_922)"/>
<path d="M145.186 64.0519C145.127 64.5177 144.825 64.8719 144.53 64.8391C144.235 64.8063 144.031 64.3996 144.097 63.9273C144.163 63.455 144.458 63.1073 144.753 63.1401C145.048 63.1729 145.252 63.5862 145.186 64.0519Z" fill="#030311"/>
<path d="M139.833 63.632C139.774 64.1043 139.472 64.452 139.177 64.4192C138.882 64.3864 138.678 63.9797 138.744 63.5139C138.81 63.0482 139.105 62.6939 139.4 62.7267C139.695 62.7595 139.899 63.14 139.833 63.632Z" fill="#030311"/>
<path d="M141.342 64.1831C140.552 65.397 139.603 66.5001 138.521 67.4631C139.216 68.1913 140.653 67.9945 140.653 67.9945L141.342 64.1831Z" fill="#ED893E"/>
<path opacity="0.4" d="M136.448 63.75C136.35 64.4978 137.104 65.121 138.147 65.2522C139.19 65.3834 140.154 64.8127 140.246 64.0649" fill="url(#paint11_linear_620_922)"/>
<path opacity="0.4" d="M142.647 64.4453C142.503 65.1866 143.231 65.8557 144.254 66.0525C145.278 66.2493 146.281 65.7245 146.419 64.9898" fill="url(#paint12_linear_620_922)"/>
<path d="M144.661 66.256C144.543 66.2626 144.425 66.2626 144.307 66.256C143.803 66.1957 143.329 65.9829 142.949 65.6459C142.783 65.5042 142.654 65.3249 142.572 65.1228C142.489 64.9208 142.457 64.702 142.477 64.4848C142.144 64.3399 141.789 64.2512 141.427 64.2224C141.063 64.1316 140.682 64.1316 140.318 64.2224C140.227 65.0227 139.229 65.5738 138.114 65.436C137.61 65.3809 137.135 65.17 136.756 64.8325C136.591 64.6901 136.463 64.5106 136.38 64.3088C136.298 64.1069 136.265 63.8885 136.284 63.6714L136.599 63.7108C136.586 63.8785 136.613 64.047 136.678 64.2022C136.743 64.3573 136.844 64.4947 136.973 64.6029C137.303 64.8938 137.716 65.0748 138.154 65.1211C139.098 65.2458 139.938 64.8063 140.023 64.1503C140.069 63.7829 140.83 63.8091 141.46 63.8879C142.09 63.9666 142.837 64.1437 142.772 64.5045C142.758 64.6723 142.785 64.841 142.85 64.9962C142.915 65.1515 143.016 65.2889 143.146 65.3967C143.48 65.6836 143.891 65.8664 144.329 65.9223C144.766 65.9783 145.21 65.905 145.606 65.7115C145.759 65.6404 145.892 65.5335 145.995 65.3999C146.098 65.2663 146.167 65.11 146.196 64.944V64.7866L154.291 65.8296L154.252 66.1445L146.459 65.1408C146.402 65.3234 146.309 65.4926 146.185 65.6381C146.061 65.7835 145.908 65.9023 145.737 65.9871C145.405 66.1625 145.036 66.2548 144.661 66.256Z" fill="#030311"/>
<path d="M147.246 61.9919C147.292 61.992 147.338 61.9783 147.377 61.9525C147.441 61.9154 147.487 61.8548 147.507 61.7837C147.527 61.7126 147.518 61.6366 147.482 61.572C147.279 61.1905 146.984 60.8651 146.625 60.6248C146.266 60.3844 145.852 60.2366 145.422 60.1944C145.348 60.1908 145.276 60.2163 145.221 60.2653C145.166 60.3144 145.132 60.3832 145.127 60.4568C145.123 60.5289 145.148 60.5994 145.196 60.6534C145.244 60.7073 145.311 60.7404 145.383 60.7455C145.723 60.7854 146.049 60.9079 146.331 61.1022C146.613 61.2966 146.844 61.5569 147.003 61.8607C147.028 61.9024 147.064 61.9367 147.106 61.9598C147.149 61.9829 147.197 61.994 147.246 61.9919Z" fill="#030311"/>
<path d="M138.101 61.2506C138.147 61.2551 138.192 61.2485 138.235 61.2313C138.277 61.2142 138.314 61.187 138.344 61.1522C138.556 60.8745 138.83 60.6502 139.145 60.4976C139.459 60.3449 139.805 60.2681 140.154 60.2732C140.191 60.2768 140.227 60.2732 140.262 60.2626C140.297 60.252 140.329 60.2346 140.357 60.2115C140.385 60.1883 140.408 60.1598 140.425 60.1276C140.442 60.0954 140.453 60.0602 140.456 60.0239C140.461 59.9886 140.458 59.9526 140.449 59.9182C140.439 59.8839 140.423 59.8517 140.401 59.8236C140.379 59.7955 140.352 59.7721 140.321 59.7547C140.29 59.7373 140.255 59.7262 140.22 59.7222C139.779 59.7106 139.342 59.8025 138.943 59.9905C138.545 60.1785 138.196 60.4573 137.924 60.8046C137.877 60.8603 137.854 60.9323 137.861 61.0048C137.867 61.0774 137.901 61.1445 137.957 61.1916C138 61.2224 138.049 61.2426 138.101 61.2506Z" fill="#030311"/>
<path d="M173.217 191.657C168.198 165.863 167.07 145.691 162.308 135.897L138.882 138.521C138.882 138.521 152.835 176.956 159.651 193.363C166.729 210.419 180.702 239.558 180.702 239.558H192.405C192.405 239.558 181.482 203.406 173.217 191.657Z" fill="#030311"/>
<path d="M98.9642 94.0114L96.432 92.4108C96.021 92.146 95.5308 92.032 95.0451 92.0882C94.5595 92.1445 94.1083 92.3674 93.7686 92.7191L92.0499 94.5297C91.8648 94.7251 91.7218 94.9564 91.6296 95.2093C91.5374 95.4622 91.4981 95.7313 91.5141 96C91.5301 96.2687 91.601 96.5312 91.7225 96.7714C91.844 97.0116 92.0135 97.2243 92.2205 97.3964L93.4472 98.446C94.5142 99.3502 95.759 100.021 97.1011 100.414L100.808 101.51L103.241 98.8855C103.983 96.15 98.9642 94.0114 98.9642 94.0114Z" fill="#FFB573"/>
<path d="M136.448 92.7846C135.53 95.0281 134.631 97.1142 133.653 99.2462C132.676 101.378 131.685 103.484 130.59 105.577C129.494 107.669 128.327 109.749 127.002 111.835C126.346 112.871 125.617 113.908 124.791 114.951C123.902 116.101 122.89 117.15 121.773 118.08C121.036 118.683 120.222 119.186 119.353 119.576C119.077 119.681 118.821 119.786 118.52 119.877L118.06 120.002C117.829 120.059 117.595 120.1 117.358 120.127C116.559 120.217 115.749 120.159 114.971 119.956C113.997 119.684 113.072 119.261 112.228 118.703C111.597 118.309 110.994 117.871 110.424 117.391C108.531 115.738 106.786 113.923 105.209 111.966C103.681 110.129 102.238 108.286 100.853 106.403C99.4693 104.52 98.1376 102.67 96.7731 100.696L104.028 96.0121C106.318 99.7081 108.851 103.247 111.612 106.606C112.881 108.162 114.279 109.609 115.791 110.93C116.083 111.169 116.392 111.388 116.716 111.586C116.958 111.75 117.201 111.815 117.03 111.756C116.8 111.693 116.558 111.679 116.322 111.717C116.226 111.726 116.132 111.743 116.04 111.769H115.987C115.955 111.769 115.955 111.769 115.948 111.769C116.097 111.672 116.24 111.564 116.374 111.448C116.973 110.904 117.516 110.302 117.995 109.65C118.552 108.902 119.11 108.063 119.641 107.19C120.727 105.376 121.717 103.506 122.606 101.588C123.525 99.6201 124.41 97.6521 125.23 95.6054C126.05 93.5587 126.831 91.4791 127.494 89.4915L136.448 92.7846Z" fill="url(#paint13_linear_620_922)"/>
<g opacity="0.6">
<path d="M136.448 92.7846C135.53 95.0281 134.631 97.1142 133.653 99.2462C132.676 101.378 131.685 103.484 130.59 105.577C129.494 107.669 128.327 109.749 127.002 111.835C126.346 112.871 125.617 113.908 124.791 114.951C123.902 116.101 122.89 117.15 121.773 118.08C121.036 118.683 120.222 119.186 119.353 119.576C119.077 119.681 118.821 119.786 118.52 119.877L118.06 120.002C117.829 120.059 117.595 120.1 117.358 120.127C116.559 120.217 115.749 120.159 114.971 119.956C113.997 119.684 113.072 119.261 112.228 118.703C111.597 118.309 110.994 117.871 110.424 117.391C108.531 115.738 106.786 113.923 105.209 111.966C103.681 110.129 102.238 108.286 100.853 106.403C99.4693 104.52 98.1376 102.67 96.7731 100.696L104.028 96.0121C106.318 99.7081 108.851 103.247 111.612 106.606C112.881 108.162 114.279 109.609 115.791 110.93C116.083 111.169 116.392 111.388 116.716 111.586C116.958 111.75 117.201 111.815 117.03 111.756C116.8 111.693 116.558 111.679 116.322 111.717C116.226 111.726 116.132 111.743 116.04 111.769H115.987C115.955 111.769 115.955 111.769 115.948 111.769C116.097 111.672 116.24 111.564 116.374 111.448C116.973 110.904 117.516 110.302 117.995 109.65C118.552 108.902 119.11 108.063 119.641 107.19C120.727 105.376 121.717 103.506 122.606 101.588C123.525 99.6201 124.41 97.6521 125.23 95.6054C126.05 93.5587 126.831 91.4791 127.494 89.4915L136.448 92.7846Z" fill="#F5F5F5"/>
</g>
<path d="M153.622 82.7151C151.162 87.3071 142.404 104.803 141.342 115.6C137.465 105.76 138.311 83.9943 138.311 83.9943C135.548 84.2636 132.838 84.9263 130.262 85.9623C129.432 86.3033 128.712 86.8675 128.183 87.5923C127.654 88.3172 127.336 89.1743 127.264 90.0688C126.509 101.331 126.865 112.641 128.327 123.833C131.049 145.022 133.575 177.973 133.575 177.973C133.575 177.973 155.256 177.068 171.984 173.538C169.943 157.342 162.964 130.196 162.898 122.928C162.819 113.573 163.036 95.284 163.331 87.6482C163.38 86.5701 163.043 85.5099 162.378 84.6593C161.714 83.8087 160.768 83.2237 159.71 83.0103C157.703 82.6384 155.655 82.5391 153.622 82.7151Z" fill="url(#paint14_linear_620_922)"/>
<path opacity="0.7" d="M153.622 82.7151C151.162 87.3071 142.404 104.803 141.342 115.6C137.465 105.76 138.311 83.9943 138.311 83.9943C135.548 84.2636 132.838 84.9263 130.262 85.9623C129.432 86.3033 128.712 86.8675 128.183 87.5923C127.654 88.3172 127.336 89.1743 127.264 90.0688C126.509 101.331 126.865 112.641 128.327 123.833C131.049 145.022 133.575 177.973 133.575 177.973C133.575 177.973 155.256 177.068 171.984 173.538C169.943 157.342 162.964 130.196 162.898 122.928C162.819 113.573 163.036 95.2775 163.331 87.6416C163.393 86.5964 163.084 85.5627 162.459 84.7227C161.834 83.8827 160.932 83.2903 159.913 83.0496C157.842 82.6437 155.724 82.5311 153.622 82.7151Z" fill="#F5F5F5"/>
<path d="M148.512 174.457C144.746 153.681 141.762 123.197 141.519 119.53H141.853C142.096 123.197 145.088 153.642 148.846 174.417L148.512 174.457Z" fill="#F5F5F5"/>
<path d="M146.636 137.498H126.641C126.237 137.479 125.85 137.331 125.538 137.074C125.226 136.818 125.005 136.467 124.909 136.074L118.224 104.999C118.175 104.83 118.167 104.651 118.201 104.478C118.235 104.304 118.309 104.141 118.418 104.002C118.527 103.863 118.667 103.752 118.827 103.678C118.988 103.604 119.163 103.569 119.34 103.576H139.328C139.733 103.593 140.121 103.741 140.435 103.997C140.748 104.254 140.97 104.606 141.066 104.999L147.751 136.074C147.8 136.244 147.808 136.423 147.774 136.596C147.74 136.769 147.666 136.932 147.557 137.071C147.448 137.21 147.308 137.321 147.148 137.395C146.988 137.469 146.812 137.504 146.636 137.498Z" fill="#F5F5F5"/>
<path d="M146.012 137.76H125.676C125.265 137.741 124.871 137.589 124.553 137.328C124.235 137.067 124.01 136.71 123.912 136.31L117.109 104.711C117.06 104.537 117.053 104.355 117.088 104.179C117.123 104.002 117.2 103.837 117.311 103.695C117.422 103.554 117.565 103.441 117.729 103.365C117.892 103.29 118.071 103.254 118.251 103.261H138.587C138.998 103.28 139.392 103.431 139.71 103.693C140.028 103.954 140.253 104.311 140.351 104.711L147.147 136.31C147.197 136.483 147.206 136.665 147.172 136.841C147.137 137.018 147.062 137.184 146.951 137.325C146.84 137.467 146.697 137.58 146.534 137.656C146.371 137.731 146.192 137.767 146.012 137.76Z" fill="url(#paint15_linear_620_922)"/>
<path d="M148.341 119.93L143.284 119.74C142.675 119.719 142.07 119.826 141.506 120.055L138.882 121.104C138.636 121.202 138.412 121.348 138.223 121.534C138.035 121.72 137.886 121.942 137.786 122.187C137.685 122.432 137.635 122.695 137.639 122.96C137.642 123.225 137.699 123.486 137.806 123.728L138.856 125.998C139.067 126.438 139.424 126.792 139.866 127C140.308 127.208 140.809 127.257 141.283 127.139L144.176 126.418C144.176 126.418 149.607 125.985 149.804 123.138L148.341 119.93Z" fill="#FFB573"/>
<path d="M162.308 85.5293C163.56 87.4973 164.708 89.2947 165.837 91.2234C166.965 93.152 168.074 95.061 169.117 97.0552C170.16 99.0495 171.15 101.109 172.049 103.313C172.516 104.468 172.914 105.648 173.243 106.849C173.666 108.313 173.861 109.833 173.82 111.356V111.612C173.823 111.656 173.823 111.699 173.82 111.743C173.82 111.979 173.755 112.215 173.709 112.452C173.663 112.688 173.604 112.871 173.538 113.108C173.473 113.344 173.4 113.468 173.328 113.652C173.078 114.22 172.756 114.753 172.371 115.24C171.835 115.909 171.225 116.517 170.553 117.05C169.522 117.863 168.425 118.589 167.273 119.221C165.248 120.329 163.163 121.323 161.028 122.2C158.962 123.079 156.902 123.879 154.829 124.633C152.756 125.388 150.716 126.116 148.558 126.838L146.058 118.572C148.026 118.034 150.034 117.372 151.995 116.702C153.957 116.033 155.931 115.285 157.794 114.505C159.623 113.75 161.406 112.889 163.134 111.927C163.864 111.522 164.559 111.059 165.214 110.543C165.386 110.412 165.54 110.26 165.673 110.09C165.616 110.154 165.572 110.227 165.542 110.306C165.542 110.365 165.509 110.405 165.476 110.477C165.45 110.554 165.43 110.633 165.417 110.713C165.389 110.814 165.372 110.917 165.364 111.021C165.364 111.061 165.364 111.067 165.364 111.054V111.008C165.319 110.386 165.198 109.771 165.004 109.178C164.741 108.319 164.43 107.476 164.072 106.652C163.27 104.837 162.363 103.069 161.356 101.359C160.333 99.6005 159.244 97.8424 158.076 96.1106C156.909 94.3787 155.715 92.6535 154.514 91.0791L162.308 85.5293Z" fill="url(#paint16_linear_620_922)"/>
<g opacity="0.7">
<path d="M162.308 85.5293C163.56 87.4973 164.708 89.2947 165.837 91.2234C166.965 93.152 168.074 95.061 169.117 97.0552C170.16 99.0495 171.15 101.109 172.049 103.313C172.516 104.468 172.914 105.648 173.243 106.849C173.666 108.313 173.861 109.833 173.82 111.356V111.612C173.823 111.656 173.823 111.699 173.82 111.743C173.82 111.979 173.755 112.215 173.709 112.452C173.663 112.688 173.604 112.871 173.538 113.108C173.473 113.344 173.4 113.468 173.328 113.652C173.078 114.22 172.756 114.753 172.371 115.24C171.835 115.909 171.225 116.517 170.553 117.05C169.522 117.863 168.425 118.589 167.273 119.221C165.248 120.329 163.163 121.323 161.028 122.2C158.962 123.079 156.902 123.879 154.829 124.633C152.756 125.388 150.716 126.116 148.558 126.838L146.058 118.572C148.026 118.034 150.034 117.372 151.995 116.702C153.957 116.033 155.931 115.285 157.794 114.505C159.623 113.75 161.406 112.889 163.134 111.927C163.864 111.522 164.559 111.059 165.214 110.543C165.386 110.412 165.54 110.26 165.673 110.09C165.616 110.154 165.572 110.227 165.542 110.306C165.542 110.365 165.509 110.405 165.476 110.477C165.45 110.554 165.43 110.633 165.417 110.713C165.389 110.814 165.372 110.917 165.364 111.021C165.364 111.061 165.364 111.067 165.364 111.054V111.008C165.319 110.386 165.198 109.771 165.004 109.178C164.741 108.319 164.43 107.476 164.072 106.652C163.27 104.837 162.363 103.069 161.356 101.359C160.333 99.6005 159.244 97.8424 158.076 96.1106C156.909 94.3787 155.715 92.6535 154.514 91.0791L162.308 85.5293Z" fill="#F5F5F5"/>
</g>
<path d="M155.669 108.292C155.625 108.292 155.582 108.28 155.544 108.258C155.506 108.237 155.475 108.205 155.452 108.168C155.433 108.139 155.42 108.107 155.413 108.073C155.407 108.039 155.407 108.004 155.415 107.971C155.422 107.937 155.436 107.905 155.456 107.877C155.476 107.849 155.502 107.825 155.531 107.807L156.554 107.151C157.51 106.549 158.259 105.67 158.704 104.633C159.15 103.595 159.269 102.446 159.047 101.339L156.987 90.9085C156.837 90.1286 156.427 89.4224 155.825 88.904C155.223 88.3857 154.464 88.0856 153.671 88.0522C152.877 88.0188 152.095 88.2541 151.452 88.7201C150.809 89.186 150.341 89.8554 150.126 90.6198L147.206 100.847C146.888 101.928 146.905 103.08 147.257 104.151C147.608 105.222 148.277 106.161 149.174 106.843L150.145 107.577C150.2 107.62 150.235 107.683 150.244 107.752C150.253 107.82 150.234 107.89 150.191 107.945C150.171 107.972 150.145 107.994 150.116 108.011C150.086 108.028 150.054 108.039 150.02 108.043C149.987 108.047 149.953 108.045 149.92 108.036C149.888 108.027 149.857 108.012 149.83 107.991L148.912 107.263C147.925 106.52 147.188 105.494 146.798 104.323C146.408 103.151 146.383 101.889 146.728 100.703L149.653 90.4755C149.904 89.6022 150.442 88.8387 151.179 88.3073C151.916 87.776 152.81 87.5077 153.718 87.5455C154.626 87.5833 155.495 87.9251 156.185 88.5159C156.876 89.1067 157.348 89.9124 157.525 90.8035L159.585 101.24C159.828 102.45 159.698 103.705 159.212 104.839C158.726 105.973 157.907 106.933 156.863 107.591L155.833 108.247C155.81 108.265 155.784 108.278 155.756 108.286C155.727 108.294 155.698 108.296 155.669 108.292Z" fill="#030311"/>
<path d="M157.243 91.1249L149.876 90.8166C149.842 90.8149 149.808 90.8064 149.777 90.7916C149.746 90.7769 149.718 90.7561 149.695 90.7305C149.671 90.7049 149.653 90.675 149.642 90.6425C149.63 90.61 149.625 90.5755 149.627 90.541C149.634 90.4726 149.665 90.4091 149.716 90.363C149.767 90.3168 149.834 90.2914 149.903 90.2918L157.263 90.6001C157.297 90.6018 157.331 90.6102 157.362 90.625C157.394 90.6397 157.422 90.6605 157.445 90.6861C157.468 90.7117 157.486 90.7416 157.497 90.7741C157.509 90.8066 157.514 90.8411 157.512 90.8756C157.511 90.9098 157.504 90.9434 157.49 90.9746C157.476 91.0057 157.455 91.0338 157.43 91.057C157.405 91.0803 157.376 91.0982 157.344 91.1099C157.311 91.1215 157.277 91.1266 157.243 91.1249Z" fill="#030311"/>
<path d="M153.661 88.068C153.593 88.0664 153.529 88.0391 153.48 87.9917C153.431 87.9442 153.402 87.8801 153.399 87.8122C153.399 86.5002 152.992 84.2238 151.766 83.7253C151.732 83.7139 151.7 83.6956 151.674 83.6717C151.647 83.6478 151.626 83.6186 151.611 83.5861C151.596 83.5536 151.588 83.5183 151.587 83.4825C151.586 83.4467 151.592 83.4111 151.606 83.3779C151.619 83.3447 151.639 83.3147 151.665 83.2895C151.691 83.2644 151.721 83.2448 151.754 83.2318C151.788 83.2189 151.823 83.2129 151.859 83.2143C151.895 83.2157 151.93 83.2244 151.962 83.2398C153.78 83.9877 153.93 87.412 153.93 87.8318C153.93 87.9009 153.904 87.9674 153.856 88.0175C153.809 88.0676 153.744 88.0974 153.675 88.1008L153.661 88.068Z" fill="#030311"/>
<path d="M131.128 96.983H131.075C131.008 96.9688 130.948 96.9284 130.91 96.8707C130.872 96.8129 130.858 96.7425 130.872 96.6747C131.738 92.3648 135.32 85.562 138.475 83.5547C138.504 83.5368 138.536 83.5248 138.569 83.5194C138.603 83.514 138.637 83.5153 138.67 83.5232C138.703 83.5312 138.734 83.5456 138.761 83.5656C138.789 83.5856 138.812 83.6109 138.829 83.64C138.848 83.6681 138.862 83.6998 138.868 83.7332C138.874 83.7666 138.874 83.8009 138.866 83.8341C138.859 83.8672 138.845 83.8986 138.825 83.9261C138.805 83.9536 138.78 83.9768 138.751 83.9942C135.7 85.9228 132.223 92.5222 131.384 96.7665C131.373 96.8268 131.342 96.8814 131.295 96.9209C131.248 96.9605 131.189 96.9824 131.128 96.983Z" fill="#030311"/>
<path d="M133.28 97.6587C132.873 98.7017 131.968 99.3315 131.312 99.0625C130.656 98.7936 130.4 97.7505 130.806 96.6813C131.213 95.612 132.118 95.0085 132.774 95.284C133.43 95.5595 133.693 96.6157 133.28 97.6587Z" fill="#F5F5F5"/>
<path d="M150.598 107.82C150.598 108.305 150.296 108.693 149.975 108.679C149.653 108.666 149.404 108.26 149.424 107.768C149.443 107.276 149.725 106.889 150.047 106.908C150.368 106.928 150.618 107.328 150.598 107.82Z" fill="#F5F5F5"/>
<path d="M156.253 108.056C156.253 108.542 155.957 108.929 155.629 108.916C155.301 108.902 155.065 108.496 155.085 108.004C155.105 107.512 155.38 107.131 155.741 107.144C156.102 107.157 156.272 107.584 156.253 108.056Z" fill="#F5F5F5"/>
<path d="M267.497 98.9576L266.841 98.9183C266.95 97.5216 266.768 96.1175 266.306 94.7951C265.843 93.4727 265.111 92.2607 264.156 91.2362C263.2 90.2117 262.043 89.3969 260.755 88.8436C259.468 88.2903 258.081 88.0106 256.68 88.0221V87.3661C258.17 87.3534 259.647 87.6507 261.017 88.2391C262.387 88.8275 263.619 89.6941 264.636 90.784C265.654 91.8738 266.433 93.1632 266.926 94.5703C267.418 95.9773 267.613 97.4714 267.497 98.9576Z" fill="url(#paint17_linear_620_922)"/>
<path d="M267.843 101.708L267.463 107.14L268.119 107.186L268.499 101.754L267.843 101.708Z" fill="url(#paint18_linear_620_922)"/>
<path d="M256.68 89.6621H211.416C208.944 89.7027 206.575 90.6614 204.771 92.3516C202.967 94.0418 201.856 96.3427 201.654 98.8067L201.241 104.901C201.147 106.074 201.299 107.253 201.686 108.364C202.073 109.475 202.687 110.493 203.489 111.353C204.292 112.213 205.264 112.897 206.346 113.361C207.427 113.824 208.593 114.058 209.769 114.046H255.033L263.81 119.458L265.201 98.8067C265.296 97.6344 265.145 96.4552 264.759 95.3443C264.373 94.2335 263.759 93.2153 262.957 92.3549C262.156 91.4944 261.183 90.8106 260.102 90.3469C259.021 89.8833 257.856 89.65 256.68 89.6621Z" fill="url(#paint19_linear_620_922)"/>
<path d="M254.384 98.3936H212.459V99.9155H254.384V98.3936Z" fill="#F5F5F5"/>
<path d="M254.016 103.792H222.889V105.314H254.016V103.792Z" fill="#F5F5F5"/>
<path d="M188.587 122.265H234.848C236.051 122.252 237.243 122.49 238.349 122.964C239.454 123.437 240.449 124.136 241.269 125.016C242.09 125.896 242.718 126.937 243.113 128.073C243.509 129.209 243.663 130.414 243.566 131.613L243.146 137.845C242.939 140.363 241.802 142.714 239.959 144.442C238.115 146.169 235.695 147.15 233.169 147.193H186.901L177.179 152.737L178.609 131.613C178.816 129.095 179.951 126.743 181.795 125.015C183.639 123.288 186.06 122.307 188.587 122.265Z" fill="#F5F5F5"/>
<path opacity="0.15" d="M188.587 122.265H234.848C236.051 122.252 237.243 122.49 238.349 122.964C239.454 123.437 240.449 124.136 241.269 125.016C242.09 125.896 242.718 126.937 243.113 128.073C243.509 129.209 243.663 130.414 243.566 131.613L243.146 137.845C242.939 140.363 241.802 142.714 239.959 144.442C238.115 146.169 235.695 147.15 233.169 147.193H186.901L177.179 152.737L178.609 131.613C178.816 129.095 179.951 126.743 181.795 125.015C183.639 123.288 186.06 122.307 188.587 122.265Z" fill="url(#paint20_linear_620_922)"/>
<path opacity="0.5" d="M232.5 131.193H189.623V132.755H232.5V131.193Z" fill="url(#paint21_linear_620_922)"/>
<path opacity="0.5" d="M206.194 136.71H189.249V138.272H206.194V136.71Z" fill="url(#paint22_linear_620_922)"/>
<path opacity="0.5" d="M221.17 136.71H210.346V138.272H221.17V136.71Z" fill="url(#paint23_linear_620_922)"/>
<defs>
<linearGradient id="paint0_linear_620_922" x1="223.499" y1="185.3" x2="223.499" y2="227.376" gradientUnits="userSpaceOnUse">
<stop stop-color="#3FB65B"/>
<stop offset="1" stop-color="#214694"/>
</linearGradient>
<linearGradient id="paint1_linear_620_922" x1="223.506" y1="194.556" x2="223.506" y2="218.12" gradientUnits="userSpaceOnUse">
<stop stop-color="#3FB65B"/>
<stop offset="1" stop-color="#214694"/>
</linearGradient>
<linearGradient id="paint2_linear_620_922" x1="235.288" y1="206.345" x2="211.724" y2="206.345" gradientUnits="userSpaceOnUse">
<stop stop-color="#3FB65B"/>
<stop offset="1" stop-color="#214694"/>
</linearGradient>
<linearGradient id="paint3_linear_620_922" x1="87.8417" y1="43.4534" x2="87.8417" y2="49.2459" gradientUnits="userSpaceOnUse">
<stop stop-color="#3FB65B"/>
<stop offset="1" stop-color="#214694"/>
</linearGradient>
<linearGradient id="paint4_linear_620_922" x1="78.8381" y1="51.4958" x2="78.8381" y2="56.4158" gradientUnits="userSpaceOnUse">
<stop stop-color="#3FB65B"/>
<stop offset="1" stop-color="#214694"/>
</linearGradient>
<linearGradient id="paint5_linear_620_922" x1="96.1761" y1="45.5459" x2="96.1761" y2="81.5472" gradientUnits="userSpaceOnUse">
<stop stop-color="#3FB65B"/>
<stop offset="1" stop-color="#214694"/>
</linearGradient>
<linearGradient id="paint6_linear_620_922" x1="96.1893" y1="57.1816" x2="96.1893" y2="71.4122" gradientUnits="userSpaceOnUse">
<stop stop-color="#3FB65B"/>
<stop offset="1" stop-color="#214694"/>
</linearGradient>
<linearGradient id="paint7_linear_620_922" x1="129.202" y1="99.3315" x2="129.202" y2="114.59" gradientUnits="userSpaceOnUse">
<stop stop-color="#3FB65B"/>
<stop offset="1" stop-color="#214694"/>
</linearGradient>
<linearGradient id="paint8_linear_620_922" x1="127.844" y1="119.549" x2="127.844" y2="134.808" gradientUnits="userSpaceOnUse">
<stop stop-color="#3FB65B"/>
<stop offset="1" stop-color="#214694"/>
</linearGradient>
<linearGradient id="paint9_linear_620_922" x1="166.496" y1="68.7417" x2="166.496" y2="250.068" gradientUnits="userSpaceOnUse">
<stop stop-color="#3FB65B"/>
<stop offset="1" stop-color="#214694"/>
</linearGradient>
<linearGradient id="paint10_linear_620_922" x1="156.062" y1="254.285" x2="156.062" y2="259.041" gradientUnits="userSpaceOnUse">
<stop stop-color="#3FB65B"/>
<stop offset="1" stop-color="#214694"/>
</linearGradient>
<linearGradient id="paint11_linear_620_922" x1="138.343" y1="63.75" x2="138.343" y2="65.2711" gradientUnits="userSpaceOnUse">
<stop stop-color="#3FB65B"/>
<stop offset="1" stop-color="#214694"/>
</linearGradient>
<linearGradient id="paint12_linear_620_922" x1="144.524" y1="64.4453" x2="144.524" y2="66.0942" gradientUnits="userSpaceOnUse">
<stop stop-color="#3FB65B"/>
<stop offset="1" stop-color="#214694"/>
</linearGradient>
<linearGradient id="paint13_linear_620_922" x1="116.611" y1="89.4915" x2="116.611" y2="120.168" gradientUnits="userSpaceOnUse">
<stop stop-color="#3FB65B"/>
<stop offset="1" stop-color="#214694"/>
</linearGradient>
<linearGradient id="paint14_linear_620_922" x1="149.431" y1="82.6306" x2="149.431" y2="177.973" gradientUnits="userSpaceOnUse">
<stop stop-color="#3FB65B"/>
<stop offset="1" stop-color="#214694"/>
</linearGradient>
<linearGradient id="paint15_linear_620_922" x1="132.129" y1="103.26" x2="132.129" y2="137.761" gradientUnits="userSpaceOnUse">
<stop stop-color="#3FB65B"/>
<stop offset="1" stop-color="#214694"/>
</linearGradient>
<linearGradient id="paint16_linear_620_922" x1="159.942" y1="85.5293" x2="159.942" y2="126.838" gradientUnits="userSpaceOnUse">
<stop stop-color="#3FB65B"/>
<stop offset="1" stop-color="#214694"/>
</linearGradient>
<linearGradient id="paint17_linear_620_922" x1="262.105" y1="87.3657" x2="262.105" y2="98.9576" gradientUnits="userSpaceOnUse">
<stop stop-color="#3FB65B"/>
<stop offset="1" stop-color="#214694"/>
</linearGradient>
<linearGradient id="paint18_linear_620_922" x1="267.653" y1="104.424" x2="268.309" y2="104.47" gradientUnits="userSpaceOnUse">
<stop stop-color="#3FB65B"/>
<stop offset="1" stop-color="#214694"/>
</linearGradient>
<linearGradient id="paint19_linear_620_922" x1="233.221" y1="89.6616" x2="233.221" y2="119.458" gradientUnits="userSpaceOnUse">
<stop stop-color="#3FB65B"/>
<stop offset="1" stop-color="#214694"/>
</linearGradient>
<linearGradient id="paint20_linear_620_922" x1="210.387" y1="122.265" x2="210.387" y2="152.737" gradientUnits="userSpaceOnUse">
<stop stop-color="#3FB65B"/>
<stop offset="1" stop-color="#214694"/>
</linearGradient>
<linearGradient id="paint21_linear_620_922" x1="211.061" y1="131.193" x2="211.061" y2="132.755" gradientUnits="userSpaceOnUse">
<stop stop-color="#3FB65B"/>
<stop offset="1" stop-color="#214694"/>
</linearGradient>
<linearGradient id="paint22_linear_620_922" x1="197.722" y1="136.71" x2="197.722" y2="138.272" gradientUnits="userSpaceOnUse">
<stop stop-color="#3FB65B"/>
<stop offset="1" stop-color="#214694"/>
</linearGradient>
<linearGradient id="paint23_linear_620_922" x1="215.758" y1="136.71" x2="215.758" y2="138.272" gradientUnits="userSpaceOnUse">
<stop stop-color="#3FB65B"/>
<stop offset="1" stop-color="#214694"/>
</linearGradient>
</defs>
</svg>
