<svg width="249" height="249" viewBox="0 0 249 249" fill="none" xmlns="http://www.w3.org/2000/svg">
<g filter="url(#filter0_d_17_10)">
<path d="M165.369 25H83.3777C51.1726 25 25.0652 51.1146 25.0652 83.3286V165.343C25.0652 197.557 51.1726 223.671 83.3777 223.671H165.369C197.574 223.671 223.682 197.557 223.682 165.343V83.3286C223.682 51.1146 197.574 25 165.369 25Z" fill="white"/>
<g clip-path="url(#clip0_17_10)">
<path d="M113.132 112.609V95.4168C113.132 88.5268 118.704 82.9424 125.578 82.9424C132.451 82.9424 138.023 88.5268 138.023 95.4168V99.9066L135.162 108.424L122.401 115.465L113.135 112.609H113.132Z" fill="#279E48"/>
<path d="M84.0776 125.218C84.0776 118.253 89.7087 112.609 96.6567 112.609H113.132C113.132 112.609 134.764 113.516 138.023 99.9066C138.023 99.9066 137.525 102.991 136.715 106.093C135.967 108.946 134.556 111.583 132.645 113.824L116.65 132.567C116.059 133.259 115.37 133.864 114.611 134.362C111.153 136.623 107.114 137.826 102.987 137.826H96.6595C89.7116 137.826 84.0804 132.182 84.0804 125.218H84.0776Z" fill="#3FB65B"/>
<path d="M136.55 135.805V152.997C136.55 159.887 130.978 165.472 124.104 165.472C117.23 165.472 111.659 159.887 111.659 152.997V148.507L114.52 139.99L127.281 132.949L136.547 135.805H136.55Z" fill="#272361"/>
<path d="M165.604 123.196C165.604 130.161 159.973 135.805 153.025 135.805H136.55C136.55 135.805 114.918 134.898 111.659 148.507C111.659 148.507 112.157 145.423 112.967 142.321C113.715 139.468 115.126 136.831 117.037 134.591L133.032 115.847C133.623 115.155 134.311 114.55 135.071 114.052C138.529 111.791 142.568 110.588 146.694 110.588H153.022C159.97 110.588 165.601 116.232 165.601 123.196H165.604Z" fill="#214694"/>
<path d="M192.116 77.2243C190.902 75.4768 189.517 73.832 188.191 72.21C185.444 68.8491 182.35 65.7732 179.011 63.0052C163.551 50.2001 142.821 45.1886 123.063 46.6311C109.352 47.6316 95.5788 51.6112 84.2255 59.5502C70.1789 69.3707 60.2703 83.6097 54.878 99.8442C54.568 100.779 54.3462 101.777 53.9822 102.692C55.6914 98.3932 58.271 94.3282 60.9358 90.5796C67.0476 81.9763 74.9426 74.5817 84.2368 69.5503C101.346 60.2857 123.598 59.0257 141.279 67.4266C145.503 69.4334 149.476 71.962 153.127 74.8867C158.241 78.9803 162.905 83.9946 166.386 89.5648C169.287 94.2056 172.313 99.0118 177.956 100.454C187.603 102.917 197.545 94.3139 195.407 84.2825C194.852 81.6856 193.612 79.3794 192.116 77.2271V77.2243Z" fill="#3FB65B"/>
<path d="M57.5656 170.646C58.78 172.393 60.165 174.038 61.4904 175.66C64.2377 179.021 67.332 182.097 70.6708 184.865C86.1309 197.673 106.861 202.681 126.618 201.239C140.329 200.238 154.103 196.259 165.456 188.32C179.5 178.499 189.411 164.26 194.801 148.029C195.111 147.091 195.333 146.096 195.697 145.181C193.987 149.48 191.408 153.545 188.743 157.293C182.631 165.896 174.736 173.291 165.442 178.322C148.332 187.587 126.081 188.847 108.4 180.446C104.176 178.439 100.203 175.911 96.5514 172.986C91.4379 168.893 86.7737 163.878 83.2926 158.308C80.3917 153.667 77.3657 148.861 71.7231 147.419C62.0762 144.956 52.1335 153.559 54.2722 163.59C54.8268 166.187 56.0668 168.493 57.5628 170.646H57.5656Z" fill="#214694"/>
</g>
</g>
<defs>
<filter id="filter0_d_17_10" x="0.0652466" y="0" width="248.616" height="248.671" filterUnits="userSpaceOnUse" color-interpolation-filters="sRGB">
<feFlood flood-opacity="0" result="BackgroundImageFix"/>
<feColorMatrix in="SourceAlpha" type="matrix" values="0 0 0 0 0 0 0 0 0 0 0 0 0 0 0 0 0 0 127 0" result="hardAlpha"/>
<feOffset/>
<feGaussianBlur stdDeviation="12.5"/>
<feComposite in2="hardAlpha" operator="out"/>
<feColorMatrix type="matrix" values="0 0 0 0 0 0 0 0 0 0 0 0 0 0 0 0 0 0 0.05 0"/>
<feBlend mode="normal" in2="BackgroundImageFix" result="effect1_dropShadow_17_10"/>
<feBlend mode="normal" in="SourceGraphic" in2="effect1_dropShadow_17_10" result="shape"/>
</filter>
<clipPath id="clip0_17_10">
<rect width="141.717" height="155.087" fill="white" transform="translate(53.9822 46.3914)"/>
</clipPath>
</defs>
</svg>
