<svg width="328" height="328" viewBox="0 0 328 328" fill="none" xmlns="http://www.w3.org/2000/svg">
<path d="M328 250.854H0V251.018H328V250.854Z" fill="#F1F1F1"/>
<path d="M63.4877 254.817H56.6128V254.981H63.4877V254.817Z" fill="#F1F1F1"/>
<path d="M296.46 259.12H270.272V259.284H296.46V259.12Z" fill="#F1F1F1"/>
<path d="M276.937 254.895H256.824V255.059H276.937V254.895Z" fill="#F1F1F1"/>
<path d="M218.232 258.635H185.55V258.799H218.232V258.635Z" fill="#F1F1F1"/>
<path d="M128.209 257.598H93.808V257.762H128.209V257.598Z" fill="#F1F1F1"/>
<path d="M258.398 259.12H249.687V259.284H258.398V259.12Z" fill="#F1F1F1"/>
<path d="M53.3984 257.519H42.5941V257.683H53.3984V257.519Z" fill="#F1F1F1"/>
<path d="M155.472 221.597H28.8049C27.8126 221.595 26.8616 221.2 26.1605 220.497C25.4595 219.795 25.0657 218.843 25.0657 217.851V39.793C25.0744 38.8064 25.4719 37.8631 26.172 37.1679C26.8722 36.4727 27.8183 36.0818 28.8049 36.0801H155.472C156.465 36.0801 157.418 36.4747 158.121 37.1772C158.823 37.8797 159.218 38.8324 159.218 39.8258V217.851C159.218 218.845 158.823 219.797 158.121 220.5C157.418 221.202 156.465 221.597 155.472 221.597ZM28.8049 36.2113C27.8561 36.213 26.9468 36.5911 26.2765 37.2627C25.6062 37.9342 25.2297 38.8442 25.2297 39.793V217.851C25.2297 218.8 25.6062 219.71 26.2765 220.381C26.9468 221.053 27.8561 221.431 28.8049 221.433H155.472C156.421 221.431 157.331 221.053 158.003 220.382C158.674 219.711 159.052 218.801 159.054 217.851V39.793C159.052 38.8436 158.674 37.9336 158.003 37.2623C157.331 36.5909 156.421 36.213 155.472 36.2113H28.8049Z" fill="#F1F1F1"/>
<path d="M297.371 221.597H170.698C169.705 221.595 168.753 221.2 168.051 220.498C167.349 219.796 166.954 218.844 166.952 217.851V39.793C166.962 38.8058 167.361 37.8625 168.063 37.1675C168.764 36.4724 169.711 36.0817 170.698 36.0801H297.371C298.357 36.0835 299.301 36.4752 300 37.1702C300.699 37.8652 301.095 38.8076 301.104 39.793V217.851C301.104 218.842 300.711 219.793 300.012 220.495C299.312 221.197 298.363 221.593 297.371 221.597ZM170.698 36.2113C169.748 36.213 168.838 36.5909 168.167 37.2623C167.496 37.9336 167.118 38.8436 167.116 39.793V217.851C167.118 218.801 167.496 219.711 168.167 220.382C168.838 221.053 169.748 221.431 170.698 221.433H297.371C298.321 221.431 299.231 221.053 299.902 220.382C300.573 219.711 300.951 218.801 300.953 217.851V39.793C300.951 38.8436 300.573 37.9336 299.902 37.2623C299.231 36.5909 298.321 36.213 297.371 36.2113H170.698Z" fill="#F1F1F1"/>
<path d="M45.3165 188.738H144.176L144.176 51.9946H45.3165L45.3165 188.738Z" fill="#F1F1F1"/>
<path d="M43.1189 188.738H141.978L141.978 51.9946H43.1189L43.1189 188.738Z" fill="white"/>
<path d="M138.036 184.749V55.9832L47.0614 55.9832L47.0614 184.749H138.036Z" fill="#D9D9D9"/>
<path d="M82.0853 184.756L82.0853 55.9897H76.1419L76.1419 184.756H82.0853Z" fill="#F1F1F1"/>
<path d="M113.35 184.756L113.35 55.9897H107.407L107.407 184.756H113.35Z" fill="#F1F1F1"/>
<path d="M79.9926 187.282L79.9926 53.0181H74.0493L74.0493 187.282H79.9926Z" fill="white"/>
<path d="M111.264 187.288L111.264 53.0247H105.321L105.321 187.288H111.264Z" fill="white"/>
<path d="M48.7211 184.749L48.7211 55.9832H47.0615L47.0615 184.749H48.7211Z" fill="#F1F1F1"/>
<path d="M41.4658 46.8713H147.22C147.354 46.8713 147.483 46.9243 147.579 47.0189C147.675 47.1134 147.729 47.2419 147.731 47.3765C147.731 47.5122 147.677 47.6423 147.581 47.7383C147.485 47.8342 147.355 47.8881 147.22 47.8881H41.4658C41.3301 47.8881 41.1999 47.8342 41.104 47.7383C41.008 47.6423 40.9541 47.5122 40.9541 47.3765C40.9558 47.2419 41.0105 47.1134 41.1063 47.0189C41.202 46.9243 41.3312 46.8713 41.4658 46.8713Z" fill="#F1F1F1"/>
<path d="M38.4154 47.3764C38.4141 47.8803 38.5624 48.3733 38.8416 48.7929C39.1208 49.2125 39.5182 49.5397 39.9836 49.7332C40.4489 49.9267 40.9612 49.9776 41.4556 49.8796C41.9499 49.7816 42.4041 49.5391 42.7604 49.1827C43.1168 48.8264 43.3593 48.3722 43.4573 47.8779C43.5553 47.3835 43.5044 46.8712 43.3109 46.4059C43.1174 45.9405 42.7902 45.5431 42.3706 45.2639C41.951 44.9847 41.458 44.8364 40.9541 44.8377C40.2813 44.8394 39.6366 45.1074 39.1608 45.5831C38.6851 46.0589 38.4171 46.7036 38.4154 47.3764Z" fill="#F1F1F1"/>
<path d="M142.929 50.2235C143.018 50.228 143.107 50.2143 143.19 50.1833C143.274 50.1523 143.35 50.1047 143.415 50.0434C143.479 49.982 143.53 49.9082 143.565 49.8264C143.6 49.7446 143.618 49.6565 143.618 49.5675V48.0653C143.618 47.9763 143.6 47.8882 143.565 47.8064C143.53 47.7246 143.479 47.6508 143.415 47.5894C143.35 47.528 143.274 47.4804 143.19 47.4495C143.107 47.4185 143.018 47.4048 142.929 47.4093C142.755 47.4093 142.588 47.4784 142.465 47.6014C142.342 47.7244 142.273 47.8913 142.273 48.0653V49.5413C142.27 49.6296 142.284 49.7177 142.315 49.8004C142.347 49.883 142.395 49.9585 142.456 50.0222C142.517 50.0859 142.591 50.1366 142.672 50.1712C142.753 50.2058 142.841 50.2236 142.929 50.2235Z" fill="#F1F1F1"/>
<path d="M49.1344 50.2235C49.3084 50.2235 49.4753 50.1544 49.5983 50.0314C49.7213 49.9083 49.7904 49.7415 49.7904 49.5675V48.0653C49.7904 47.8913 49.7213 47.7244 49.5983 47.6014C49.4753 47.4784 49.3084 47.4093 49.1344 47.4093C49.0456 47.4048 48.9567 47.4185 48.8733 47.4495C48.7899 47.4804 48.7136 47.528 48.6492 47.5894C48.5848 47.6508 48.5335 47.7246 48.4985 47.8064C48.4635 47.8882 48.4455 47.9763 48.4456 48.0653V49.5413C48.4419 49.6324 48.4572 49.7234 48.4905 49.8083C48.5239 49.8932 48.5746 49.9702 48.6394 50.0344C48.7043 50.0986 48.7818 50.1486 48.867 50.1812C48.9522 50.2137 49.0433 50.2281 49.1344 50.2235Z" fill="#F1F1F1"/>
<path opacity="0.4" d="M41.6298 113.632L140.417 113.632V47.3763L41.6298 47.3763L41.6298 113.632Z" fill="#F1F1F1"/>
<path d="M132.21 47.3764C132.209 47.8801 132.357 48.3728 132.636 48.7922C132.915 49.2117 133.312 49.5389 133.777 49.7326C134.242 49.9262 134.754 49.9776 135.248 49.8801C135.742 49.7826 136.196 49.5407 136.553 49.185C136.91 48.8293 137.153 48.3758 137.251 47.8819C137.35 47.388 137.3 46.8759 137.108 46.4104C136.915 45.9449 136.589 45.547 136.17 45.2671C135.752 44.9871 135.259 44.8376 134.755 44.8376C134.082 44.8376 133.435 45.1049 132.958 45.5808C132.481 46.0567 132.212 46.7025 132.21 47.3764Z" fill="#F1F1F1"/>
<path d="M207.08 137.209C207.08 137.209 215.66 122.423 203.76 110.654C203.76 110.654 200.657 112.681 200.703 115.403C200.749 118.126 204.029 118.808 203.327 121.084C202.625 123.361 199.529 125.578 201.563 127.461C203.596 129.344 201.235 131.003 201.372 133.306C201.51 135.608 207.08 137.209 207.08 137.209Z" fill="#F1F1F1"/>
<path d="M205.735 139.63C205.735 139.63 202.258 122.889 217.261 115.476C217.261 115.476 219.57 118.375 218.671 120.94C217.772 123.505 214.44 123.131 214.387 125.532C214.335 127.933 216.578 131.003 214.059 132.145C211.54 133.286 213.246 135.615 212.393 137.754C211.54 139.892 205.735 139.63 205.735 139.63Z" fill="#D9D9D9"/>
<path d="M216.67 130.498C216.67 130.498 216.46 150.762 208.365 150.762C200.27 150.762 200.08 130.498 200.08 130.498H216.67Z" fill="white"/>
<path d="M265.345 143.139C265.345 143.139 264.893 150.762 247.594 150.762C230.295 150.762 229.843 143.139 229.843 143.139H265.345Z" fill="#D9D9D9"/>
<path d="M88.829 227.921H97.9605C99.0981 227.921 100.02 226.998 100.02 225.861V210.76C100.02 209.622 99.0981 208.7 97.9605 208.7H88.829C87.6913 208.7 86.7691 209.622 86.7691 210.76V225.861C86.7691 226.998 87.6913 227.921 88.829 227.921Z" fill="white"/>
<path d="M64.616 227.914H70.7627C71.5271 227.914 72.1469 227.294 72.1469 226.53V216.362C72.1469 215.597 71.5271 214.978 70.7627 214.978H64.616C63.8515 214.978 63.2318 215.597 63.2318 216.362V226.53C63.2318 227.294 63.8515 227.914 64.616 227.914Z" fill="#D9D9D9"/>
<path d="M63.6976 215.181H71.6811C71.9383 215.181 72.1469 214.973 72.1469 214.715V214.191C72.1469 213.933 71.9383 213.725 71.6811 213.725H63.6976C63.4403 213.725 63.2318 213.933 63.2318 214.191V214.715C63.2318 214.973 63.4403 215.181 63.6976 215.181Z" fill="white"/>
<path d="M121.157 217.221C121.157 217.221 120.829 227.914 108.306 227.914C95.7826 227.914 95.4546 217.221 95.4546 217.221H121.157Z" fill="#D9D9D9"/>
<path d="M152.304 227.914H133.352V231.653H152.304V227.914Z" fill="#F1F1F1"/>
<path d="M39.1304 231.66H133.352V227.921H39.1304V231.66Z" fill="white"/>
<path d="M152.304 237.892H133.352V241.631H152.304V237.892Z" fill="#F1F1F1"/>
<path d="M39.1304 241.631H133.352V237.892H39.1304V241.631Z" fill="white"/>
<path d="M145.475 250.854H148.971V231.653H145.475V250.854Z" fill="#F1F1F1"/>
<path d="M129.855 250.854H133.352V231.653H129.855V250.854Z" fill="white"/>
<path d="M51.2533 250.854H54.7498V231.653H51.2533V250.854Z" fill="#F1F1F1"/>
<path d="M39.1369 250.854H42.6334V231.653H39.1369V250.854Z" fill="white"/>
<path d="M265.345 245.928H283.267V155.512H265.345V245.928Z" fill="#D9D9D9"/>
<path d="M191.447 250.854H279.823V245.928H191.447V250.854Z" fill="#D9D9D9"/>
<path d="M265.345 155.518H188.01V245.935H265.345V155.518Z" fill="white"/>
<path d="M258.3 190.299H195.055V211.14H258.3V190.299Z" fill="#D9D9D9"/>
<path d="M258.3 215.791H195.055V236.632H258.3V215.791Z" fill="#D9D9D9"/>
<path d="M219.576 193.094H233.779C234.241 193.092 234.684 192.908 235.011 192.581C235.338 192.254 235.522 191.811 235.524 191.349C235.524 190.885 235.34 190.441 235.013 190.112C234.686 189.784 234.242 189.599 233.779 189.597H219.576C219.113 189.599 218.669 189.784 218.342 190.112C218.015 190.441 217.831 190.885 217.831 191.349C217.833 191.811 218.017 192.254 218.344 192.581C218.671 192.908 219.114 193.092 219.576 193.094Z" fill="white"/>
<path d="M258.3 164.813H195.055V185.655H258.3V164.813Z" fill="#D9D9D9"/>
<path d="M219.576 167.608H233.779C234.242 167.606 234.686 167.421 235.013 167.093C235.34 166.764 235.524 166.32 235.524 165.857C235.522 165.394 235.338 164.951 235.011 164.625C234.684 164.298 234.241 164.113 233.779 164.112H219.576C219.114 164.113 218.671 164.298 218.344 164.625C218.017 164.951 217.833 165.394 217.831 165.857C217.831 166.32 218.015 166.764 218.342 167.093C218.669 167.421 219.113 167.606 219.576 167.608Z" fill="white"/>
<path d="M219.576 218.586H233.779C234.242 218.584 234.686 218.399 235.013 218.071C235.34 217.742 235.524 217.298 235.524 216.834C235.522 216.372 235.338 215.929 235.011 215.602C234.684 215.275 234.241 215.091 233.779 215.089H219.576C219.114 215.091 218.671 215.275 218.344 215.602C218.017 215.929 217.833 216.372 217.831 216.834C217.831 217.298 218.015 217.742 218.342 218.071C218.669 218.399 219.113 218.584 219.576 218.586Z" fill="white"/>
<path d="M185.622 155.511H265.345V150.755H185.622V155.511Z" fill="#D9D9D9"/>
<path d="M285.773 150.762H265.345V155.518H285.773V150.762Z" fill="#F1F1F1"/>
<path d="M236.908 107.099H273.44V65.6525H236.908V107.099Z" fill="#D9D9D9"/>
<path d="M232.814 107.099H271.8V65.6525H232.814V107.099Z" fill="white"/>
<path d="M268.54 103.832V68.9194H236.088V103.832H268.54Z" fill="#D9D9D9"/>
<path d="M260.675 95.3693V77.3818H243.953V95.3693H260.675Z" fill="white"/>
<path d="M197.115 84.1648H224.529V53.4181H197.115V84.1648Z" fill="#D9D9D9"/>
<path d="M194.078 84.1648H223.001V53.4181H194.078V84.1648Z" fill="white"/>
<path d="M220.573 81.7378V55.8389H196.498V81.7378H220.573Z" fill="#D9D9D9"/>
<path d="M208.536 62.2478L215.122 73.6491H201.956L208.536 62.2478Z" fill="white"/>
<path d="M164 280.479C234.246 280.479 291.192 277.155 291.192 273.053C291.192 268.952 234.246 265.628 164 265.628C93.7539 265.628 36.8082 268.952 36.8082 273.053C36.8082 277.155 93.7539 280.479 164 280.479Z" fill="#DDDDDD"/>
<path d="M256.817 107.774H202.199C200.076 107.774 198.039 108.616 196.535 110.115C195.031 111.614 194.183 113.648 194.176 115.771V145.33C194.183 147.45 195.029 149.481 196.528 150.979C198.028 152.478 200.059 153.322 202.179 153.327H207.709L205.577 162.032C208.7 161.747 211.731 160.83 214.488 159.335C217.244 157.841 219.667 155.801 221.61 153.34H256.817C258.937 153.335 260.969 152.491 262.469 150.992C263.968 149.494 264.814 147.463 264.821 145.343V115.771C264.814 113.651 263.968 111.62 262.469 110.122C260.969 108.623 258.937 107.779 256.817 107.774Z" fill="url(#paint0_linear_620_1037)"/>
<path opacity="0.3" d="M256.817 107.774H202.199C200.076 107.774 198.039 108.616 196.535 110.115C195.031 111.614 194.183 113.648 194.176 115.771V145.33C194.183 147.45 195.029 149.481 196.528 150.979C198.028 152.478 200.059 153.322 202.179 153.327H207.709L205.577 162.032C208.7 161.747 211.731 160.83 214.488 159.335C217.244 157.841 219.667 155.801 221.61 153.34H256.817C258.937 153.335 260.969 152.491 262.469 150.992C263.968 149.494 264.814 147.463 264.821 145.343V115.771C264.814 113.651 263.968 111.62 262.469 110.122C260.969 108.623 258.937 107.779 256.817 107.774Z" fill="black"/>
<path d="M250.382 137.307C254.114 137.307 257.139 134.282 257.139 130.55C257.139 126.819 254.114 123.794 250.382 123.794C246.65 123.794 243.625 126.819 243.625 130.55C243.625 134.282 246.65 137.307 250.382 137.307Z" fill="url(#paint1_linear_620_1037)"/>
<path d="M229.508 137.307C233.24 137.307 236.265 134.282 236.265 130.55C236.265 126.819 233.24 123.794 229.508 123.794C225.776 123.794 222.751 126.819 222.751 130.55C222.751 134.282 225.776 137.307 229.508 137.307Z" fill="url(#paint2_linear_620_1037)"/>
<path d="M208.641 137.307C212.373 137.307 215.398 134.282 215.398 130.55C215.398 126.819 212.373 123.794 208.641 123.794C204.909 123.794 201.884 126.819 201.884 130.55C201.884 134.282 204.909 137.307 208.641 137.307Z" fill="url(#paint3_linear_620_1037)"/>
<g opacity="0.1">
<path d="M250.382 137.307C254.114 137.307 257.139 134.282 257.139 130.55C257.139 126.819 254.114 123.794 250.382 123.794C246.65 123.794 243.625 126.819 243.625 130.55C243.625 134.282 246.65 137.307 250.382 137.307Z" fill="#D9D9D9"/>
<path d="M229.508 137.307C233.24 137.307 236.265 134.282 236.265 130.55C236.265 126.819 233.24 123.794 229.508 123.794C225.777 123.794 222.751 126.819 222.751 130.55C222.751 134.282 225.777 137.307 229.508 137.307Z" fill="#D9D9D9"/>
<path d="M208.641 137.307C212.373 137.307 215.398 134.282 215.398 130.55C215.398 126.819 212.373 123.794 208.641 123.794C204.909 123.794 201.884 126.819 201.884 130.55C201.884 134.282 204.909 137.307 208.641 137.307Z" fill="#D9D9D9"/>
</g>
<path d="M122.888 65.3311H177.514C179.634 65.338 181.666 66.1834 183.165 67.6828C184.664 69.1822 185.51 71.2138 185.517 73.3343V102.887C185.503 105.003 184.655 107.028 183.156 108.522C181.657 110.015 179.63 110.857 177.514 110.864H171.984L174.135 119.549C171.012 119.266 167.98 118.349 165.223 116.856C162.465 115.363 160.04 113.324 158.096 110.864H122.888C120.769 110.857 118.738 110.011 117.239 108.512C115.741 107.012 114.897 104.981 114.892 102.861V73.3408C114.895 71.2198 115.738 69.1865 117.237 67.6855C118.736 66.1845 120.768 65.338 122.888 65.3311Z" fill="url(#paint4_linear_620_1037)"/>
<path opacity="0.1" d="M122.888 65.3311H177.514C179.634 65.338 181.666 66.1834 183.165 67.6828C184.664 69.1822 185.51 71.2138 185.517 73.3343V102.887C185.503 105.003 184.655 107.028 183.156 108.522C181.657 110.015 179.63 110.857 177.514 110.864H171.984L174.135 119.549C171.012 119.266 167.98 118.349 165.223 116.856C162.465 115.363 160.04 113.324 158.096 110.864H122.888C120.769 110.857 118.738 110.011 117.239 108.512C115.741 107.012 114.897 104.981 114.892 102.861V73.3408C114.895 71.2198 115.738 69.1865 117.237 67.6855C118.736 66.1845 120.768 65.338 122.888 65.3311Z" fill="#D9D9D9"/>
<path d="M175.841 75.6238H124.561V80.4782H175.841V75.6238Z" fill="url(#paint5_linear_620_1037)"/>
<path d="M164.112 85.6802H124.561V90.5346H164.112V85.6802Z" fill="url(#paint6_linear_620_1037)"/>
<path d="M169.274 95.7432H124.561V100.598H169.274V95.7432Z" fill="url(#paint7_linear_620_1037)"/>
<g opacity="0.3">
<path d="M175.841 75.6238H124.561V80.4782H175.841V75.6238Z" fill="black"/>
<path d="M164.112 85.6802H124.561V90.5346H164.112V85.6802Z" fill="black"/>
<path d="M169.274 95.7434H124.561V100.598H169.274V95.7434Z" fill="black"/>
</g>
<path d="M195.521 204.219C195.16 204.219 194.793 204.219 194.419 204.252C186.625 204.81 180.321 211.409 179.823 219.53C179.712 221.323 179.883 223.123 180.328 224.864C182.048 231.849 182.877 239.023 182.794 246.216V267.208C182.78 267.921 183.048 268.61 183.539 269.126C184.031 269.642 184.706 269.943 185.418 269.964H237.472V204.219H195.521Z" fill="url(#paint8_linear_620_1037)"/>
<path opacity="0.3" d="M195.521 204.219C195.16 204.219 194.793 204.219 194.419 204.252C186.625 204.81 180.321 211.409 179.823 219.53C179.712 221.323 179.883 223.123 180.328 224.864C182.048 231.849 182.877 239.023 182.794 246.216V267.208C182.78 267.921 183.048 268.61 183.539 269.126C184.031 269.642 184.706 269.943 185.418 269.964H237.472V204.219H195.521Z" fill="black"/>
<path d="M253.216 220.606C253.216 211.179 245.574 203.603 236.383 204.259C228.59 204.816 222.286 211.416 221.787 219.537C221.676 221.33 221.847 223.13 222.292 224.87C224.012 231.855 224.841 239.03 224.759 246.223V267.215C224.745 267.927 225.012 268.617 225.504 269.132C225.995 269.648 226.67 269.95 227.383 269.97H247.555C248.268 269.951 248.944 269.651 249.436 269.134C249.927 268.618 250.195 267.928 250.179 267.215V244.99C250.135 238.25 250.969 231.533 252.658 225.008C253.034 223.571 253.221 222.091 253.216 220.606Z" fill="url(#paint9_linear_620_1037)"/>
<path d="M215.811 230.033H149.45V269.931H215.811V230.033Z" fill="url(#paint10_linear_620_1037)"/>
<path opacity="0.3" d="M215.811 230.033H149.45V269.931H215.811V230.033Z" fill="black"/>
<path d="M114.223 182.243H187.498C190.72 182.243 193.81 183.523 196.089 185.802C198.367 188.08 199.647 191.17 199.647 194.393V239.053H102.067V194.393C102.067 192.797 102.381 191.216 102.992 189.742C103.603 188.267 104.499 186.928 105.628 185.799C106.757 184.671 108.097 183.776 109.571 183.166C111.046 182.556 112.627 182.243 114.223 182.243Z" fill="url(#paint11_linear_620_1037)"/>
<path opacity="0.4" d="M114.223 182.243H187.498C190.72 182.243 193.81 183.523 196.089 185.802C198.367 188.08 199.647 191.17 199.647 194.393V239.053H102.067V194.393C102.067 192.797 102.381 191.216 102.992 189.742C103.603 188.267 104.499 186.928 105.628 185.799C106.757 184.671 108.097 183.776 109.571 183.166C111.046 182.556 112.627 182.243 114.223 182.243Z" fill="black"/>
<path d="M128.628 182.243H191.263C194.331 182.243 197.272 183.462 199.441 185.631C201.61 187.8 202.829 190.741 202.829 193.809V239.073H117.063V193.809C117.063 192.29 117.362 190.786 117.944 189.383C118.525 187.98 119.377 186.705 120.451 185.631C121.525 184.557 122.799 183.705 124.203 183.124C125.606 182.543 127.11 182.243 128.628 182.243Z" fill="url(#paint12_linear_620_1037)"/>
<path d="M153.242 225.88H214.952C215.901 225.88 216.812 226.258 217.484 226.929C218.156 227.601 218.533 228.512 218.533 229.462V239.059C218.533 240.009 218.156 240.92 217.484 241.592C216.812 242.264 215.901 242.641 214.952 242.641H153.242C152.958 242.641 152.686 242.529 152.486 242.328C152.285 242.127 152.172 241.855 152.172 241.572V226.976C152.169 226.833 152.194 226.691 152.246 226.559C152.298 226.426 152.376 226.305 152.476 226.203C152.576 226.101 152.695 226.02 152.826 225.964C152.958 225.909 153.099 225.88 153.242 225.88Z" fill="url(#paint13_linear_620_1037)"/>
<path opacity="0.4" d="M153.242 225.88H214.952C215.901 225.88 216.812 226.258 217.484 226.929C218.156 227.601 218.533 228.512 218.533 229.462V239.059C218.533 240.009 218.156 240.92 217.484 241.592C216.812 242.264 215.901 242.641 214.952 242.641H153.242C152.958 242.641 152.686 242.529 152.486 242.328C152.285 242.127 152.172 241.855 152.172 241.572V226.976C152.169 226.833 152.194 226.691 152.246 226.559C152.298 226.426 152.376 226.305 152.476 226.203C152.576 226.101 152.695 226.02 152.826 225.964C152.958 225.909 153.099 225.88 153.242 225.88Z" fill="black"/>
<path d="M95.6251 269.937H238.285V269.977C238.285 270.499 238.078 270.999 237.709 271.368C237.34 271.737 236.839 271.945 236.317 271.945H97.58C97.0581 271.945 96.5575 271.737 96.1884 271.368C95.8193 270.999 95.612 270.499 95.612 269.977V269.937H95.6251Z" fill="url(#paint14_linear_620_1037)"/>
<path opacity="0.4" d="M95.6251 269.937H238.285V269.977C238.285 270.499 238.078 270.999 237.709 271.368C237.34 271.737 236.839 271.945 236.317 271.945H97.58C97.0581 271.945 96.5575 271.737 96.1884 271.368C95.8193 270.999 95.612 270.499 95.612 269.977V269.937H95.6251Z" fill="black"/>
<path d="M180.872 175.637L181.135 176.707L181.436 177.868C181.646 178.642 181.869 179.423 182.092 180.197C182.558 181.758 183.063 183.319 183.588 184.874C184.113 186.429 184.657 187.99 185.248 189.532C185.543 190.306 185.832 191.08 186.133 191.847L186.494 192.772C186.566 192.932 186.661 193.08 186.776 193.212C187.65 194.098 188.717 194.771 189.892 195.18C191.335 195.752 192.82 196.213 194.333 196.557C195.895 196.918 197.502 197.213 199.129 197.469C200.756 197.725 202.409 197.928 204.023 198.125L204.082 201.438C200.569 201.79 197.029 201.774 193.52 201.392C191.681 201.207 189.863 200.853 188.088 200.336C187.128 200.049 186.193 199.683 185.294 199.24C184.259 198.738 183.311 198.074 182.486 197.272C182.008 196.799 181.594 196.265 181.253 195.685C181.161 195.534 181.082 195.37 180.997 195.206L180.84 194.878L180.551 194.294C180.17 193.513 179.79 192.726 179.436 191.932C178.721 190.345 178.032 188.751 177.409 187.117C176.785 185.484 176.188 183.837 175.657 182.152C175.401 181.305 175.159 180.459 174.929 179.593L174.594 178.281C174.489 177.822 174.404 177.428 174.299 176.877L180.872 175.637Z" fill="#ED893E"/>
<path d="M178.78 168.664C181.404 169.32 183.267 180.203 183.267 180.203L175.992 185.149C175.992 185.149 169.012 174.188 171.045 171.288C173.184 168.264 174.922 167.687 178.78 168.664Z" fill="url(#paint15_linear_620_1037)"/>
<path opacity="0.5" d="M178.78 168.664C181.404 169.32 183.267 180.203 183.267 180.203L175.992 185.149C175.992 185.149 169.012 174.188 171.045 171.288C173.184 168.264 174.922 167.687 178.78 168.664Z" fill="#D9D9D9"/>
<path d="M179.016 172.613L173.368 173.925L172.823 179.449C173.782 181.402 174.839 183.304 175.992 185.149L180.4 182.152C180.216 179.613 179.744 174.332 179.016 172.613Z" fill="url(#paint16_linear_620_1037)"/>
<path opacity="0.3" d="M179.016 172.613L173.368 173.925L172.823 179.449C173.782 181.402 174.839 183.304 175.992 185.149L180.4 182.152C180.216 179.613 179.744 174.332 179.016 172.613Z" fill="#D9D9D9"/>
<path d="M203.091 198.066L207.637 193.474L208.234 199.962C208.234 199.962 204.823 202.265 202.468 201.025L203.091 198.066Z" fill="#ED893E"/>
<path d="M212.977 192.772L213.18 198.23L208.234 199.949L207.637 193.461L212.977 192.772Z" fill="#ED893E"/>
<path d="M178.78 168.664C178.78 168.664 181.83 169.74 175.716 207.329H149.699C150.139 196.741 150.152 190.207 145.107 168.48C148.741 167.729 152.424 167.242 156.128 167.024C160.059 166.742 164.005 166.742 167.936 167.024C173.027 167.49 178.78 168.664 178.78 168.664Z" fill="url(#paint17_linear_620_1037)"/>
<path opacity="0.5" d="M178.78 168.664C178.78 168.664 181.83 169.74 175.716 207.329H149.699C150.139 196.741 150.152 190.207 145.107 168.48C148.741 167.729 152.424 167.242 156.128 167.024C160.059 166.742 164.005 166.742 167.936 167.024C173.027 167.49 178.78 168.664 178.78 168.664Z" fill="#D9D9D9"/>
<path d="M170.967 167.365C169.97 167.234 168.946 167.116 167.949 167.024C164.018 166.742 160.072 166.742 156.141 167.024C155.229 167.07 154.324 167.136 153.452 167.221L153.642 167.818C153.747 168.152 156.351 176.077 165.738 180.282L167.536 181.089L168.808 179.58C170.256 177.939 171.223 175.931 171.604 173.776C171.985 171.621 171.764 169.403 170.967 167.365Z" fill="url(#paint18_linear_620_1037)"/>
<path opacity="0.3" d="M170.967 167.365C169.97 167.234 168.946 167.116 167.949 167.024C164.018 166.742 160.072 166.742 156.141 167.024C155.229 167.07 154.324 167.136 153.452 167.221L153.642 167.818C153.747 168.152 156.351 176.077 165.738 180.282L167.536 181.089L168.808 179.58C170.256 177.939 171.223 175.931 171.604 173.776C171.985 171.621 171.764 169.403 170.967 167.365Z" fill="black"/>
<path d="M151.208 178.57L147.849 181.423C148.571 185.228 149.05 188.397 149.358 191.211C149.988 188.384 151.582 180.728 151.208 178.57Z" fill="url(#paint19_linear_620_1037)"/>
<path opacity="0.3" d="M151.208 178.57L147.849 181.423C148.571 185.228 149.05 188.397 149.358 191.211C149.988 188.384 151.582 180.728 151.208 178.57Z" fill="#D9D9D9"/>
<path d="M160.851 134.48C153.963 132.322 150.126 139.728 150.788 148.991C151.267 155.629 149.929 158.522 145.96 158.326C147.816 162.688 171.216 169.248 177.986 161.448C176.083 160.418 175.132 155.833 176.523 151.726C179.672 142.463 176.753 128.478 160.851 134.48Z" fill="#030311"/>
<path d="M157.309 153.72C158.05 157.525 158.798 164.485 156.135 167.024C156.135 167.024 158.385 174.116 166.801 177.888C168.071 176.406 168.859 174.573 169.062 172.633C169.265 170.692 168.872 168.736 167.936 167.024C163.698 166.014 163.81 162.865 164.544 159.913L157.309 153.72Z" fill="#ED893E"/>
<path d="M160.261 156.246L164.558 159.913C164.375 160.599 164.253 161.299 164.19 162.006C162.57 161.776 160.346 159.998 160.175 158.299C160.08 157.615 160.109 156.92 160.261 156.246Z" fill="#ED893E"/>
<path d="M157.663 143.087C156.174 149.266 155.413 151.851 157.519 155.905C160.687 161.999 168.605 162.465 171.911 156.869C174.89 151.818 176.825 142.562 171.629 138.324C170.488 137.384 169.125 136.752 167.67 136.487C166.216 136.223 164.718 136.334 163.318 136.811C161.919 137.288 160.665 138.116 159.675 139.214C158.685 140.312 157.993 141.645 157.663 143.087Z" fill="#ED893E"/>
<path d="M156.568 146.714C156.568 146.714 169.36 142.733 163.508 136.009C156.62 137.708 156.568 139.728 156.568 139.728V146.714Z" fill="#030311"/>
<path d="M164.321 139.839C169.136 140.338 173.925 143.172 175.473 145.743C176.366 141.368 173.23 135.903 169.74 135.136C166.25 134.368 162.032 136.008 162.032 136.008L164.321 139.839Z" fill="#030311"/>
<path d="M154.481 147.187C154.46 148.411 154.906 149.598 155.728 150.506C156.83 151.7 158.168 150.919 158.522 149.443C158.837 148.131 158.647 145.881 157.21 145.238C155.774 144.595 154.521 145.691 154.481 147.187Z" fill="#ED893E"/>
<path d="M208.549 212.419C194.025 212.216 184.507 222.187 184.507 222.187C185.897 226.221 186.776 229.252 186.776 229.252C194.734 227.842 203.773 227.219 211.225 225.428C217.956 223.807 218.73 215.686 218.041 212.308C217.353 208.929 213.535 208.149 209.795 207.06C205.525 205.833 197.371 205.8 191.526 205.84C185.359 205.872 177.258 206.456 173.059 207.342C173.059 207.342 164.144 207.06 157.545 207.224C153.688 206.673 155.957 212.275 162.045 217.018C165.201 219.425 168.813 221.165 172.661 222.134C176.51 223.102 180.515 223.279 184.434 222.653H184.48" fill="#030311"/>
<path d="M185.871 228.288L184.021 221.334C183.993 221.213 183.921 221.107 183.819 221.036C183.718 220.964 183.593 220.933 183.47 220.947L177.756 221.603C177.61 221.623 177.469 221.675 177.344 221.755C177.219 221.835 177.113 221.941 177.034 222.066C176.954 222.19 176.902 222.331 176.882 222.478C176.862 222.624 176.873 222.774 176.917 222.915C177.605 225.329 178.058 226.458 178.885 229.515C179.383 231.397 180.197 235.34 180.912 237.938C181.627 240.535 184.192 239.991 184.159 238.85C183.91 233.72 184.815 231.43 185.779 229.429C185.944 229.072 185.976 228.667 185.871 228.288Z" fill="#030311"/>
<path d="M186.639 232.388C186.487 232.387 186.338 232.341 186.212 232.257C185.445 231.758 185.222 229.928 185.156 228.885C185.154 228.863 185.159 228.84 185.17 228.821C185.182 228.802 185.199 228.787 185.219 228.779C185.24 228.77 185.262 228.768 185.284 228.773C185.306 228.778 185.325 228.789 185.34 228.806C185.556 229.042 187.459 231.155 187.255 232.007C187.237 232.082 187.199 232.15 187.146 232.205C187.093 232.26 187.027 232.301 186.953 232.322C186.854 232.366 186.747 232.388 186.639 232.388ZM185.392 229.187C185.523 230.702 185.864 231.771 186.33 232.073C186.411 232.127 186.503 232.159 186.599 232.169C186.695 232.178 186.792 232.163 186.881 232.125C186.921 232.114 186.957 232.092 186.986 232.062C187.015 232.032 187.035 231.995 187.045 231.955C187.183 231.397 186.042 229.934 185.392 229.187Z" fill="url(#paint20_linear_620_1037)"/>
<path d="M185.891 229.521L183.49 220.514L186.652 219.209L191.106 228.878L185.891 229.521Z" fill="url(#paint21_linear_620_1037)"/>
<path opacity="0.6" d="M185.891 229.521L183.49 220.514L186.652 219.209L191.106 228.878L185.891 229.521Z" fill="#D9D9D9"/>
<path d="M187.787 230.433C187.019 230.433 185.641 229.508 185.163 228.944C185.154 228.928 185.15 228.91 185.15 228.891C185.15 228.873 185.154 228.855 185.163 228.839C185.17 228.822 185.18 228.807 185.194 228.794C185.207 228.782 185.224 228.772 185.241 228.767C185.313 228.767 186.999 228.459 187.865 229.055C187.987 229.136 188.09 229.241 188.168 229.365C188.246 229.488 188.297 229.626 188.318 229.771C188.384 230.158 188.22 230.322 188.075 230.381C187.986 230.424 187.886 230.442 187.787 230.433ZM185.477 228.944C186.133 229.6 187.524 230.374 187.964 230.184C188.003 230.184 188.128 230.105 188.082 229.797C188.065 229.681 188.023 229.57 187.96 229.472C187.897 229.373 187.813 229.289 187.714 229.226C187.104 228.8 185.937 228.891 185.477 228.944Z" fill="url(#paint22_linear_620_1037)"/>
<path d="M154.678 207.677C146.603 206.64 134.657 206.24 133.975 214.656C133.293 223.073 139.098 231.712 154.888 232.178C170.678 232.644 174.089 228.675 174.653 225.29C175.375 221.013 176.621 219.924 172.849 217.989C169.077 216.054 168.382 209.428 154.678 207.677Z" fill="#030311"/>
<path d="M171.76 229.725L169.904 222.771C169.868 222.652 169.878 222.523 169.931 222.411C169.985 222.298 170.078 222.209 170.193 222.161L175.487 219.904C175.621 219.852 175.766 219.83 175.91 219.837C176.054 219.845 176.195 219.882 176.324 219.948C176.452 220.014 176.566 220.105 176.657 220.218C176.748 220.33 176.814 220.46 176.851 220.6C177.455 223.04 177.625 224.247 178.439 227.304C178.937 229.187 180.17 233.024 180.866 235.622C181.561 238.22 179.022 239.046 178.504 238.023C176.169 233.431 174.22 231.922 172.41 230.656C172.091 230.431 171.862 230.101 171.76 229.725Z" fill="#030311"/>
<path d="M172.738 233.779C172.678 233.78 172.618 233.768 172.562 233.744C172.507 233.721 172.457 233.685 172.416 233.641C171.813 232.985 172.416 230.23 172.482 229.915C172.486 229.893 172.497 229.872 172.514 229.857C172.53 229.842 172.551 229.832 172.574 229.83C172.595 229.826 172.617 229.831 172.636 229.841C172.655 229.852 172.67 229.869 172.679 229.889C173.145 230.827 173.86 232.513 173.44 233.339C173.382 233.456 173.295 233.557 173.189 233.632C173.083 233.708 172.959 233.756 172.83 233.772L172.738 233.779ZM172.626 230.269C172.436 231.247 172.174 233.077 172.567 233.49C172.596 233.522 172.632 233.545 172.672 233.558C172.713 233.57 172.756 233.572 172.797 233.562C172.893 233.55 172.984 233.514 173.063 233.458C173.142 233.402 173.206 233.327 173.25 233.241C173.597 232.565 172.974 231.03 172.626 230.256V230.269Z" fill="url(#paint23_linear_620_1037)"/>
<path d="M170.875 232.631C170.717 232.631 170.527 232.552 170.403 232.217C170.351 232.081 170.327 231.936 170.333 231.791C170.338 231.646 170.373 231.503 170.435 231.371C170.868 230.44 172.482 229.856 172.548 229.836C172.563 229.826 172.582 229.821 172.6 229.821C172.619 229.821 172.637 229.826 172.653 229.836C172.669 229.847 172.681 229.862 172.688 229.879C172.695 229.897 172.696 229.916 172.692 229.935C172.554 230.748 171.629 232.559 170.914 232.611L170.875 232.631ZM172.436 230.112C172.01 230.289 170.947 230.768 170.632 231.463C170.587 231.567 170.564 231.678 170.564 231.791C170.564 231.904 170.587 232.016 170.632 232.119C170.737 232.408 170.881 232.395 170.921 232.388C171.373 232.368 172.207 231.01 172.436 230.112Z" fill="url(#paint24_linear_620_1037)"/>
<path d="M172.056 229.639L170.547 221.203L166.86 221.065L167.142 231.804L172.056 229.639Z" fill="url(#paint25_linear_620_1037)"/>
<path opacity="0.6" d="M172.056 229.639L170.547 221.203L166.86 221.065L167.142 231.804L172.056 229.639Z" fill="#D9D9D9"/>
<path d="M166.342 147.6C166.191 148.092 166.342 148.571 166.657 148.676C166.972 148.781 167.365 148.453 167.516 147.961C167.667 147.469 167.516 146.983 167.201 146.885C166.886 146.787 166.499 147.114 166.342 147.6Z" fill="#030311"/>
<path d="M171.924 149.319C171.774 149.817 171.924 150.296 172.239 150.395C172.554 150.493 172.948 150.171 173.099 149.679C173.25 149.187 173.099 148.702 172.784 148.604C172.469 148.505 172.082 148.827 171.924 149.319Z" fill="#030311"/>
<path d="M172.633 148.591H173.945C173.945 148.591 173.033 149.352 172.633 148.591Z" fill="#030311"/>
<path d="M170.193 149.719C170.286 150.981 170.553 152.223 170.986 153.412C170.679 153.514 170.353 153.547 170.031 153.51C169.709 153.472 169.399 153.365 169.123 153.196L170.193 149.719Z" fill="#ED893E"/>
<path d="M166.362 154.278C166.355 154.281 166.349 154.283 166.342 154.283C166.335 154.283 166.328 154.281 166.322 154.278C165.326 153.743 164.576 152.842 164.23 151.766C164.226 151.754 164.224 151.741 164.225 151.728C164.227 151.716 164.23 151.703 164.237 151.692C164.243 151.681 164.251 151.671 164.261 151.664C164.271 151.656 164.283 151.651 164.295 151.648C164.32 151.641 164.345 151.645 164.367 151.657C164.389 151.669 164.406 151.689 164.413 151.713C164.749 152.728 165.45 153.582 166.381 154.108C166.4 154.118 166.414 154.135 166.423 154.154C166.431 154.174 166.433 154.196 166.428 154.217C166.423 154.238 166.411 154.256 166.394 154.27C166.377 154.283 166.357 154.291 166.335 154.291L166.362 154.278Z" fill="#030311"/>
<path d="M166.066 144.32C166.024 144.319 165.984 144.305 165.951 144.28C165.917 144.254 165.893 144.219 165.881 144.178C165.869 144.138 165.871 144.095 165.885 144.056C165.9 144.016 165.926 143.982 165.961 143.959C166.34 143.697 166.775 143.528 167.231 143.468C167.688 143.407 168.152 143.457 168.585 143.612C168.632 143.633 168.669 143.671 168.688 143.719C168.708 143.766 168.708 143.819 168.69 143.867C168.68 143.891 168.666 143.912 168.647 143.93C168.629 143.948 168.607 143.962 168.583 143.971C168.56 143.98 168.534 143.984 168.508 143.984C168.483 143.983 168.458 143.977 168.435 143.966C168.057 143.837 167.653 143.798 167.258 143.854C166.862 143.91 166.486 144.058 166.158 144.287C166.131 144.306 166.099 144.317 166.066 144.32Z" fill="#030311"/>
<path d="M175.46 147.639C175.425 147.639 175.39 147.63 175.36 147.611C175.33 147.593 175.306 147.566 175.29 147.534C175.11 147.178 174.848 146.869 174.527 146.632C174.206 146.395 173.833 146.237 173.44 146.17C173.414 146.168 173.389 146.161 173.366 146.15C173.343 146.138 173.323 146.122 173.307 146.103C173.29 146.083 173.278 146.06 173.27 146.036C173.263 146.011 173.26 145.985 173.263 145.96C173.269 145.91 173.295 145.865 173.334 145.833C173.373 145.801 173.422 145.786 173.473 145.789C173.932 145.857 174.369 146.035 174.745 146.308C175.121 146.581 175.425 146.941 175.631 147.357C175.654 147.403 175.659 147.455 175.645 147.504C175.63 147.553 175.597 147.595 175.552 147.62C175.523 147.632 175.492 147.639 175.46 147.639Z" fill="#030311"/>
<path d="M167.05 146.872H168.362C168.362 146.872 167.451 147.639 167.05 146.872Z" fill="#030311"/>
<path d="M149.312 205.8L149.102 208.129C149.01 208.313 149.227 208.496 149.529 208.496H175.847C176.077 208.496 176.274 208.378 176.287 208.234L176.523 205.905C176.523 205.741 176.339 205.603 176.077 205.603H149.732C149.651 205.597 149.57 205.611 149.496 205.646C149.422 205.68 149.359 205.734 149.312 205.8Z" fill="url(#paint26_linear_620_1037)"/>
<path opacity="0.3" d="M149.312 205.8L149.102 208.129C149.01 208.313 149.227 208.496 149.529 208.496H175.847C176.077 208.496 176.274 208.378 176.287 208.234L176.523 205.905C176.523 205.741 176.339 205.603 176.077 205.603H149.732C149.651 205.597 149.57 205.611 149.496 205.646C149.422 205.68 149.359 205.734 149.312 205.8Z" fill="black"/>
<path d="M152.848 208.746H152.146C152.002 208.746 151.897 208.674 151.903 208.588L152.238 205.558C152.238 205.472 152.369 205.4 152.507 205.4H153.215C153.353 205.4 153.465 205.472 153.452 205.558L153.124 208.588C153.11 208.674 152.992 208.746 152.848 208.746Z" fill="#030311"/>
<path d="M173.84 208.746H173.184C173.04 208.746 172.935 208.674 172.948 208.588L173.276 205.558C173.276 205.472 173.407 205.4 173.551 205.4H174.253C174.398 205.4 174.503 205.472 174.489 205.558L174.161 208.588C174.129 208.674 174.004 208.746 173.84 208.746Z" fill="#030311"/>
<path d="M163.344 208.746H162.636C162.498 208.746 162.386 208.674 162.399 208.588L162.727 205.558C162.727 205.472 162.865 205.4 163.003 205.4H163.711C163.849 205.4 163.954 205.472 163.948 205.558L163.613 208.588C163.62 208.674 163.495 208.746 163.344 208.746Z" fill="#030311"/>
<path d="M222.332 189.348H176.674L170.055 216.309H215.712L222.332 189.348Z" fill="#D9D9D9"/>
<path d="M199.201 211.284L171.275 217.799L153.353 212.774L153.537 211.284H199.201Z" fill="#D9D9D9"/>
<path d="M148.978 177.776C148.427 179.56 147.836 181.417 147.311 183.254C146.787 185.09 146.229 186.921 145.75 188.757C145.271 190.594 144.812 192.424 144.438 194.222C144.268 195.114 144.11 196.006 144.005 196.846C143.923 197.437 143.884 198.033 143.887 198.63C144.04 199.112 144.305 199.551 144.661 199.909C145.192 200.489 145.784 201.01 146.426 201.464C147.877 202.513 149.413 203.439 151.018 204.232C154.43 205.906 157.934 207.384 161.514 208.66L160.72 211.875C156.736 211.221 152.823 210.186 149.037 208.785C147.052 208.06 145.14 207.153 143.323 206.076C142.325 205.467 141.391 204.76 140.535 203.963C139.453 202.983 138.635 201.747 138.154 200.369C138.016 199.942 137.921 199.502 137.872 199.057V198.715V198.466V198.014C137.872 197.423 137.872 196.859 137.872 196.308C137.931 195.206 138.049 194.163 138.2 193.139C138.495 191.08 138.856 189.099 139.348 187.144C139.84 185.189 140.292 183.254 140.837 181.338C141.381 179.423 141.958 177.54 142.628 175.624L148.978 177.776Z" fill="#ED893E"/>
<path d="M145.088 168.48C142.464 169.274 138.528 179.501 138.528 179.501L148.636 186.717C148.636 186.717 153.183 177.973 152.087 174.601C150.913 171.104 148.066 167.575 145.088 168.48Z" fill="url(#paint27_linear_620_1037)"/>
<path opacity="0.5" d="M145.088 168.48C142.464 169.274 138.528 179.501 138.528 179.501L148.636 186.717C148.636 186.717 153.183 177.973 152.087 174.601C150.913 171.104 148.066 167.575 145.088 168.48Z" fill="#D9D9D9"/>
<path d="M160.241 208.864L166.316 207.329L163.423 213.161C163.423 213.161 159.316 213.338 157.958 211.048L160.241 208.864Z" fill="#ED893E"/>
<path d="M171.229 209.546L168.54 214.302L163.423 213.161L166.316 207.329L171.229 209.546Z" fill="#ED893E"/>
<path d="M223.735 189.348H178.078L171.459 216.309H217.116L223.735 189.348Z" fill="url(#paint28_linear_620_1037)"/>
<path d="M217.116 216.309L216.933 217.798H171.275L171.459 216.309H217.116Z" fill="url(#paint29_linear_620_1037)"/>
<path d="M252.304 248.998H251.648V256.863H252.304V248.998Z" fill="url(#paint30_linear_620_1037)"/>
<path opacity="0.3" d="M252.304 248.998H251.648V256.863H252.304V248.998Z" fill="black"/>
<path d="M252.304 259.887H251.648V262.682H252.304V259.887Z" fill="url(#paint31_linear_620_1037)"/>
<path opacity="0.3" d="M252.304 259.887H251.648V262.682H252.304V259.887Z" fill="black"/>
<path d="M96.432 204.219C96.0646 204.219 95.6973 204.219 95.3234 204.252C87.5301 204.81 81.2259 211.409 80.7339 219.53C80.6168 221.324 80.7874 223.124 81.239 224.864C82.9558 231.849 83.7845 239.023 83.7056 246.216V267.208C83.6897 267.921 83.9569 268.611 84.4487 269.128C84.9405 269.644 85.6168 269.945 86.3296 269.964H150.224V204.219H96.432Z" fill="url(#paint32_linear_620_1037)"/>
<path opacity="0.3" d="M96.432 204.219C96.0646 204.219 95.6973 204.219 95.3234 204.252C87.5301 204.81 81.2259 211.409 80.7339 219.53C80.6168 221.324 80.7874 223.124 81.239 224.864C82.9558 231.849 83.7845 239.023 83.7056 246.216V267.208C83.6897 267.921 83.9569 268.611 84.4487 269.128C84.9405 269.644 85.6168 269.945 86.3296 269.964H150.224V204.219H96.432Z" fill="black"/>
<path d="M165.968 220.606C165.968 211.179 158.319 203.603 149.128 204.259C141.335 204.816 135.031 211.416 134.539 219.537C134.422 221.33 134.592 223.131 135.044 224.87C136.761 231.856 137.59 239.03 137.511 246.223V267.215C137.495 267.928 137.762 268.618 138.254 269.134C138.746 269.651 139.422 269.951 140.135 269.97H160.307C161.019 269.95 161.694 269.648 162.186 269.132C162.677 268.617 162.945 267.927 162.931 267.215V244.99C162.872 238.252 163.69 231.535 165.364 225.008C165.759 223.574 165.961 222.094 165.968 220.606Z" fill="url(#paint33_linear_620_1037)"/>
<defs>
<linearGradient id="paint0_linear_620_1037" x1="229.498" y1="107.774" x2="229.498" y2="162.032" gradientUnits="userSpaceOnUse">
<stop stop-color="#3FB65B"/>
<stop offset="1" stop-color="#214694"/>
</linearGradient>
<linearGradient id="paint1_linear_620_1037" x1="250.382" y1="123.794" x2="250.382" y2="137.307" gradientUnits="userSpaceOnUse">
<stop stop-color="#3FB65B"/>
<stop offset="1" stop-color="#214694"/>
</linearGradient>
<linearGradient id="paint2_linear_620_1037" x1="229.508" y1="123.794" x2="229.508" y2="137.307" gradientUnits="userSpaceOnUse">
<stop stop-color="#3FB65B"/>
<stop offset="1" stop-color="#214694"/>
</linearGradient>
<linearGradient id="paint3_linear_620_1037" x1="208.641" y1="123.794" x2="208.641" y2="137.307" gradientUnits="userSpaceOnUse">
<stop stop-color="#3FB65B"/>
<stop offset="1" stop-color="#214694"/>
</linearGradient>
<linearGradient id="paint4_linear_620_1037" x1="150.204" y1="65.3311" x2="150.204" y2="119.549" gradientUnits="userSpaceOnUse">
<stop stop-color="#3FB65B"/>
<stop offset="1" stop-color="#214694"/>
</linearGradient>
<linearGradient id="paint5_linear_620_1037" x1="150.201" y1="75.6238" x2="150.201" y2="80.4782" gradientUnits="userSpaceOnUse">
<stop stop-color="#3FB65B"/>
<stop offset="1" stop-color="#214694"/>
</linearGradient>
<linearGradient id="paint6_linear_620_1037" x1="144.336" y1="85.6802" x2="144.336" y2="90.5346" gradientUnits="userSpaceOnUse">
<stop stop-color="#3FB65B"/>
<stop offset="1" stop-color="#214694"/>
</linearGradient>
<linearGradient id="paint7_linear_620_1037" x1="146.918" y1="95.7432" x2="146.918" y2="100.598" gradientUnits="userSpaceOnUse">
<stop stop-color="#3FB65B"/>
<stop offset="1" stop-color="#214694"/>
</linearGradient>
<linearGradient id="paint8_linear_620_1037" x1="208.631" y1="204.219" x2="208.631" y2="269.964" gradientUnits="userSpaceOnUse">
<stop stop-color="#3FB65B"/>
<stop offset="1" stop-color="#214694"/>
</linearGradient>
<linearGradient id="paint9_linear_620_1037" x1="237.485" y1="204.219" x2="237.485" y2="269.97" gradientUnits="userSpaceOnUse">
<stop stop-color="#3FB65B"/>
<stop offset="1" stop-color="#214694"/>
</linearGradient>
<linearGradient id="paint10_linear_620_1037" x1="182.63" y1="230.033" x2="182.63" y2="269.931" gradientUnits="userSpaceOnUse">
<stop stop-color="#3FB65B"/>
<stop offset="1" stop-color="#214694"/>
</linearGradient>
<linearGradient id="paint11_linear_620_1037" x1="150.857" y1="182.243" x2="150.857" y2="239.053" gradientUnits="userSpaceOnUse">
<stop stop-color="#3FB65B"/>
<stop offset="1" stop-color="#214694"/>
</linearGradient>
<linearGradient id="paint12_linear_620_1037" x1="159.946" y1="182.243" x2="159.946" y2="239.073" gradientUnits="userSpaceOnUse">
<stop stop-color="#3FB65B"/>
<stop offset="1" stop-color="#214694"/>
</linearGradient>
<linearGradient id="paint13_linear_620_1037" x1="185.353" y1="225.88" x2="185.353" y2="242.641" gradientUnits="userSpaceOnUse">
<stop stop-color="#3FB65B"/>
<stop offset="1" stop-color="#214694"/>
</linearGradient>
<linearGradient id="paint14_linear_620_1037" x1="166.949" y1="269.937" x2="166.949" y2="271.945" gradientUnits="userSpaceOnUse">
<stop stop-color="#3FB65B"/>
<stop offset="1" stop-color="#214694"/>
</linearGradient>
<linearGradient id="paint15_linear_620_1037" x1="176.97" y1="168.228" x2="176.97" y2="185.149" gradientUnits="userSpaceOnUse">
<stop stop-color="#3FB65B"/>
<stop offset="1" stop-color="#214694"/>
</linearGradient>
<linearGradient id="paint16_linear_620_1037" x1="176.612" y1="172.613" x2="176.612" y2="185.149" gradientUnits="userSpaceOnUse">
<stop stop-color="#3FB65B"/>
<stop offset="1" stop-color="#214694"/>
</linearGradient>
<linearGradient id="paint17_linear_620_1037" x1="162.324" y1="166.812" x2="162.324" y2="207.329" gradientUnits="userSpaceOnUse">
<stop stop-color="#3FB65B"/>
<stop offset="1" stop-color="#214694"/>
</linearGradient>
<linearGradient id="paint18_linear_620_1037" x1="162.619" y1="166.812" x2="162.619" y2="181.089" gradientUnits="userSpaceOnUse">
<stop stop-color="#3FB65B"/>
<stop offset="1" stop-color="#214694"/>
</linearGradient>
<linearGradient id="paint19_linear_620_1037" x1="149.557" y1="178.57" x2="149.557" y2="191.211" gradientUnits="userSpaceOnUse">
<stop stop-color="#3FB65B"/>
<stop offset="1" stop-color="#214694"/>
</linearGradient>
<linearGradient id="paint20_linear_620_1037" x1="186.213" y1="228.77" x2="186.213" y2="232.388" gradientUnits="userSpaceOnUse">
<stop stop-color="#3FB65B"/>
<stop offset="1" stop-color="#214694"/>
</linearGradient>
<linearGradient id="paint21_linear_620_1037" x1="187.298" y1="219.209" x2="187.298" y2="229.521" gradientUnits="userSpaceOnUse">
<stop stop-color="#3FB65B"/>
<stop offset="1" stop-color="#214694"/>
</linearGradient>
<linearGradient id="paint22_linear_620_1037" x1="186.742" y1="228.687" x2="186.742" y2="230.435" gradientUnits="userSpaceOnUse">
<stop stop-color="#3FB65B"/>
<stop offset="1" stop-color="#214694"/>
</linearGradient>
<linearGradient id="paint23_linear_620_1037" x1="172.859" y1="229.829" x2="172.859" y2="233.779" gradientUnits="userSpaceOnUse">
<stop stop-color="#3FB65B"/>
<stop offset="1" stop-color="#214694"/>
</linearGradient>
<linearGradient id="paint24_linear_620_1037" x1="171.513" y1="229.821" x2="171.513" y2="232.631" gradientUnits="userSpaceOnUse">
<stop stop-color="#3FB65B"/>
<stop offset="1" stop-color="#214694"/>
</linearGradient>
<linearGradient id="paint25_linear_620_1037" x1="169.458" y1="221.065" x2="169.458" y2="231.804" gradientUnits="userSpaceOnUse">
<stop stop-color="#3FB65B"/>
<stop offset="1" stop-color="#214694"/>
</linearGradient>
<linearGradient id="paint26_linear_620_1037" x1="162.802" y1="205.602" x2="162.802" y2="208.496" gradientUnits="userSpaceOnUse">
<stop stop-color="#3FB65B"/>
<stop offset="1" stop-color="#214694"/>
</linearGradient>
<linearGradient id="paint27_linear_620_1037" x1="145.392" y1="168.337" x2="145.392" y2="186.717" gradientUnits="userSpaceOnUse">
<stop stop-color="#3FB65B"/>
<stop offset="1" stop-color="#214694"/>
</linearGradient>
<linearGradient id="paint28_linear_620_1037" x1="197.597" y1="189.348" x2="197.597" y2="216.309" gradientUnits="userSpaceOnUse">
<stop stop-color="#3FB65B"/>
<stop offset="1" stop-color="#214694"/>
</linearGradient>
<linearGradient id="paint29_linear_620_1037" x1="194.196" y1="216.309" x2="194.196" y2="217.798" gradientUnits="userSpaceOnUse">
<stop stop-color="#3FB65B"/>
<stop offset="1" stop-color="#214694"/>
</linearGradient>
<linearGradient id="paint30_linear_620_1037" x1="251.976" y1="248.998" x2="251.976" y2="256.863" gradientUnits="userSpaceOnUse">
<stop stop-color="#3FB65B"/>
<stop offset="1" stop-color="#214694"/>
</linearGradient>
<linearGradient id="paint31_linear_620_1037" x1="251.976" y1="259.887" x2="251.976" y2="262.682" gradientUnits="userSpaceOnUse">
<stop stop-color="#3FB65B"/>
<stop offset="1" stop-color="#214694"/>
</linearGradient>
<linearGradient id="paint32_linear_620_1037" x1="115.461" y1="204.219" x2="115.461" y2="269.964" gradientUnits="userSpaceOnUse">
<stop stop-color="#3FB65B"/>
<stop offset="1" stop-color="#214694"/>
</linearGradient>
<linearGradient id="paint33_linear_620_1037" x1="150.236" y1="204.219" x2="150.236" y2="269.97" gradientUnits="userSpaceOnUse">
<stop stop-color="#3FB65B"/>
<stop offset="1" stop-color="#214694"/>
</linearGradient>
</defs>
</svg>
